<?xml version="1.0" encoding="UTF-8"?>
<svg version="1.1" xmlns="http://www.w3.org/2000/svg" width="500" height="500">
<path d="M0 0 C3.63 0 7.26 0 11 0 C12.32 4.29 13.64 8.58 15 13 C15.639375 11.040625 16.27875 9.08125 16.9375 7.0625 C18.875 1.125 18.875 1.125 20 0 C23.00331018 -0.14193337 25.99217134 -0.04236378 29 0 C30.32 4.29 31.64 8.58 33 13 C33.9590625 10.0609375 33.9590625 10.0609375 34.9375 7.0625 C36.875 1.125 36.875 1.125 38 0 C39.85287502 -0.07226502 41.70833878 -0.0838122 43.5625 -0.0625 C44.57441406 -0.05347656 45.58632813 -0.04445312 46.62890625 -0.03515625 C47.41136719 -0.02355469 48.19382812 -0.01195312 49 0 C46.52891267 9.8409969 43.26306008 19.40090092 40 29 C36.37 29 32.74 29 29 29 C27.92578125 26.11914062 27.92578125 26.11914062 26.8515625 23.23828125 C25.92943604 20.81452683 24.9631058 18.4077645 24 16 C22.68 20.29 21.36 24.58 20 29 C16.04 29 12.08 29 8 29 C6.6615516 24.73070813 5.3290358 20.4597215 4 16.1875 C3.6184375 14.97255859 3.236875 13.75761719 2.84375 12.50585938 C2.4828125 11.34248047 2.121875 10.17910156 1.75 8.98046875 C1.41484375 7.90692139 1.0796875 6.83337402 0.734375 5.72729492 C0 3 0 3 0 0 Z " fill="#044AA9" transform="translate(329,206)"/>
<path d="M0 0 C1.16080078 0.06123047 2.32160156 0.12246094 3.51757812 0.18554688 C6.36705823 0.3379882 9.21476651 0.50571623 12.0625 0.6875 C12.0625 3.6575 12.0625 6.6275 12.0625 9.6875 C5.4625 9.6875 -1.1375 9.6875 -7.9375 9.6875 C-7.958125 12.78125 -7.97875 15.875 -8 19.0625 C-8.009104 20.03622559 -8.01820801 21.00995117 -8.02758789 22.01318359 C-8.03008545 22.77969238 -8.03258301 23.54620117 -8.03515625 24.3359375 C-8.04039307 25.12145996 -8.04562988 25.90698242 -8.05102539 26.71630859 C-8.06323953 28.76522668 -8.06323953 28.76522668 -6.9375 30.6875 C-0.6675 30.6875 5.6025 30.6875 12.0625 30.6875 C12.0625 33.3275 12.0625 35.9675 12.0625 38.6875 C6.63206191 39.59378139 1.37644089 39.8704646 -4.125 39.875 C-4.91841797 39.88724609 -5.71183594 39.89949219 -6.52929688 39.91210938 C-14.08517303 39.93114181 -14.08517303 39.93114181 -16.9375 37.6875 C-19.12733259 34.2639238 -19.24029956 31.28937123 -19.3515625 27.27734375 C-19.39023438 26.04048828 -19.42890625 24.80363281 -19.46875 23.52929688 C-19.4996875 22.24087891 -19.530625 20.95246094 -19.5625 19.625 C-19.60117188 18.33271484 -19.63984375 17.04042969 -19.6796875 15.70898438 C-19.9375 6.88351004 -19.9375 6.88351004 -19.9375 2.6875 C-13.33425089 -1.04060436 -7.41408288 -0.47628844 0 0 Z " fill="#0648A4" transform="translate(143.9375,196.3125)"/>
<path d="M0 0 C1.25159912 0.00523682 2.50319824 0.01047363 3.79272461 0.01586914 C4.78942421 0.01799156 4.78942421 0.01799156 5.80625916 0.02015686 C7.93590735 0.02577021 10.06545175 0.03832485 12.19506836 0.05102539 C13.63582205 0.05603868 15.07657739 0.06060188 16.51733398 0.06469727 C20.05577938 0.07574394 23.59416375 0.09301747 27.13256836 0.11352539 C27.13256836 3.08352539 27.13256836 6.05352539 27.13256836 9.11352539 C20.53256836 9.11352539 13.93256836 9.11352539 7.13256836 9.11352539 C7.13256836 11.42352539 7.13256836 13.73352539 7.13256836 16.11352539 C8.73938477 16.09612305 8.73938477 16.09612305 10.37866211 16.07836914 C11.77579579 16.0689924 13.17293135 16.05989208 14.57006836 16.05102539 C15.27711914 16.04264648 15.98416992 16.03426758 16.71264648 16.02563477 C18.51950395 16.01698951 20.32644439 16.06132528 22.13256836 16.11352539 C23.13256836 17.11352539 23.13256836 17.11352539 23.13256836 25.11352539 C17.85256836 25.11352539 12.57256836 25.11352539 7.13256836 25.11352539 C7.13256836 29.40352539 7.13256836 33.69352539 7.13256836 38.11352539 C3.50256836 38.11352539 -0.12743164 38.11352539 -3.86743164 38.11352539 C-3.89208092 32.86247097 -3.91026732 27.61144994 -3.92236328 22.36035156 C-3.92740382 20.57258518 -3.93423618 18.78482295 -3.94287109 16.99707031 C-3.95494894 14.43301371 -3.96066258 11.86901142 -3.96508789 9.30493164 C-3.97024918 8.50076309 -3.97541046 7.69659454 -3.98072815 6.86805725 C-3.98092379 4.94950824 -3.92945147 3.03107171 -3.86743164 1.11352539 C-2.86743164 0.11352539 -2.86743164 0.11352539 0 0 Z " fill="#0748A3" transform="translate(250.867431640625,196.886474609375)"/>
<path d="M0 0 C1.33417969 -0.01643555 1.33417969 -0.01643555 2.6953125 -0.03320312 C6.6308992 0.01085195 9.46910243 0.32460413 13.0859375 1.9453125 C16.097307 6.06289936 15.72663304 10.03014434 15.625 15 C15.65400391 16.41249023 15.65400391 16.41249023 15.68359375 17.85351562 C15.65256177 22.25074713 15.41582207 24.88445544 13.0859375 28.68359375 C8.69457202 31.35732387 5.04899682 31.2972608 0 31.1875 C-0.88945312 31.20683594 -1.77890625 31.22617188 -2.6953125 31.24609375 C-6.9609197 31.21426086 -9.407733 30.92985548 -13.0859375 28.6484375 C-15.80755204 24.26052835 -15.73516532 20.63010489 -15.625 15.5625 C-15.64433594 14.67304688 -15.66367187 13.78359375 -15.68359375 12.8671875 C-15.65175239 8.60044539 -15.36588037 6.15313546 -13.0859375 2.47265625 C-8.69441235 -0.24564223 -5.06636149 -0.13583723 0 0 Z M-5 9.5625 C-5.09873816 11.56049572 -5.12971799 13.56207158 -5.125 15.5625 C-5.12757813 16.655625 -5.13015625 17.74875 -5.1328125 18.875 C-5.30547755 21.48080354 -5.30547755 21.48080354 -4 22.5625 C-2.12678052 22.72303815 -2.12678052 22.72303815 0 22.6875 C0.721875 22.69007813 1.44375 22.69265625 2.1875 22.6953125 C4.02089415 22.75945276 4.02089415 22.75945276 5 21.5625 C5.09873816 19.56450428 5.12971799 17.56292842 5.125 15.5625 C5.12757813 14.469375 5.13015625 13.37625 5.1328125 12.25 C5.30547755 9.64419646 5.30547755 9.64419646 4 8.5625 C2.12678052 8.40196185 2.12678052 8.40196185 0 8.4375 C-0.721875 8.43492187 -1.44375 8.43234375 -2.1875 8.4296875 C-4.02089415 8.36554724 -4.02089415 8.36554724 -5 9.5625 Z " fill="#0249AD" transform="translate(313,205.4375)"/>
<path d="M0 0 C1.40185547 0.00966797 1.40185547 0.00966797 2.83203125 0.01953125 C4.28416016 0.04466797 4.28416016 0.04466797 5.765625 0.0703125 C6.74917969 0.07933594 7.73273438 0.08835938 8.74609375 0.09765625 C11.16951907 0.12118465 13.59244722 0.15405882 16.015625 0.1953125 C16.015625 2.8353125 16.015625 5.4753125 16.015625 8.1953125 C8.095625 8.6903125 8.095625 8.6903125 0.015625 9.1953125 C0.015625 9.5253125 0.015625 9.8553125 0.015625 10.1953125 C0.97984375 10.23269531 1.9440625 10.27007812 2.9375 10.30859375 C4.83242187 10.40720703 4.83242187 10.40720703 6.765625 10.5078125 C8.64507812 10.59482422 8.64507812 10.59482422 10.5625 10.68359375 C14.08091776 11.20498824 15.55868032 11.6846967 18.015625 14.1953125 C19.55346653 18.8088371 19.76304359 22.63252819 17.640625 27.0703125 C16.015625 29.1953125 16.015625 29.1953125 14.015625 30.1953125 C11.08916105 30.29441586 8.19167743 30.33420199 5.265625 30.3203125 C4.06679687 30.32611328 4.06679687 30.32611328 2.84375 30.33203125 C-1.54476318 30.3248133 -5.66410666 30.07330252 -9.984375 29.1953125 C-9.984375 26.5553125 -9.984375 23.9153125 -9.984375 21.1953125 C-4.044375 21.5253125 1.895625 21.8553125 8.015625 22.1953125 C8.015625 21.5353125 8.015625 20.8753125 8.015625 20.1953125 C7.06300781 20.18113281 6.11039063 20.16695312 5.12890625 20.15234375 C-5.05182543 19.7652039 -5.05182543 19.7652039 -9.359375 17.1328125 C-11.61505735 13.05523287 -11.49942652 10.83077614 -10.984375 6.1953125 C-10.13579644 3.50814705 -9.60442177 2.57765754 -7.21777344 1.10595703 C-4.64006778 0.05492488 -2.77683604 -0.03386385 0 0 Z " fill="#0749A6" transform="translate(201.984375,205.8046875)"/>
<path d="M0 0 C3.63 0 7.26 0 11 0 C11 6.93 11 13.86 11 21 C14.96 20.505 14.96 20.505 19 20 C19.33 13.4 19.66 6.8 20 0 C23.3 0 26.6 0 30 0 C30 9.57 30 19.14 30 29 C26 29 22 29 18 29 C17.01 29.33 16.02 29.66 15 30 C6.25855475 30.89019726 6.25855475 30.89019726 2.4375 28.1875 C0.09777458 24.62704827 -0.12061377 21.83109209 -0.09765625 17.67578125 C-0.09443359 16.64775391 -0.09121094 15.61972656 -0.08789062 14.56054688 C-0.07951172 13.48869141 -0.07113281 12.41683594 -0.0625 11.3125 C-0.05798828 10.22904297 -0.05347656 9.14558594 -0.04882812 8.02929688 C-0.03703757 5.35284106 -0.01910208 2.67641361 0 0 Z " fill="#0649A4" transform="translate(158,206)"/>
<path d="M0 0 C2.97 0 5.94 0 9 0 C9 1.98 9 3.96 9 6 C11.31 6 13.62 6 16 6 C16 8.64 16 11.28 16 14 C13.69 14 11.38 14 9 14 C9 18.29 9 22.58 9 27 C11.97 27.33 14.94 27.66 18 28 C18 30.64 18 33.28 18 36 C15.77252674 36.13563775 13.54265677 36.23227853 11.3125 36.3125 C10.07113281 36.37050781 8.82976562 36.42851562 7.55078125 36.48828125 C4 36 4 36 1.0625 34.03125 C-1.71927123 29.94288926 -1.57482715 27.00221208 -1.3125 22.1875 C-1.28994141 21.39923828 -1.26738281 20.61097656 -1.24414062 19.79882812 C-1.18554161 17.86506071 -1.09586827 15.93227833 -1 14 C-1.99 14 -2.98 14 -4 14 C-4 11.36 -4 8.72 -4 6 C-3.01 6 -2.02 6 -1 6 C-0.67 4.02 -0.34 2.04 0 0 Z " fill="#0249AC" transform="translate(226,200)"/>
<path d="M0 0 C3.63 0 7.26 0 11 0 C11.33 9.9 11.66 19.8 12 30 C13.32 30.33 14.64 30.66 16 31 C16.04241723 33.33294775 16.04092937 35.66702567 16 38 C14.35034831 39.64965169 12.4523645 39.24949498 10.1875 39.3125 C5.38359554 39.27132368 5.38359554 39.27132368 2.4375 37.1875 C-0.23752294 33.11681291 -0.13303287 29.398592 -0.09765625 24.70703125 C-0.0962413 24.00100266 -0.09482635 23.29497406 -0.09336853 22.56755066 C-0.08777764 20.31582374 -0.07522688 18.06419679 -0.0625 15.8125 C-0.05748382 14.28450665 -0.05292112 12.75651173 -0.04882812 11.22851562 C-0.0378112 7.48563865 -0.02055287 3.74283627 0 0 Z " fill="#0149AC" transform="translate(280,197)"/>
<path d="M0 0 C2.31 0 4.62 0 7 0 C8.65 3.96 10.3 7.92 12 12 C13.32 8.04 14.64 4.08 16 0 C18.31 0 20.62 0 23 0 C23 6.93 23 13.86 23 21 C21.35 21 19.7 21 18 21 C17.67 18.36 17.34 15.72 17 13 C16.01 15.64 15.02 18.28 14 21 C12.35 21 10.7 21 9 21 C8.01 18.36 7.02 15.72 6 13 C5.67 15.64 5.34 18.28 5 21 C3.35 21 1.7 21 0 21 C0 14.07 0 7.14 0 0 Z " fill="#A7A7A7" transform="translate(224,257)"/>
<path d="M0 0 C-2.67082104 1.78054736 -5.04187844 2.83232044 -8 4 C-9.23921211 5.01636977 -9.23921211 5.01636977 -9.11352539 7.13305664 C-9.10828857 8.04949951 -9.10305176 8.96594238 -9.09765625 9.91015625 C-9.09443359 10.89951172 -9.09121094 11.88886719 -9.08789062 12.90820312 C-9.07951172 13.94912109 -9.07113281 14.99003906 -9.0625 16.0625 C-9.05798828 17.10728516 -9.05347656 18.15207031 -9.04882812 19.22851562 C-9.03699913 21.8190666 -9.02051689 24.40950559 -9 27 C-7.68 25.02 -6.36 23.04 -5 21 C-3.125 21.5625 -3.125 21.5625 -1 23 C-0.34 25.31 0.32 27.62 1 30 C7.27 30 13.54 30 20 30 C20 32.64 20 35.28 20 38 C14.56956191 38.90628139 9.31394089 39.1829646 3.8125 39.1875 C3.01908203 39.19974609 2.22566406 39.21199219 1.40820312 39.22460938 C-6.14767303 39.24364181 -6.14767303 39.24364181 -9 37 C-11.18983259 33.5764238 -11.30279956 30.60187123 -11.4140625 26.58984375 C-11.45273438 25.35298828 -11.49140625 24.11613281 -11.53125 22.84179688 C-11.5621875 21.55337891 -11.593125 20.26496094 -11.625 18.9375 C-11.66367188 17.64521484 -11.70234375 16.35292969 -11.7421875 15.02148438 C-12 6.19601004 -12 6.19601004 -12 2 C-4.71428571 -1.57142857 -4.71428571 -1.57142857 0 0 Z " fill="#094BA2" transform="translate(136,197)"/>
<path d="M0 0 C0.94148531 2.82445592 1.07311695 4.14171618 0.87890625 7.01171875 C0.83056641 7.76904297 0.78222656 8.52636719 0.73242188 9.30664062 C0.67634766 10.09232422 0.62027344 10.87800781 0.5625 11.6875 C0.51029297 12.48478516 0.45808594 13.28207031 0.40429688 14.10351562 C0.27480978 16.06936522 0.13809959 18.03473665 0 20 C1.99954746 20.04254356 4.00041636 20.04080783 6 20 C7.92701266 18.07298734 7.35478857 14.57231681 7.5 12 C7.88888889 5.11111111 7.88888889 5.11111111 9 4 C10.51928038 3.92820036 12.04167482 3.91607993 13.5625 3.9375 C14.38878906 3.94652344 15.21507812 3.95554688 16.06640625 3.96484375 C16.70449219 3.97644531 17.34257812 3.98804688 18 4 C18 4.33 18 4.66 18 5 C15.36 5.33 12.72 5.66 10 6 C10 9.96 10 13.92 10 18 C12.64 18 15.28 18 18 18 C18.33 14.04 18.66 10.08 19 6 C19.33 6 19.66 6 20 6 C20.12375 7.670625 20.12375 7.670625 20.25 9.375 C20.57873787 13.05753944 20.57873787 13.05753944 23.0625 14.4375 C23.701875 14.623125 24.34125 14.80875 25 15 C25 16.32 25 17.64 25 19 C25.99 19 26.98 19 28 19 C28 13.39 28 7.78 28 2 C28.33 2 28.66 2 29 2 C29.14584064 5.22868746 29.23424106 8.45652365 29.3125 11.6875 C29.35439453 12.59951172 29.39628906 13.51152344 29.43945312 14.45117188 C29.51884995 18.81799718 29.4180387 21.31476131 27.10546875 25.10546875 C22.70180745 27.7919791 19.06548251 27.73511919 14 27.625 C13.11054688 27.64433594 12.22109375 27.66367188 11.3046875 27.68359375 C7.04228601 27.65178478 4.58433809 27.35840384 0.8984375 25.09765625 C-1.82935908 20.64674536 -1.5866399 16.92469827 -1.375 11.8125 C-1.36082031 10.89791016 -1.34664063 9.98332031 -1.33203125 9.04101562 C-1.18430261 2.36860521 -1.18430261 2.36860521 0 0 Z " fill="#0F4B9B" transform="translate(299,209)"/>
<path d="M0 0 C2.29141286 -0.05384521 4.58318188 -0.09272087 6.875 -0.125 C8.78925781 -0.15980469 8.78925781 -0.15980469 10.7421875 -0.1953125 C14 0 14 0 16 2 C16.1778851 5.20193177 16.28510468 8.03064407 15.375 11.125 C14.83457577 13.82712113 15.91954222 15.52130274 17 18 C17 18.99 17 19.98 17 21 C15.35 21 13.7 21 12 21 C11.566875 19.865625 11.13375 18.73125 10.6875 17.5625 C10.130625 16.386875 9.57375 15.21125 9 14 C8.01 13.67 7.02 13.34 6 13 C6 15.64 6 18.28 6 21 C4.35 21 2.7 21 1 21 C-0.32719886 14.03220597 -0.08825381 7.07011089 0 0 Z M6 4 C6 5.65 6 7.3 6 9 C7.65 8.67 9.3 8.34 11 8 C11 6.68 11 5.36 11 4 C9.35 4 7.7 4 6 4 Z " fill="#A9A9A9" transform="translate(281,257)"/>
<path d="M0 0 C9.86328125 -0.390625 9.86328125 -0.390625 13 0 C14.93359375 1.85546875 14.93359375 1.85546875 16 4 C15.71814575 6.88900605 14.91884332 9.24347003 14 12 C14.52943294 14.31413374 14.52943294 14.31413374 15.4375 16.6875 C15.72496094 17.49574219 16.01242188 18.30398438 16.30859375 19.13671875 C16.65083984 20.05904297 16.65083984 20.05904297 17 21 C15.02 21 13.04 21 11 21 C10.34 18.36 9.68 15.72 9 13 C7.68 13 6.36 13 5 13 C5 15.64 5 18.28 5 21 C3.35 21 1.7 21 0 21 C0 14.07 0 7.14 0 0 Z M5 4 C5 5.65 5 7.3 5 9 C6.65 8.67 8.3 8.34 10 8 C10 6.68 10 5.36 10 4 C8.35 4 6.7 4 5 4 Z " fill="#A8A8A8" transform="translate(205,257)"/>
<path d="M0 0 C2.97 0 5.94 0 9 0 C9 1.98 9 3.96 9 6 C11.31 6 13.62 6 16 6 C16 8.64 16 11.28 16 14 C13.69 14 11.38 14 9 14 C9 18.29 9 22.58 9 27 C11.97 27.33 14.94 27.66 18 28 C18 29.65 18 31.3 18 33 C17.67 31.68 17.34 30.36 17 29 C14.03 29 11.06 29 8 29 C7.67 29.66 7.34 30.32 7 31 C6.67 29.68 6.34 28.36 6 27 C6.66 27 7.32 27 8 27 C8 22.38 8 17.76 8 13 C10.31 13 12.62 13 15 13 C15 11.02 15 9.04 15 7 C11.7 7.33 8.4 7.66 5 8 C4.67 9.32 4.34 10.64 4 12 C3.01 12 2.02 12 1 12 C1.08064635 15.2926882 1.19350279 18.58349221 1.3125 21.875 C1.33505859 22.81214844 1.35761719 23.74929687 1.38085938 24.71484375 C1.4340332 26.05869141 1.4340332 26.05869141 1.48828125 27.4296875 C1.51446533 28.25710449 1.54064941 29.08452148 1.56762695 29.93701172 C1.83096637 32.39327932 1.83096637 32.39327932 5 34 C8.19806665 34.4603764 8.19806665 34.4603764 11.6875 34.625 C12.86699219 34.69976562 14.04648438 34.77453125 15.26171875 34.8515625 C16.16535156 34.90054688 17.06898438 34.94953125 18 35 C18 35.33 18 35.66 18 36 C15.77252674 36.13563775 13.54265677 36.23227853 11.3125 36.3125 C10.07113281 36.37050781 8.82976562 36.42851562 7.55078125 36.48828125 C4 36 4 36 1.0625 34.03125 C-1.71927123 29.94288926 -1.57482715 27.00221208 -1.3125 22.1875 C-1.28994141 21.39923828 -1.26738281 20.61097656 -1.24414062 19.79882812 C-1.18554161 17.86506071 -1.09586827 15.93227833 -1 14 C-1.99 14 -2.98 14 -4 14 C-4 11.36 -4 8.72 -4 6 C-3.01 6 -2.02 6 -1 6 C-0.67 4.02 -0.34 2.04 0 0 Z " fill="#104B9C" transform="translate(226,200)"/>
<path d="M0 0 C2 1.5625 2 1.5625 3 3 C2.67 3.99 2.34 4.98 2 6 C1.01 6.33 0.02 6.66 -1 7 C-1.66 6.34 -2.32 5.68 -3 5 C-5.58354218 4.83312552 -5.58354218 4.83312552 -8 5 C-9.77084117 7.70834531 -10.01052504 8.89264459 -9.6875 12.1875 C-9.28524717 14.88774554 -9.28524717 14.88774554 -8 16 C-5.58416247 16.33374277 -5.58416247 16.33374277 -3 16 C-1.18523997 14.60414215 -1.18523997 14.60414215 0 13 C0.99 13.66 1.98 14.32 3 15 C2.69977741 17.90215168 2.16229344 18.85737849 -0.0625 20.8125 C-3.98662665 22.39884907 -6.97732716 22.2539294 -11 21 C-13.93087207 18.74548302 -14.82814288 17.51557135 -16 14 C-16.36945059 9.01241703 -16.18227193 5.95040654 -13 2 C-8.5959275 -1.77491928 -5.37800395 -1.21438799 0 0 Z " fill="#AAAAAA" transform="translate(199,257)"/>
<path d="M0 0 C1.93166016 0.01740234 1.93166016 0.01740234 3.90234375 0.03515625 C5.19269531 0.04417969 6.48304688 0.05320312 7.8125 0.0625 C8.81152344 0.07410156 9.81054688 0.08570313 10.83984375 0.09765625 C10.83984375 1.41765625 10.83984375 2.73765625 10.83984375 4.09765625 C7.86984375 4.09765625 4.89984375 4.09765625 1.83984375 4.09765625 C1.83984375 5.41765625 1.83984375 6.73765625 1.83984375 8.09765625 C4.47984375 8.09765625 7.11984375 8.09765625 9.83984375 8.09765625 C9.83984375 9.41765625 9.83984375 10.73765625 9.83984375 12.09765625 C7.19984375 12.09765625 4.55984375 12.09765625 1.83984375 12.09765625 C1.83984375 13.74765625 1.83984375 15.39765625 1.83984375 17.09765625 C5.13984375 17.09765625 8.43984375 17.09765625 11.83984375 17.09765625 C11.83984375 18.41765625 11.83984375 19.73765625 11.83984375 21.09765625 C6.55984375 21.09765625 1.27984375 21.09765625 -4.16015625 21.09765625 C-4.18699061 17.78510299 -4.20691405 14.47276442 -4.22265625 11.16015625 C-4.23103516 10.21462891 -4.23941406 9.26910156 -4.24804688 8.29492188 C-4.25126953 7.39580078 -4.25449219 6.49667969 -4.2578125 5.5703125 C-4.26304932 4.73765869 -4.26828613 3.90500488 -4.27368164 3.04711914 C-4.08046966 -0.27072533 -3.39709029 0.10497807 0 0 Z " fill="#A9A9A9" transform="translate(267.16015625,256.90234375)"/>
<path d="M0 0 C12.45780542 -0.37003382 12.45780542 -0.37003382 14.89453125 1.29296875 C16.75624219 4.1677662 16.35457006 6.6906794 16 10 C14.45737187 12.10358381 13.31891683 12.84054159 11 14 C9.00039988 14.039992 6.99952758 14.04346799 5 14 C5 16.31 5 18.62 5 21 C3.35 21 1.7 21 0 21 C0 14.07 0 7.14 0 0 Z M5 4 C5 5.65 5 7.3 5 9 C6.98 9 8.96 9 11 9 C10.67 7.35 10.34 5.7 10 4 C8.35 4 6.7 4 5 4 Z " fill="#ABABAB" transform="translate(301,257)"/>
<path d="M0 0 C3.63 0 7.26 0 11 0 C11.33 9.9 11.66 19.8 12 30 C13.32 30.33 14.64 30.66 16 31 C16.04241723 33.33294775 16.04092937 35.66702567 16 38 C14.35034831 39.64965169 12.4523645 39.24949498 10.1875 39.3125 C6.57733765 39.28667623 5.37994002 39.27138573 2.375 37.125 C1 35 1 35 1 33 C1.66 33 2.32 33 3 33 C3 33.99 3 34.98 3 36 C3.99 36 4.98 36 6 36 C6.33 34.35 6.66 32.7 7 31 C7.66 31 8.32 31 9 31 C9 21.43 9 11.86 9 2 C6.36 2 3.72 2 1 2 C1 11.9 1 21.8 1 32 C0.67 32 0.34 32 0 32 C0 21.44 0 10.88 0 0 Z " fill="#0D4995" transform="translate(280,197)"/>
<path d="M0 0 C1.51400391 0.01740234 1.51400391 0.01740234 3.05859375 0.03515625 C4.07050781 0.04417969 5.08242188 0.05320313 6.125 0.0625 C7.29869141 0.07990234 7.29869141 0.07990234 8.49609375 0.09765625 C6.02500642 9.93865315 2.75915383 19.49855717 -0.50390625 29.09765625 C-1.50390625 26.09765625 -1.50390625 26.09765625 -0.56640625 23.34765625 C0.60566987 19.76248224 0.64597678 16.8447319 0.49609375 13.09765625 C-2.44482212 13.28181057 -2.44482212 13.28181057 -5.50390625 14.09765625 C-6.94028323 16.04928743 -6.94028323 16.04928743 -7.50390625 18.09765625 C-8.12890625 15.72265625 -8.12890625 15.72265625 -8.50390625 13.09765625 C-7.84390625 12.43765625 -7.18390625 11.77765625 -6.50390625 11.09765625 C-5.92383089 9.42959265 -5.40940043 7.73806701 -4.94140625 6.03515625 C-3.30596846 0.12893793 -3.30596846 0.12893793 0 0 Z " fill="#0B4CA1" transform="translate(369.50390625,205.90234375)"/>
<path d="M0 0 C1.32 0 2.64 0 4 0 C2.55993623 8.94129144 -0.20805971 17.41105391 -3 26 C-4.65 26 -6.3 26 -8 26 C-6.82981326 20.0426857 -5.23930991 14.29157791 -3.4375 8.5 C-3.10455933 7.42202148 -3.10455933 7.42202148 -2.76489258 6.32226562 C-1.12575354 1.12575354 -1.12575354 1.12575354 0 0 Z " fill="#A8A8A8" transform="translate(257,255)"/>
<path d="M0 0 C3.63 0 7.26 0 11 0 C12.32 4.29 13.64 8.58 15 13 C15.639375 11.040625 16.27875 9.08125 16.9375 7.0625 C18.875 1.125 18.875 1.125 20 0 C21.51928038 -0.07179964 23.04167482 -0.08392007 24.5625 -0.0625 C25.38878906 -0.05347656 26.21507812 -0.04445312 27.06640625 -0.03515625 C27.70449219 -0.02355469 28.34257812 -0.01195312 29 0 C29.33 1.98 29.66 3.96 30 6 C29.34 6 28.68 6 28 6 C27.67 4.68 27.34 3.36 27 2 C26.01 2.495 26.01 2.495 25 3 C25 4.65 25 6.3 25 8 C24.01 8.33 23.02 8.66 22 9 C21.34 7.68 20.68 6.36 20 5 C19.01 8.96 18.02 12.92 17 17 C15.68 17 14.36 17 13 17 C13 16.34 13 15.68 13 15 C12.34 15 11.68 15 11 15 C11.020625 13.989375 11.04125 12.97875 11.0625 11.9375 C11.00312266 8.19672743 10.60204915 4.68755102 10 1 C7.36 1 4.72 1 2 1 C2.350625 2.2375 2.70125 3.475 3.0625 4.75 C3.95593273 7.903292 4.00881294 9.86774164 3 13 C2.49487756 11.39743892 1.99608373 9.79288208 1.5 8.1875 C1.2215625 7.29417969 0.943125 6.40085938 0.65625 5.48046875 C0 3 0 3 0 0 Z " fill="#134C9A" transform="translate(329,206)"/>
<path d="M0 0 C1.58206057 0.00667536 3.16410534 0.0186375 4.74609375 0.03515625 C5.55240234 0.03966797 6.35871094 0.04417969 7.18945312 0.04882812 C9.18753131 0.06065107 11.18557158 0.07858711 13.18359375 0.09765625 C13.18359375 1.74765625 13.18359375 3.39765625 13.18359375 5.09765625 C8.3262973 6.07064781 3.73353125 6.2180443 -1.19140625 6.16015625 C-1.92746094 6.15564453 -2.66351563 6.15113281 -3.421875 6.14648438 C-5.22008783 6.13480767 -7.01825822 6.11687636 -8.81640625 6.09765625 C-7.82640625 5.76765625 -6.83640625 5.43765625 -5.81640625 5.09765625 C-5.15460778 3.11720066 -5.15460778 3.11720066 -4.81640625 1.09765625 C-3.81640625 0.09765625 -3.81640625 0.09765625 0 0 Z " fill="#0249AB" transform="translate(141.81640625,228.90234375)"/>
<path d="M0 0 C0.66 0.33 1.32 0.66 2 1 C2.37851209 6.93002267 1.10575375 11.47239641 -1 17 C-2.32 17 -3.64 17 -5 17 C-7.10188936 13.58442978 -7.4871351 10.97827 -7 7 C-4.90741149 3.82503812 -3.17308714 2.11539143 0 0 Z " fill="#0149AE" transform="translate(369,218)"/>
<path d="M0 0 C2.5654594 2.5654594 2.54046087 4.47686668 3 8 C-0.60993172 9.13480527 -3.9842327 9.10015767 -7.75 9.0625 C-8.92046875 9.05347656 -10.0909375 9.04445312 -11.296875 9.03515625 C-12.18890625 9.02355469 -13.0809375 9.01195312 -14 9 C-11.61934111 4.26164678 -11.61934111 4.26164678 -8.80859375 3.07421875 C-8.02613281 2.94660156 -7.24367188 2.81898438 -6.4375 2.6875 C-5.65246094 2.54699219 -4.86742187 2.40648437 -4.05859375 2.26171875 C-2 2 -2 2 0 2 C0 1.34 0 0.68 0 0 Z " fill="#0249AE" transform="translate(320,226)"/>
<path d="M0 0 C0.66 0 1.32 0 2 0 C2 1.32 2 2.64 2 4 C2.86625 4.061875 2.86625 4.061875 3.75 4.125 C7.10194279 5.42853331 8.11122954 8.04092628 10 11 C10.66 11 11.32 11 12 11 C12.33 12.65 12.66 14.3 13 16 C11.35 16 9.7 16 8 16 C7.566875 14.865625 7.13375 13.73125 6.6875 12.5625 C6.130625 11.386875 5.57375 10.21125 5 9 C4.01 8.67 3.02 8.34 2 8 C2 10.64 2 13.28 2 16 C0.35 16 -1.3 16 -3 16 C-3 14.35 -3 12.7 -3 11 C-2.67 12.32 -2.34 13.64 -2 15 C0.38825035 13.06571214 0.38825035 13.06571214 0.125 9.5625 C0.08375 8.386875 0.0425 7.21125 0 6 C0 4 0 2 0 0 Z " fill="#A3A3A3" transform="translate(285,262)"/>
<path d="M0 0 C2 1.5625 2 1.5625 3 3 C2.67 3.99 2.34 4.98 2 6 C1.01 6.33 0.02 6.66 -1 7 C-1.66 6.34 -2.32 5.68 -3 5 C-4.31747324 4.30251417 -5.64914193 3.63040043 -7 3 C-6.67 2.34 -6.34 1.68 -6 1 C-10.57396492 2.82585558 -10.57396492 2.82585558 -13.375 6.6875 C-13.58125 7.450625 -13.7875 8.21375 -14 9 C-14.66 9 -15.32 9 -16 9 C-14.07517084 2.33712984 -14.07517084 2.33712984 -11 0 C-7.10074461 -1.2997518 -3.96707301 -0.96697405 0 0 Z " fill="#A8A8A8" transform="translate(199,257)"/>
<path d="M0 0 C-2.67082104 1.78054736 -5.04187844 2.83232044 -8 4 C-10.36161611 6.36161611 -9.18545023 12.27060868 -9.1875 15.4375 C-9.19974609 16.39849609 -9.21199219 17.35949219 -9.22460938 18.34960938 C-9.23765475 24.79837287 -8.51633135 30.73278347 -7 37 C-7.66 37 -8.32 37 -9 37 C-11.12232057 33.51545813 -11.30198787 30.63113996 -11.4140625 26.58984375 C-11.45273438 25.35298828 -11.49140625 24.11613281 -11.53125 22.84179688 C-11.5621875 21.55337891 -11.593125 20.26496094 -11.625 18.9375 C-11.66367188 17.64521484 -11.70234375 16.35292969 -11.7421875 15.02148438 C-12 6.19601004 -12 6.19601004 -12 2 C-4.71428571 -1.57142857 -4.71428571 -1.57142857 0 0 Z " fill="#21528E" transform="translate(136,197)"/>
<path d="M0 0 C0.89267578 0.00966797 1.78535156 0.01933594 2.70507812 0.02929688 C4.09823242 0.06700195 4.09823242 0.06700195 5.51953125 0.10546875 C6.45990234 0.11900391 7.40027344 0.13253906 8.36914062 0.14648438 C10.69068163 0.18183779 13.01106778 0.23118201 15.33203125 0.29296875 C15.33203125 0.62296875 15.33203125 0.95296875 15.33203125 1.29296875 C10.38203125 1.29296875 5.43203125 1.29296875 0.33203125 1.29296875 C1.65203125 2.61296875 2.97203125 3.93296875 4.33203125 5.29296875 C6.38599851 4.88366889 6.38599851 4.88366889 8.33203125 4.29296875 C10.08203125 5.60546875 10.08203125 5.60546875 11.33203125 7.29296875 C11.33203125 7.95296875 11.33203125 8.61296875 11.33203125 9.29296875 C10.67203125 9.29296875 10.01203125 9.29296875 9.33203125 9.29296875 C9.33203125 8.63296875 9.33203125 7.97296875 9.33203125 7.29296875 C6.36203125 7.29296875 3.39203125 7.29296875 0.33203125 7.29296875 C0.00203125 6.30296875 -0.32796875 5.31296875 -0.66796875 4.29296875 C-2.97796875 3.96296875 -5.28796875 3.63296875 -7.66796875 3.29296875 C-5.25260353 0.33098623 -3.77606574 -0.07215412 0 0 Z " fill="#084AA0" transform="translate(307.66796875,205.70703125)"/>
<path d="M0 0 C-0.99 0.495 -0.99 0.495 -2 1 C-1.34 3.64 -0.68 6.28 0 9 C-0.66 9 -1.32 9 -2 9 C-1.67 11.64 -1.34 14.28 -1 17 C-1.99 17.33 -2.98 17.66 -4 18 C-6 16 -6 16 -6.1953125 12.3046875 C-6.182009 10.82799892 -6.15814835 9.35137642 -6.125 7.875 C-6.11146484 6.74384766 -6.11146484 6.74384766 -6.09765625 5.58984375 C-6.0740687 3.72642746 -6.03819719 1.86317407 -6 0 C-3.50907189 -1.24546405 -2.58919267 -0.7767578 0 0 Z " fill="#B0B0B0" transform="translate(287,259)"/>
<path d="M0 0 C0.66 0 1.32 0 2 0 C2.33 2.64 2.66 5.28 3 8 C4.65 7.67 6.3 7.34 8 7 C7.67 8.32 7.34 9.64 7 11 C10.96 11.33 14.92 11.66 19 12 C19 12.33 19 12.66 19 13 C6.30454789 13.77306542 6.30454789 13.77306542 1.625 11 C-0.55062253 6.9834661 -0.38305588 4.52005942 0 0 Z " fill="#104994" transform="translate(191,212)"/>
<path d="M0 0 C0.33 0 0.66 0 1 0 C1 1.65 1 3.3 1 5 C4.3 5 7.6 5 11 5 C11 6.32 11 7.64 11 9 C6.38 9 1.76 9 -3 9 C-2.01 6.03 -1.02 3.06 0 0 Z " fill="#9D9D9D" transform="translate(268,269)"/>
<path d="M0 0 C0.66 0 1.32 0 2 0 C2 1.32 2 2.64 2 4 C4.97 4.495 4.97 4.495 8 5 C8.391875 4.34 8.78375 3.68 9.1875 3 C11 1 11 1 13.6875 0.75 C14.8321875 0.87375 14.8321875 0.87375 16 1 C16 1.66 16 2.32 16 3 C16.99 3.66 17.98 4.32 19 5 C14.25172991 7.53241071 9.25006627 7.73483221 4 7 C1.375 5.1875 1.375 5.1875 0 3 C0 2.01 0 1.02 0 0 Z " fill="#0B4A9F" transform="translate(159,229)"/>
<path d="M0 0 C2 2 2 2 2.1875 5.5 C2 9 2 9 1 11 C-1.31 11 -3.62 11 -6 11 C-5.319375 10.4225 -4.63875 9.845 -3.9375 9.25 C-1.78334694 7.22616748 -1.78334694 7.22616748 -1.9375 4.875 C-3.42940612 2.2422245 -5.18137637 1.86726881 -8 1 C-4.9553071 -0.84856355 -3.35670253 -1.34268101 0 0 Z " fill="#AEAEAE" transform="translate(315,258)"/>
<path d="M0 0 C1.40185547 0.00966797 1.40185547 0.00966797 2.83203125 0.01953125 C4.28416016 0.04466797 4.28416016 0.04466797 5.765625 0.0703125 C6.74917969 0.07933594 7.73273438 0.08835938 8.74609375 0.09765625 C11.16951907 0.12118465 13.59244722 0.15405882 16.015625 0.1953125 C16.015625 2.8353125 16.015625 5.4753125 16.015625 8.1953125 C10.735625 8.1953125 5.455625 8.1953125 0.015625 8.1953125 C0.015625 7.8653125 0.015625 7.5353125 0.015625 7.1953125 C4.965625 7.1953125 9.915625 7.1953125 15.015625 7.1953125 C15.015625 5.2153125 15.015625 3.2353125 15.015625 1.1953125 C12.05644302 1.30889726 9.09885717 1.43564336 6.140625 1.5703125 C4.87798828 1.61671875 4.87798828 1.61671875 3.58984375 1.6640625 C2.38134766 1.72207031 2.38134766 1.72207031 1.1484375 1.78125 C0.40480957 1.8126709 -0.33881836 1.8440918 -1.10498047 1.87646484 C-3.22448474 2.04950801 -3.22448474 2.04950801 -4.984375 4.1953125 C-6.304375 4.1953125 -7.624375 4.1953125 -8.984375 4.1953125 C-8.984375 3.5353125 -8.984375 2.8753125 -8.984375 2.1953125 C-5.85508322 0.36461347 -3.60794354 -0.04399931 0 0 Z " fill="#164D95" transform="translate(201.984375,205.8046875)"/>
<path d="M0 0 C0.99 0.66 1.98 1.32 3 2 C2.67 5.63 2.34 9.26 2 13 C2.66 13 3.32 13 4 13 C4 14.32 4 15.64 4 17 C3.34 17 2.68 17 2 17 C1.32815382 14.89748139 0.66269032 12.79292237 0 10.6875 C-0.556875 8.92986328 -0.556875 8.92986328 -1.125 7.13671875 C-2 4 -2 4 -2 1 C-1.34 0.67 -0.68 0.34 0 0 Z " fill="#0B4A9B" transform="translate(335,218)"/>
<path d="M0 0 C1.32 0 2.64 0 4 0 C3.34 3.3 2.68 6.6 2 10 C0.35 10 -1.3 10 -3 10 C-2.69201674 8.51988629 -2.378482 7.04092675 -2.0625 5.5625 C-1.88847656 4.73878906 -1.71445313 3.91507812 -1.53515625 3.06640625 C-1 1 -1 1 0 0 Z " fill="#A0A0A0" transform="translate(252,271)"/>
<path d="M0 0 C3.63 0 7.26 0 11 0 C10.01 3.63 9.02 7.26 8 11 C6.19669467 7.39338934 5.53400897 4.91606575 5 1 C2.13275314 1.57344937 1.1385485 1.8614515 -1 4 C-0.67 2.68 -0.34 1.36 0 0 Z " fill="#134B94" transform="translate(367,206)"/>
<path d="M0 0 C0.76531996 2.84724967 1.27825331 5.63496727 1.625 8.5625 C1.72039062 9.32691406 1.81578125 10.09132813 1.9140625 10.87890625 C2 13 2 13 1 16 C1.66 16 2.32 16 3 16 C3 14.35 3 12.7 3 11 C3.33 11 3.66 11 4 11 C4 12.98 4 14.96 4 17 C2.35 17 0.7 17 -1 17 C-1.02684679 14.35409986 -1.04676357 11.70846904 -1.0625 9.0625 C-1.07087891 8.30775391 -1.07925781 7.55300781 -1.08789062 6.77539062 C-1.09652441 4.85005687 -1.05224333 2.92464419 -1 1 C-0.67 0.67 -0.34 0.34 0 0 Z " fill="#A4A4A4" transform="translate(302,261)"/>
<path d="M0 0 C0.598125 0.226875 1.19625 0.45375 1.8125 0.6875 C0.52284824 2.06312854 -0.81439293 3.39516393 -2.1875 4.6875 C-2.8475 4.6875 -3.5075 4.6875 -4.1875 4.6875 C-4.1875 11.2875 -4.1875 17.8875 -4.1875 24.6875 C-4.5175 24.6875 -4.8475 24.6875 -5.1875 24.6875 C-5.27451039 21.08348519 -5.32789388 17.47973988 -5.375 13.875 C-5.40013672 12.85083984 -5.42527344 11.82667969 -5.45117188 10.77148438 C-5.46083984 9.78857422 -5.47050781 8.80566406 -5.48046875 7.79296875 C-5.4961792 6.88699951 -5.51188965 5.98103027 -5.52807617 5.04760742 C-5.1875 2.6875 -5.1875 2.6875 -3.8059082 0.84887695 C-2.1875 -0.3125 -2.1875 -0.3125 0 0 Z " fill="#0C499E" transform="translate(131.1875,199.3125)"/>
<path d="M0 0 C1.65 0 3.3 0 5 0 C6.33332095 2.6666419 5.67102033 4.16680303 5 7 C3.02 7.33 1.04 7.66 -1 8 C-0.67 5.36 -0.34 2.72 0 0 Z " fill="#B0B0B0" transform="translate(226,258)"/>
<path d="M0 0 C2.31 0 4.62 0 7 0 C6.75 1.875 6.75 1.875 6 4 C4.0625 5.3125 4.0625 5.3125 2 6 C1.34 5.67 0.68 5.34 0 5 C0 3.35 0 1.7 0 0 Z " fill="#0249AE" transform="translate(227,201)"/>
<path d="M0 0 C-3 2 -3 2 -5.5 2.875 C-8.32772011 4.14747405 -9.36262146 5.41466547 -11 8 C-11.66 6.35 -12.32 4.7 -13 3 C-4.738041 -1.77676538 -4.738041 -1.77676538 0 0 Z " fill="#6278A0" transform="translate(136,197)"/>
<path d="M0 0 C1.32 0 2.64 0 4 0 C4 0.66 4 1.32 4 2 C4.66 2.33 5.32 2.66 6 3 C5.67 3.99 5.34 4.98 5 6 C2.83125748 5.49396008 1.00032373 5.00016187 -1 4 C-0.67 2.68 -0.34 1.36 0 0 Z " fill="#024AAD" transform="translate(368,207)"/>
<path d="M0 0 C0.66 0.33 1.32 0.66 2 1 C2 2.98 2 4.96 2 7 C0.35 7 -1.3 7 -3 7 C-3 5.35 -3 3.7 -3 2 C-2.01 2.33 -1.02 2.66 0 3 C0 2.01 0 1.02 0 0 Z " fill="#A3A3A3" transform="translate(245,271)"/>
<path d="M0 0 C1.17571451 3.67410785 1.07366746 7.16929183 1 11 C-0.98 11.99 -0.98 11.99 -3 13 C-2.69240822 11.02006459 -2.3787932 9.04106401 -2.0625 7.0625 C-1.88847656 5.96035156 -1.71445312 4.85820312 -1.53515625 3.72265625 C-1 1 -1 1 0 0 Z " fill="#B4B4B4" transform="translate(266,265)"/>
<path d="M0 0 C1.18414294 3.55242882 0.69535532 4.69830562 -0.4375 8.1875 C-0.72496094 9.08855469 -1.01242187 9.98960937 -1.30859375 10.91796875 C-1.53675781 11.60503906 -1.76492188 12.29210937 -2 13 C-2.66 11.68 -3.32 10.36 -4 9 C-3.34 9 -2.68 9 -2 9 C-2.33 6.36 -2.66 3.72 -3 1 C-2.01 0.67 -1.02 0.34 0 0 Z " fill="#194D99" transform="translate(351,222)"/>
<path d="M0 0 C0.33 0 0.66 0 1 0 C1.04241723 2.33294775 1.04092937 4.66702567 1 7 C0 8 0 8 -2.28515625 8.09765625 C-3.65994141 8.08025391 -3.65994141 8.08025391 -5.0625 8.0625 C-5.98160156 8.05347656 -6.90070313 8.04445312 -7.84765625 8.03515625 C-8.55792969 8.02355469 -9.26820313 8.01195312 -10 8 C-10 7.67 -10 7.34 -10 7 C-7.03 6.34 -4.06 5.68 -1 5 C-0.67 3.35 -0.34 1.7 0 0 Z " fill="#164896" transform="translate(295,228)"/>
<path d="M0 0 C2.3828125 -0.29296875 2.3828125 -0.29296875 5.125 -0.1875 C6.03507812 -0.16042969 6.94515625 -0.13335937 7.8828125 -0.10546875 C8.58148438 -0.07066406 9.28015625 -0.03585937 10 0 C10.33 0.66 10.66 1.32 11 2 C4.565 2.495 4.565 2.495 -2 3 C-1.34 2.01 -0.68 1.02 0 0 Z " fill="#A6A6A6" transform="translate(267,275)"/>
<path d="M0 0 C1.32 0 2.64 0 4 0 C3.67 1.65 3.34 3.3 3 5 C1.35 4.67 -0.3 4.34 -2 4 C-1.34 2.68 -0.68 1.36 0 0 Z " fill="#A2A2A2" transform="translate(257,255)"/>
<path d="M0 0 C1.32 0 2.64 0 4 0 C4.33 1.65 4.66 3.3 5 5 C4.01 5.33 3.02 5.66 2 6 C1.34 5.34 0.68 4.68 0 4 C0 2.68 0 1.36 0 0 Z " fill="#BABABA" transform="translate(281,271)"/>
</svg>
