<?xml version="1.0" encoding="UTF-8"?>
<svg version="1.1" xmlns="http://www.w3.org/2000/svg" width="1280" height="820">
<path d="M0 0 C422.4 0 844.8 0 1280 0 C1280 270.6 1280 541.2 1280 820 C857.6 820 435.2 820 0 820 C0 549.4 0 278.8 0 0 Z " fill="#FDFDFD" transform="translate(0,0)"/>
<path d="M0 0 C15.18 0 30.36 0 46 0 C44.76285987 5.56713059 43.51601254 11.05783204 42.0625 16.5625 C41.74410156 17.78066406 41.42570312 18.99882812 41.09765625 20.25390625 C40 24 40 24 38.67822266 27.44946289 C36.55061259 33.07073586 34.82043676 38.81285142 33.05078125 44.5546875 C32.67447067 45.76907501 32.2981601 46.98346252 31.91044617 48.23464966 C30.91065197 51.46271264 29.91292686 54.69140019 28.91619873 57.92041016 C27.93097402 61.11026316 26.94285401 64.29921731 25.95507812 67.48828125 C21.55890093 81.6880766 17.18165544 95.89369498 12.81323242 110.10205078 C12.52048431 111.05146545 12.22773621 112.00088013 11.92611694 112.97906494 C11.25046099 115.18301204 10.5820345 117.38917922 9.9178772 119.59661865 C9.55995087 120.7801593 9.20202454 121.96369995 8.83325195 123.18310547 C8.5067012 124.27041962 8.18015045 125.35773376 7.84370422 126.47799683 C7 129 7 129 6 130 C4.58774954 130.0928726 3.17091066 130.11746772 1.75561523 130.11352539 C0.85475693 130.11344986 -0.04610138 130.11337433 -0.97425842 130.11329651 C-1.95341721 130.10813522 -2.93257599 130.10297394 -3.94140625 130.09765625 C-4.93881332 130.0962413 -5.9362204 130.09482635 -6.96385193 130.09336853 C-10.16343124 130.08775114 -13.36294169 130.07519571 -16.5625 130.0625 C-18.72591045 130.05748724 -20.88932199 130.05292395 -23.05273438 130.04882812 C-28.36851325 130.03777607 -33.68425171 130.02102104 -39 130 C-47.17569363 104.71842633 -55.21293909 79.40461697 -63 54 C-64.60850561 57.01076507 -65.70692804 59.98811204 -66.70825195 63.24902344 C-67.03231522 64.2982196 -67.35637848 65.34741577 -67.69026184 66.42840576 C-68.03610825 67.56062561 -68.38195465 68.69284546 -68.73828125 69.859375 C-69.10092575 71.0365509 -69.46357025 72.21372681 -69.83720398 73.42657471 C-70.80277525 76.56294232 -71.76536132 79.70020522 -72.72644043 82.83795166 C-73.68708391 85.97209853 -74.65130285 89.10514436 -75.61523438 92.23828125 C-75.98897186 93.45334351 -76.36270935 94.66840576 -76.74777222 95.92028809 C-77.1158902 97.11706177 -77.48400818 98.31383545 -77.86328125 99.546875 C-78.58548435 101.89517149 -79.30765346 104.24347843 -80.02978516 106.59179688 C-80.53424164 108.23184692 -80.53424164 108.23184692 -81.04888916 109.9050293 C-81.65006158 111.86127975 -82.25039179 113.81778939 -82.84954834 115.7746582 C-83.55707924 118.08501336 -84.26817282 120.39423552 -84.98046875 122.703125 C-85.35453857 123.92161133 -85.7286084 125.14009766 -86.11401367 126.39550781 C-87 129 -87 129 -88 130 C-89.41225046 130.0928726 -90.82908934 130.11746772 -92.24438477 130.11352539 C-93.59567223 130.11341209 -93.59567223 130.11341209 -94.97425842 130.11329651 C-95.95341721 130.10813522 -96.93257599 130.10297394 -97.94140625 130.09765625 C-98.93881332 130.0962413 -99.9362204 130.09482635 -100.96385193 130.09336853 C-104.16343124 130.08775114 -107.36294169 130.07519571 -110.5625 130.0625 C-112.72591045 130.05748724 -114.88932199 130.05292395 -117.05273438 130.04882812 C-122.36851325 130.03777607 -127.68425171 130.02102104 -133 130 C-133.21440231 129.30890137 -133.42880463 128.61780273 -133.64970398 127.90576172 C-135.69352722 121.31786098 -137.73751103 114.73001008 -139.78166485 108.14221191 C-140.83198612 104.75726927 -141.8822503 101.37230893 -142.93237305 97.98730469 C-145.61990083 89.32434724 -148.30873429 80.66179712 -151 72 C-151.27162964 71.12562286 -151.54325928 70.25124573 -151.82312012 69.35037231 C-154.26744072 61.4870488 -156.7487702 53.63683516 -159.28540039 45.80273438 C-162.60379729 35.55384735 -165.88495276 25.29349786 -169.0625 15 C-169.36140137 14.04536865 -169.66030273 13.0907373 -169.96826172 12.10717773 C-170.23783691 11.22618408 -170.50741211 10.34519043 -170.78515625 9.4375 C-171.13912476 8.29087891 -171.13912476 8.29087891 -171.50024414 7.12109375 C-172 5 -172 5 -172 1 C-156.82 1 -141.64 1 -126 1 C-119 26 -112 51 -105 76 C-100.53379171 62.2922984 -96.59503773 48.48949513 -92.875 34.5625 C-92.10288455 31.67447722 -91.32941338 28.78685411 -90.55154419 25.90037537 C-90.0739397 24.12805932 -89.59941471 22.3549087 -89.12887573 20.58070374 C-87.33722151 13.93101874 -85.18962407 7.56887221 -83 1 C-70.13 1 -57.26 1 -44 1 C-39.50229148 13.36869844 -39.50229148 13.36869844 -38.21875 18.26953125 C-37.93644531 19.33502197 -37.65414063 20.4005127 -37.36328125 21.49829102 C-37.07839844 22.59197998 -36.79351563 23.68566895 -36.5 24.8125 C-35.88616509 27.13040666 -35.27158991 29.44811742 -34.65625 31.765625 C-34.223125 33.40241211 -34.223125 33.40241211 -33.78125 35.07226562 C-32.61454968 39.44447507 -31.36857696 43.79026285 -30.109375 48.13671875 C-28.45254641 53.87226948 -26.85780733 59.62556748 -25.25 65.375 C-24.93160156 66.51332275 -24.61320312 67.65164551 -24.28515625 68.82446289 C-23.52313625 71.54955787 -22.7614055 74.27473328 -22 77 C-21.71334473 75.97398682 -21.71334473 75.97398682 -21.42089844 74.92724609 C-12.98111321 44.72784613 -12.98111321 44.72784613 -9.30859375 32.24609375 C-8.84743164 30.67516968 -8.84743164 30.67516968 -8.37695312 29.07250977 C-7.76977999 27.0059436 -7.16054747 24.93998088 -6.54882812 22.87475586 C-4.74982678 16.7513492 -3.12138629 10.60937515 -1.63305664 4.40283203 C-1 2 -1 2 0 0 Z " fill="#024BAF" transform="translate(1176,357)"/>
<path d="M0 0 C1.50395854 -0.00202657 3.00791612 -0.00494283 4.51187134 -0.00869751 C7.65026284 -0.01309622 10.78839652 -0.00677156 13.92675781 0.00732422 C17.91626804 0.02438513 21.90517119 0.01457921 25.89465904 -0.00339317 C28.9971052 -0.01432334 32.09941157 -0.01074231 35.20186234 -0.0030098 C36.6712209 -0.00103163 38.14059285 -0.00338157 39.60993576 -0.01044846 C52.98079557 -0.0606494 66.13990912 1.13822346 76.54296875 10.3359375 C84.4717688 18.51296886 87.4442426 28.5826559 87.51269531 39.80249023 C87.52230286 41.07829453 87.5319104 42.35409882 87.54180908 43.66856384 C87.54666096 45.05638447 87.55093882 46.4442072 87.5546875 47.83203125 C87.55892857 48.89116572 87.55892857 48.89116572 87.56325531 49.97169685 C87.57822456 53.71607966 87.58746548 57.46042423 87.59179688 61.20483398 C87.59724612 65.03393573 87.62120453 68.86267551 87.64976883 72.6916647 C87.66859757 75.66806479 87.67361164 78.6443817 87.67513275 81.62083626 C87.67811975 83.0299481 87.68601063 84.43905993 87.69931793 85.84811211 C87.80683701 98.11913657 87.49539453 111.51903471 79.3515625 121.3984375 C78.61292969 122.31882812 78.61292969 122.31882812 77.859375 123.2578125 C71.91423138 129.9140977 64.08451881 133.19642867 55.3515625 134.3984375 C53.00095927 134.4920812 50.64811062 134.53635614 48.2956543 134.54370117 C47.61673126 134.54705978 46.93780823 134.5504184 46.23831177 134.55387878 C44.00911596 134.56332406 41.77999579 134.56532871 39.55078125 134.56640625 C37.98907949 134.56962352 36.42737802 134.57298794 34.86567688 134.57649231 C31.59672345 134.58246769 28.32779639 134.58433387 25.05883789 134.58374023 C20.88969595 134.58363876 16.72072486 134.59728332 12.55162334 134.61451244 C9.32665749 134.62568381 6.10173225 134.62765786 2.87674904 134.62713051 C1.3407107 134.62830318 -0.19532894 134.63268453 -1.73134804 134.64046288 C-15.12753734 134.70194651 -26.3334579 133.9358713 -36.6953125 124.54296875 C-44.20395676 116.50486881 -46.7344223 107.87287824 -46.84130859 97.04467773 C-46.84948608 96.32195175 -46.85766357 95.59922577 -46.86608887 94.854599 C-46.89081725 92.47208453 -46.90743067 90.08962935 -46.921875 87.70703125 C-46.92719868 86.88811968 -46.93252235 86.06920811 -46.93800735 85.22548103 C-46.96469043 80.88690251 -46.98407671 76.5483522 -46.99853516 72.2097168 C-47.01184094 68.63946728 -47.03963781 65.06979382 -47.08056641 61.49975586 C-47.13019907 57.16912283 -47.15469347 52.83900955 -47.16176224 48.50810432 C-47.16842534 46.8684324 -47.18351647 45.22876981 -47.20765305 43.58926201 C-47.38429981 30.85948665 -45.79771686 19.66385899 -36.58984375 10.078125 C-25.99113474 0.9082158 -13.42211413 -0.06434811 0 0 Z " fill="#024BAE" transform="translate(908.6484375,354.6015625)"/>
<path d="M0 0 C2.17860113 0.00560551 4.35720609 0.00987109 6.53581238 0.01286316 C12.22887891 0.02423671 17.92171043 0.05363835 23.61468506 0.0869751 C29.44035668 0.11783864 35.26606681 0.13140309 41.09179688 0.14648438 C52.49230658 0.17851614 63.89258122 0.2312218 75.29296875 0.29296875 C75.29296875 11.51296875 75.29296875 22.73296875 75.29296875 34.29296875 C72.81007324 34.30231445 70.32717773 34.31166016 67.76904297 34.32128906 C59.55863587 34.35508081 51.34847955 34.410642 43.13827324 34.47687149 C38.16117931 34.51635333 33.18426249 34.54853838 28.20703125 34.56396484 C23.40223251 34.57912672 18.59792067 34.61356404 13.79333878 34.66127777 C11.96180583 34.67609639 10.13020338 34.68401004 8.29861069 34.6848526 C5.72963516 34.68722259 3.16200486 34.71430366 0.59326172 34.74707031 C-0.16127792 34.74203995 -0.91581757 34.73700958 -1.69322205 34.73182678 C-6.82496957 34.8328666 -9.76545577 36.03626861 -13.70703125 39.29296875 C-16.2789619 43.15086472 -16.00248654 46.34167003 -15.99755859 50.81591797 C-16.00427582 51.68614594 -16.01099304 52.5563739 -16.01791382 53.45297241 C-16.03693776 56.33459151 -16.04082027 59.21597823 -16.04296875 62.09765625 C-16.04939377 64.09921363 -16.05612191 66.10077006 -16.06314087 68.10232544 C-16.07512474 72.30049823 -16.07882057 76.49858866 -16.07763672 80.69677734 C-16.0774335 86.07610927 -16.10473357 91.45491305 -16.13918114 96.8341198 C-16.16142009 100.96911036 -16.16547518 105.10397324 -16.16441727 109.23901749 C-16.16677784 111.22215724 -16.17562694 113.20530026 -16.191082 115.1883812 C-16.21068052 117.96304024 -16.2049281 120.73655292 -16.19287109 123.51123047 C-16.20972961 124.7395459 -16.20972961 124.7395459 -16.22692871 125.99267578 C-16.18314673 129.95812526 -15.98944093 131.85033619 -13.80166626 135.27932739 C-10.62404501 138.33407896 -8.8593175 138.42066409 -4.5546875 138.42578125 C-2.94352051 138.42880249 -2.94352051 138.42880249 -1.29980469 138.43188477 C-0.13481445 138.42729248 1.03017578 138.4227002 2.23046875 138.41796875 C3.42510742 138.41531006 4.61974609 138.41265137 5.85058594 138.40991211 C14.58663641 138.3648044 23.31253274 138.16729154 32.04296875 137.85546875 C33.16566162 137.81631348 34.28835449 137.7771582 35.44506836 137.73681641 C39.60574442 137.57149153 43.66205328 137.38905442 47.78125 136.76171875 C53.09266067 136.05274291 58.37951474 136.18950555 63.73046875 136.23046875 C67.54609375 136.25109375 71.36171875 136.27171875 75.29296875 136.29296875 C75.29296875 147.18296875 75.29296875 158.07296875 75.29296875 169.29296875 C61.16796875 170.23046875 61.16796875 170.23046875 56.74560547 170.51928711 C55.58303223 170.59800049 54.42045898 170.67671387 53.22265625 170.7578125 C52.03913574 170.83636475 50.85561523 170.91491699 49.63623047 170.99584961 C46.47807236 171.2765184 43.41791838 171.7690314 40.29296875 172.29296875 C30.99062879 173.01848743 21.61989335 173.08737525 12.29296875 173.29296875 C11.49600586 173.31077393 10.69904297 173.3285791 9.87792969 173.34692383 C4.72691765 173.45695813 -0.42347624 173.53411747 -5.57546997 173.57907104 C-7.26848788 173.5964672 -8.96145163 173.62065706 -10.65426636 173.65213013 C-25.75732105 173.91866674 -38.61750082 172.06647347 -50.4140625 161.80859375 C-58.92816778 153.1004962 -60.85822656 140.46238705 -60.85229492 128.82788086 C-60.85565353 127.88082275 -60.85901215 126.93376465 -60.86247253 125.95800781 C-60.87196579 122.82876266 -60.87392519 119.69957116 -60.875 116.5703125 C-60.87821497 114.38660154 -60.88157923 112.2028908 -60.88508606 110.0191803 C-60.89107417 105.43864442 -60.89292641 100.8581274 -60.89233398 96.27758789 C-60.89223267 90.43283349 -60.90585441 84.58820141 -60.92310619 78.74347591 C-60.93427628 74.22991898 -60.93625162 69.71639107 -60.93572426 65.20282173 C-60.936898 63.04964338 -60.94128548 60.89646413 -60.94905663 58.74329948 C-61.06255718 24.03100771 -61.06255718 24.03100771 -49.45703125 11.35546875 C-35.6863433 -1.00207 -17.27635146 -0.13145242 0 0 Z " fill="#024CAF" transform="translate(130.70703125,315.70703125)"/>
<path d="M0 0 C44.55 0 89.1 0 135 0 C135 11.22 135 22.44 135 34 C104.97 34 74.94 34 44 34 C44 47.53 44 61.06 44 75 C67.76 75 91.52 75 116 75 C116 86.22 116 97.44 116 109 C92.24 109 68.48 109 44 109 C44 129.46 44 149.92 44 171 C29.48 171 14.96 171 0 171 C0 114.57 0 58.14 0 0 Z " fill="#024CAF" transform="translate(631,316)"/>
<path d="M0 0 C0.90795822 -0.00029205 1.81591644 -0.00058411 2.75138855 -0.00088501 C5.73816646 0.00050299 8.7246917 0.0160393 11.71142578 0.03173828 C13.78793196 0.03547029 15.86443991 0.03831638 17.94094849 0.04031372 C23.39567968 0.04793535 28.85030371 0.06757127 34.30499268 0.08972168 C39.87535146 0.11021175 45.44572764 0.1193222 51.01611328 0.12939453 C61.93804285 0.15081852 72.85986487 0.18598873 83.78173828 0.22705078 C83.78173828 10.45705078 83.78173828 20.68705078 83.78173828 31.22705078 C76.18078125 31.24832031 76.18078125 31.24832031 68.42626953 31.27001953 C65.21330934 31.29008003 62.00049172 31.31160033 58.78759766 31.33837891 C53.68947787 31.38073129 48.59171949 31.41771578 43.4934082 31.42260742 C39.38226719 31.42689044 35.27193541 31.45535223 31.16104698 31.50048256 C29.59384566 31.51345767 28.02654749 31.51776515 26.45929909 31.51320457 C24.2609619 31.50829808 22.06498951 31.53438612 19.86694336 31.56762695 C18.61673904 31.57428879 17.36653473 31.58095062 16.07844543 31.58781433 C11.90776755 32.39651501 10.40293079 33.95527002 7.78173828 37.22705078 C7.30699352 40.25559494 8.02973401 42.16890007 8.78173828 45.22705078 C11.33315004 47.77846254 12.26720696 47.48192533 15.80712891 47.49829102 C17.38016785 47.51357094 17.38016785 47.51357094 18.98498535 47.52915955 C20.12447632 47.53129959 21.26396729 47.53343964 22.43798828 47.53564453 C24.84684467 47.56082389 27.25569878 47.5862216 29.66455078 47.61181641 C33.46499946 47.64045931 37.26540817 47.66446966 41.06591797 47.68334961 C44.73182924 47.70513062 48.3972492 47.7446029 52.06298828 47.78564453 C53.74793396 47.78581825 53.74793396 47.78581825 55.46691895 47.78599548 C66.44696532 47.92237599 75.99160608 50.42797202 84.78173828 57.22705078 C94.30293924 67.05250065 95.9554861 77.26213997 96.03173828 90.53955078 C96.06267578 91.86889648 96.06267578 91.86889648 96.09423828 93.22509766 C96.15590408 103.79307464 93.29761285 113.32494429 85.99658203 121.13720703 C77.67712317 128.92739614 68.9480812 131.37681914 57.73876953 131.39501953 C56.95028625 131.39916367 56.16180298 131.4033078 55.34942627 131.40757751 C52.76431684 131.41730107 50.17936333 131.41722133 47.59423828 131.41455078 C46.26209793 131.41464142 46.26209793 131.41464142 44.90304565 131.41473389 C27.13659577 131.39761075 9.49411782 130.55676211 -8.21826172 129.22705078 C-9.5013623 129.13101563 -10.78446289 129.03498047 -12.10644531 128.93603516 C-19.14730292 128.4012174 -26.18171566 127.82049443 -33.21826172 127.22705078 C-33.21826172 116.66705078 -33.21826172 106.10705078 -33.21826172 95.22705078 C-30.20701172 95.37142578 -27.19576172 95.51580078 -24.09326172 95.66455078 C-22.12972485 95.75580001 -20.16618387 95.84696061 -18.20263672 95.93798828 C-14.56559717 96.10901989 -10.93091201 96.29839722 -7.29638672 96.51611328 C4.38619497 97.1850212 16.0802977 97.41472082 27.78009033 97.51315308 C29.568378 97.53070759 31.35661245 97.55502694 33.14471436 97.58621216 C35.67373156 97.62808486 38.20163643 97.64374912 40.73095703 97.65283203 C41.49873978 97.6702948 42.26652252 97.68775757 43.05757141 97.70574951 C47.1645449 97.75653839 47.1645449 97.75653839 50.46199036 95.58830261 C52.11491834 92.63093542 52.28605365 90.34764795 52.46923828 86.97705078 C52.53498047 85.89939453 52.60072266 84.82173828 52.66845703 83.71142578 C52.70583984 82.89158203 52.74322266 82.07173828 52.78173828 81.22705078 C51.6875206 81.23704353 51.6875206 81.23704353 50.57119751 81.24723816 C43.65777541 81.30763691 36.74439335 81.35317031 29.83077431 81.3824873 C26.27736677 81.39806681 22.72417934 81.41916149 19.17089844 81.45336914 C15.07501246 81.49254854 10.97935354 81.50682363 6.88330078 81.52001953 C5.62248688 81.53550339 4.36167297 81.55098724 3.06265259 81.56694031 C-9.34491928 81.56928224 -17.84612816 79.18962136 -26.90576172 70.63330078 C-36.19523676 60.78645724 -36.67684026 48.36396837 -36.49169922 35.59033203 C-36.11891343 25.04344709 -33.0735866 15.62029772 -25.21826172 8.22705078 C-17.15451801 2.29745161 -9.90973866 -0.08402422 0 0 Z " fill="#024BAE" transform="translate(408.21826171875,357.77294921875)"/>
<path d="M0 0 C13.86 0 27.72 0 42 0 C42.01417969 6.51105469 42.02835937 13.02210938 42.04296875 19.73046875 C42.06302529 23.85487207 42.08454215 27.97916395 42.11132812 32.10351562 C42.15370673 38.65019085 42.19067004 45.19658365 42.19555664 51.7434082 C42.19983449 57.02156555 42.22825499 62.29909094 42.27343178 67.57705116 C42.28642314 69.59083691 42.29070868 71.60469823 42.28615379 73.61852074 C42.2812595 76.43932742 42.30728793 79.25827877 42.34057617 82.07885742 C42.32763771 83.32826866 42.32763771 83.32826866 42.31443787 84.60292053 C42.39853138 88.85263469 42.64330786 90.53453607 45.3129425 94.01826477 C51.21718618 98.37271112 59.07276568 96.3872367 66 96 C73.26 94.68 80.52 93.36 88 92 C88 61.64 88 31.28 88 0 C102.19 0 116.38 0 131 0 C131 42.9 131 85.8 131 130 C118.46 130 105.92 130 93 130 C92.01 124.06 92.01 124.06 91 118 C89.45892578 118.79664063 89.45892578 118.79664063 87.88671875 119.609375 C72.29215104 127.59352186 58.70597358 132.36385143 41 132.3125 C39.33324219 132.33666992 39.33324219 132.33666992 37.6328125 132.36132812 C25.53895153 132.36844216 17.1184314 129.72296299 8.3125 121.40625 C1.22023735 113.88845159 -0.60540554 105.18423094 -0.45410156 95.13427734 C-0.45468567 94.0989386 -0.45526978 93.06359985 -0.45587158 91.99688721 C-0.45310761 88.60955064 -0.42209507 85.22311839 -0.390625 81.8359375 C-0.38315663 79.47368856 -0.37746651 77.11143339 -0.37347412 74.74917603 C-0.35826492 68.55786779 -0.31902351 62.36694005 -0.2746582 56.17578125 C-0.23360377 49.84770859 -0.21544141 43.51957394 -0.1953125 37.19140625 C-0.15252478 24.7940775 -0.08221328 12.39713005 0 0 Z " fill="#034CAF" transform="translate(224,357)"/>
<path d="M0 0 C12.54 0 25.08 0 38 0 C38 9.57 38 19.14 38 29 C47.9 29 57.8 29 68 29 C68 39.89 68 50.78 68 62 C58.1 62 48.2 62 38 62 C38.0466162 69.74761237 38.09691921 77.49357044 38.18379211 85.24057007 C38.2231582 88.84822532 38.25554385 92.45563288 38.27099609 96.06347656 C38.28615218 99.5391659 38.3205771 103.01418133 38.36830902 106.48957062 C38.39034372 108.4592312 38.39247465 110.4290818 38.39434814 112.39886475 C38.41406677 113.59980774 38.4337854 114.80075073 38.45410156 116.03808594 C38.46298401 117.09509705 38.47186646 118.15210815 38.48101807 119.2411499 C39.13250241 122.70436803 40.2160422 123.89275667 43 126 C45.80696003 126.41786702 48.23851941 126.60474313 51.046875 126.609375 C51.81807678 126.62591125 52.58927856 126.64244751 53.3838501 126.65948486 C55.83931454 126.70794593 58.29415984 126.72933037 60.75 126.75 C62.41799987 126.77816146 64.08597092 126.80808914 65.75390625 126.83984375 C69.83622167 126.91702185 73.91658551 126.95755286 78 127 C78 137.56 78 148.12 78 159 C64.31411049 160.21652351 50.74162426 161.21679086 37 161.3125 C35.27668457 161.33860352 35.27668457 161.33860352 33.51855469 161.36523438 C21.52775454 161.35820371 12.9815929 158.73917648 4.3125 150.37109375 C-5.70039246 139.58220213 -5.15071459 126.90843043 -5.09765625 113 C-5.0957881 111.55411834 -5.09436607 110.10823604 -5.09336853 108.66235352 C-5.08957463 104.88126843 -5.07977151 101.10022256 -5.06866455 97.31915283 C-5.05838274 93.4510552 -5.05385649 89.58295115 -5.04882812 85.71484375 C-5.03814604 78.14320933 -5.02057504 70.57161519 -5 63 C-9.62 63 -14.24 63 -19 63 C-19 52.11 -19 41.22 -19 30 C-14.38 29.67 -9.76 29.34 -5 29 C-4.72285156 27.15792969 -4.44570313 25.31585938 -4.16015625 23.41796875 C-3.7944095 21.00779145 -3.4285165 18.59763635 -3.0625 16.1875 C-2.88009766 14.97255859 -2.69769531 13.75761719 -2.50976562 12.50585938 C-2.33251953 11.34248047 -2.15527344 10.17910156 -1.97265625 8.98046875 C-1.81031494 7.90692139 -1.64797363 6.83337402 -1.48071289 5.72729492 C-1 3 -1 3 0 0 Z " fill="#034CAF" transform="translate(533,328)"/>
<path d="M0 0 C13.86 0 27.72 0 42 0 C42.00410889 4.00278076 42.00821777 8.00556152 42.01245117 12.12963867 C42.02963326 25.34122863 42.07385667 38.55261127 42.13209057 51.76407909 C42.16674224 59.77577445 42.1920963 67.78729772 42.19555664 75.79907227 C42.19859631 82.78224795 42.21908685 89.76511718 42.26052457 96.74817449 C42.28185645 100.44567152 42.29445452 104.14273286 42.28615379 107.84029198 C42.27721348 111.96842061 42.3072339 116.09538501 42.34057617 120.22338867 C42.32763771 122.06189644 42.32763771 122.06189644 42.31443787 123.93754578 C42.19204049 130.66777073 42.19204049 130.66777073 45.40820312 136.25732422 C47.95570325 137.97021569 49.18921132 138.63792087 52.20703125 138.70703125 C52.88483643 138.73514893 53.5626416 138.7632666 54.26098633 138.79223633 C55.10298584 138.79892334 55.94498535 138.80561035 56.8125 138.8125 C59.514375 138.874375 62.21625 138.93625 65 139 C65 149.56 65 160.12 65 171 C26.10096472 175.64466093 26.10096472 175.64466093 12.07421875 165.73046875 C4.97129925 159.80468092 1.48229545 152.02656578 0 143 C-0.08676397 140.99143825 -0.1220196 138.98032848 -0.12025452 136.96989441 C-0.12162918 135.75979706 -0.12300385 134.54969971 -0.12442017 133.30293274 C-0.12082489 131.98375351 -0.11722961 130.66457428 -0.11352539 129.30541992 C-0.11324318 127.89583335 -0.11340192 126.48624664 -0.1139679 125.07666016 C-0.11425454 121.25681721 -0.10837923 117.43700573 -0.10139394 113.6171701 C-0.09513834 109.62265543 -0.09455485 105.62814002 -0.09336853 101.63362122 C-0.09026173 94.07247176 -0.0820571 86.51133679 -0.07201904 78.9501937 C-0.06083771 70.34081187 -0.05534236 61.73142935 -0.05032361 53.12204206 C-0.03987395 35.41468483 -0.02153655 17.70734745 0 0 Z " fill="#004BAF" transform="translate(781,316)"/>
<path d="M0 0 C8.58 0 17.16 0 26 0 C27.27875 3.691875 28.5575 7.38375 29.875 11.1875 C30.30965576 12.44183838 30.74431152 13.69617676 31.19213867 14.98852539 C33.34196454 21.19617578 35.48442349 27.40622029 37.61328125 33.62109375 C43.59213245 51.05748943 43.59213245 51.05748943 50.0390625 68.32421875 C51 71 51 71 51 73 C51.66 73 52.32 73 53 73 C53.21716675 72.23369263 53.21716675 72.23369263 53.4387207 71.4519043 C56.055031 62.47236376 59.14562373 53.65426061 62.1875 44.8125 C62.77060319 43.1136395 63.35361042 41.41474607 63.93652344 39.71582031 C65.62096117 34.8093781 67.30969962 29.90442516 69 25 C69.23406555 24.32056335 69.4681311 23.64112671 69.70928955 22.94110107 C71.05254554 19.04279912 72.39954135 15.14581234 73.75 11.25 C74.07250732 10.31776611 74.39501465 9.38553223 74.72729492 8.42504883 C75.01838135 7.58868896 75.30946777 6.7523291 75.609375 5.890625 C75.9801416 4.82376465 75.9801416 4.82376465 76.35839844 3.73535156 C77 2 77 2 78 0 C86.25 0 94.5 0 103 0 C103 33 103 66 103 100 C97.06 100 91.12 100 85 100 C84.67 78.22 84.34 56.44 84 34 C80.77353185 40.31529025 80.77353185 40.31529025 78.24829102 46.7409668 C77.96442032 47.57931564 77.68054962 48.41766449 77.38807678 49.28141785 C77.09630051 50.16179214 76.80452423 51.04216644 76.50390625 51.94921875 C76.18848373 52.88369339 75.87306122 53.81816803 75.54808044 54.78096008 C74.54739086 57.74799179 73.55442478 60.71752781 72.5625 63.6875 C61.09193538 97.90806462 61.09193538 97.90806462 59 100 C56.30345146 100.07319621 53.63308542 100.09242537 50.9375 100.0625 C50.17888672 100.05798828 49.42027344 100.05347656 48.63867188 100.04882812 C46.75908129 100.0370068 44.87953101 100.01907078 43 100 C38.46740772 87.90244738 34.11365711 75.74383837 29.8125 63.5625 C29.55496948 62.83419983 29.29743896 62.10589966 29.03210449 61.35552979 C28.27661615 59.2179436 27.5227529 57.0797921 26.76953125 54.94140625 C26.52943329 54.26150635 26.28933533 53.58160645 26.04196167 52.88110352 C24.20993787 47.66738648 22.50368665 42.41866847 20.8659668 37.14038086 C20.20442034 34.82662313 20.20442034 34.82662313 18 34 C18 55.78 18 77.56 18 100 C12.06 100 6.12 100 0 100 C0 67 0 34 0 0 Z " fill="#B5B5B5" transform="translate(519,540)"/>
<path d="M0 0 C55.96717724 0 55.96717724 0 65 8 C71.57122686 16.27661669 71.86178226 24.8289652 71 35 C68.94906039 41.43074991 63.71068194 45.69563363 58 49 C55 49.875 55 49.875 53 50 C53.721875 50.70125 54.44375 51.4025 55.1875 52.125 C60.24413688 57.03716154 63.50145233 61.3842638 65.875 68.0625 C66.11621582 68.7342627 66.35743164 69.40602539 66.60595703 70.09814453 C67.42165826 72.392984 68.21296442 74.69517545 69 77 C69.31324219 77.91088379 69.62648438 78.82176758 69.94921875 79.76025391 C71.54727327 84.42414129 73.12815943 89.09385693 74.6796875 93.7734375 C74.93476074 94.54091309 75.18983398 95.30838867 75.45263672 96.09912109 C76 98 76 98 76 100 C69.4 100 62.8 100 56 100 C55.26394531 97.77121094 54.52789062 95.54242187 53.76953125 93.24609375 C53.04085659 91.06730634 52.30810166 88.8899313 51.57495117 86.71264648 C51.07132807 85.20984032 50.57189486 83.70562276 50.0769043 82.19995117 C49.36068819 80.02389479 48.62907362 77.85352268 47.89453125 75.68359375 C47.6797261 75.01976181 47.46492096 74.35592987 47.24360657 73.67198181 C45.65228134 69.0385469 43.65303132 64.37177077 40 61 C32.67478504 58.27779291 32.67478504 58.27779291 19 58 C19 71.86 19 85.72 19 100 C12.73 100 6.46 100 0 100 C0 67 0 34 0 0 Z " fill="#B5B5B5" transform="translate(425,540)"/>
<path d="M0 0 C53.83783784 0 53.83783784 0 63.5625 6.3125 C70.04465355 13.45948981 71.38959101 20.47479185 71.2734375 29.9296875 C70.70586973 36.30266272 68.35524238 41.07463269 63.6875 45.4375 C60.29393223 48.08918391 57.19388785 49.14410452 53 50 C53.70125 50.639375 54.4025 51.27875 55.125 51.9375 C64.2887652 61.17914422 67.90933652 73.25960233 71.75 85.375 C72.06582031 86.34566406 72.38164063 87.31632813 72.70703125 88.31640625 C73.15369141 89.71826172 73.15369141 89.71826172 73.609375 91.1484375 C73.87717773 91.98552246 74.14498047 92.82260742 74.42089844 93.68505859 C75 96 75 96 75 100 C68.73 100 62.46 100 56 100 C55.55269531 98.70707031 55.10539063 97.41414062 54.64453125 96.08203125 C49.36747672 77.43734874 49.36747672 77.43734874 40 61 C32.67478504 58.27779291 32.67478504 58.27779291 19 58 C19 71.86 19 85.72 19 100 C12.73 100 6.46 100 0 100 C0 67 0 34 0 0 Z " fill="#B4B4B4" transform="translate(795,540)"/>
<path d="M0 0 C53.97446809 0 53.97446809 0 64 8 C71.21073016 16.17711668 72.41132273 24.75708366 72.25390625 35.3984375 C71.72831989 42.8536779 68.8325534 49.43746741 63.28125 54.59765625 C53.89777206 62.17518705 44.69002128 62.41164091 32.9375 62.1875 C26.0384375 62.0946875 26.0384375 62.0946875 19 62 C19 74.54 19 87.08 19 100 C12.73 100 6.46 100 0 100 C0 67 0 34 0 0 Z " fill="#B5B5B5" transform="translate(889,540)"/>
<path d="M0 0 C21.78 0 43.56 0 66 0 C66 5.28 66 10.56 66 16 C50.49 16 34.98 16 19 16 C19 23.92 19 31.84 19 40 C32.53 40 46.06 40 60 40 C60 45.28 60 50.56 60 56 C46.47 56 32.94 56 19 56 C19 65.24 19 74.48 19 84 C34.84 84 50.68 84 67 84 C67 89.28 67 94.56 67 100 C44.89 100 22.78 100 0 100 C0 67 0 34 0 0 Z " fill="#B5B5B5" transform="translate(708,540)"/>
<path d="M0 0 C5.6946097 4.04461135 10.35892363 8.46019184 13 15 C12.13493865 18.18241548 10.93121045 19.04687598 8.1796875 20.921875 C7.08914063 21.52515625 5.99859375 22.1284375 4.875 22.75 C3.23144531 23.67039062 3.23144531 23.67039062 1.5546875 24.609375 C0.71164062 25.06828125 -0.13140625 25.5271875 -1 26 C-3.49097017 23.57822344 -5.78618213 21.31309046 -7.75 18.4375 C-11.68086745 14.17906027 -16.18869912 12.37458787 -21.90234375 11.61328125 C-29.63316176 11.32474364 -36.63317213 12.53665376 -42.8125 17.4375 C-50.27982651 25.20351957 -51.65902723 35.68973459 -51.5 46 C-51.51546875 47.00289062 -51.5309375 48.00578125 -51.546875 49.0390625 C-51.49758099 58.57745248 -49.28677569 67.56518328 -42.57421875 74.6328125 C-37.25850149 79.2494404 -31.10825016 80.33174574 -24.25 80.21484375 C-18.68409289 79.68337692 -13.70951756 78.25364621 -9.1875 74.9375 C-6.18330976 70.90330167 -4.08312634 66.56514921 -2 62 C4.30214697 62.33169195 8.85216936 65.67323988 14 69 C13.58775449 76.83266474 8.81658839 83.62456673 3.25 88.875 C-1.08925708 92.39443561 -5.71402992 94.30882951 -11 96 C-11.65742188 96.22558594 -12.31484375 96.45117188 -12.9921875 96.68359375 C-25.4134553 100.4202822 -39.636449 97.79069132 -51 92 C-61.56088055 85.5076554 -67.99190219 75.90717034 -71.1171875 63.953125 C-74.7140771 46.81203589 -73.62306065 28.21672786 -64.6875 13.0625 C-51.4411699 -6.22013243 -20.07061439 -12.49508926 0 0 Z " fill="#B4B4B4" transform="translate(393,544)"/>
<path d="M0 0 C0.78436935 -0.0033284 1.56873871 -0.0066568 2.37687683 -0.01008606 C4.03876153 -0.01515338 5.70065641 -0.01749445 7.36254883 -0.01733398 C9.89747065 -0.01951362 12.43195248 -0.0376521 14.96679688 -0.05664062 C16.58202976 -0.05957601 18.19726472 -0.06155983 19.8125 -0.0625 C20.56787552 -0.06968552 21.32325104 -0.07687103 22.10151672 -0.08427429 C26.17941074 -0.06670051 29.54534705 0.07991962 33.10546875 2.16796875 C35.12985771 5.3271408 35.36213744 7.86606822 35.38012695 11.57568359 C35.39442497 13.19789322 35.39442497 13.19789322 35.40901184 14.85287476 C35.40810043 16.01646515 35.40718903 17.18005554 35.40625 18.37890625 C35.41053513 19.57979889 35.41482025 20.78069153 35.41923523 22.01797485 C35.42497815 24.55820078 35.42547908 27.09844316 35.42114258 29.63867188 C35.41798651 33.52111973 35.44143006 37.40280283 35.46679688 41.28515625 C35.46907027 43.75390529 35.46977318 46.22265638 35.46875 48.69140625 C35.47795975 49.85094818 35.48716949 51.01049011 35.49665833 52.20516968 C35.43816637 62.42002988 35.43816637 62.42002988 32.10546875 67.16796875 C27.05330779 69.69404923 19.18711195 68.52348958 13.56665039 68.57299805 C11.72270995 68.59458453 9.87887216 68.62869546 8.03540039 68.67553711 C5.3746982 68.74252549 2.71611386 68.76999233 0.0546875 68.7890625 C-0.76630936 68.81689316 -1.58730621 68.84472382 -2.43318176 68.87339783 C-6.64992225 68.8582819 -8.444161 68.50314325 -11.91455078 65.92041016 C-15.23937575 61.08245919 -14.58680384 55.13928219 -14.5234375 49.5078125 C-14.52584946 48.28518204 -14.52826141 47.06255157 -14.53074646 45.8028717 C-14.52976869 43.2232844 -14.51639223 40.64367594 -14.49145508 38.06420898 C-14.45711978 34.11564937 -14.47080969 30.16932452 -14.49023438 26.22070312 C-14.48333667 23.71223006 -14.47366498 21.20376276 -14.4609375 18.6953125 C-14.46589737 17.51500961 -14.47085724 16.33470673 -14.47596741 15.11863708 C-14.35851967 6.9501376 -14.35851967 6.9501376 -11.98413086 2.94750977 C-8.15429573 -0.31404746 -4.82731072 0.0070549 0 0 Z " fill="#FBFCFC" transform="translate(917.89453125,387.83203125)"/>
<path d="M0 0 C2.95064148 -0.2208564 5.68368231 -0.28060989 8.625 -0.1875 C9.42679688 -0.17396484 10.22859375 -0.16042969 11.0546875 -0.14648438 C13.03674378 -0.11109051 15.01845551 -0.05728234 17 0 C14.49236535 10.61442193 11.54639795 21.00868617 8.19915771 31.38766479 C6.86284446 35.53233476 5.54338889 39.68237531 4.22265625 43.83203125 C3.81756836 45.10307457 3.81756836 45.10307457 3.40429688 46.39979553 C0.65166462 55.05600453 -1.99073851 63.74469797 -4.625 72.4375 C-9.55495552 88.68943342 -14.72908156 104.85566847 -20 121 C-25.94 121 -31.88 121 -38 121 C-36.44606006 114.45709499 -34.74179141 108.02337333 -32.71875 101.609375 C-32.39201042 100.57112579 -32.39201042 100.57112579 -32.05867004 99.51190186 C-31.37460629 97.34057872 -30.68776567 95.17015317 -30 93 C-29.78797943 92.33057373 -29.57595886 91.66114746 -29.35751343 90.97143555 C-28.27446848 87.55326996 -27.18975915 84.13563326 -26.10498047 80.71801758 C-25.63243603 79.22869455 -25.15994409 77.73935486 -24.6875 76.25 C-24.31773041 75.08457169 -24.31773041 75.08457169 -23.94049072 73.89559937 C-20.47784998 62.97044634 -17.07879232 52.027151 -13.73046875 41.06640625 C-13.36904282 39.88474884 -13.00761688 38.70309143 -12.63523865 37.48562622 C-10.83596575 31.60138519 -9.04221984 25.71554441 -7.2565918 19.82714844 C-6.59573258 17.6620507 -5.93468994 15.49700893 -5.2734375 13.33203125 C-4.97185226 12.33063614 -4.67026703 11.32924103 -4.35954285 10.29750061 C-4.07766617 9.3779509 -3.79578949 8.45840118 -3.50537109 7.51098633 C-3.26176849 6.70848953 -3.01816589 5.90599274 -2.7671814 5.07917786 C-2 3 -2 3 0 0 Z " fill="#B4B4B4" transform="translate(674,534)"/>
<path d="M0 0 C3.320625 -0.061875 6.64125 -0.12375 10.0625 -0.1875 C11.09511963 -0.21481201 12.12773926 -0.24212402 13.19165039 -0.27026367 C19.61337797 -0.32787153 24.68650141 0.14712229 29.7421875 4.5 C33.5635203 9.55997171 34.78804775 13.68436019 34 20 C32.60492679 24.64744268 30.98832442 27.24547275 27.09375 30.21875 C22.02222323 32.9420904 16.66577467 32.42945725 11.0625 32.25 C7.411875 32.1675 3.76125 32.085 0 32 C0 21.44 0 10.88 0 0 Z " fill="#FBFBFB" transform="translate(908,555)"/>
<path d="M0 0 C5.754375 -0.12375 5.754375 -0.12375 11.625 -0.25 C12.82334473 -0.28641602 14.02168945 -0.32283203 15.25634766 -0.36035156 C21.50132043 -0.42537059 25.29091491 -0.25387353 30 4 C33.41934514 7.87525783 33.45134989 11.6643876 33.2890625 16.62890625 C32.77873844 20.81494281 31.10241917 23.03538323 28 25.75 C24.51070397 27.93081002 21.691183 28.11984079 17.67578125 28.09765625 C16.74934814 28.09515869 15.82291504 28.09266113 14.8684082 28.09008789 C13.6949585 28.08098389 12.52150879 28.07187988 11.3125 28.0625 C7.579375 28.041875 3.84625 28.02125 0 28 C0 18.76 0 9.52 0 0 Z " fill="#FBFBFB" transform="translate(814,555)"/>
<path d="M0 0 C3.67125 -0.061875 7.3425 -0.12375 11.125 -0.1875 C12.84420654 -0.22846802 12.84420654 -0.22846802 14.59814453 -0.27026367 C21.52306382 -0.32672672 25.9427042 0.42543512 31.375 5 C33.85246939 9.57378965 33.6363352 13.90931844 33 19 C31.42795206 22.77291507 29.48780566 24.88617839 26 27 C22.8840911 27.98816656 20.05503588 28.11659905 16.796875 28.09765625 C15.91354492 28.09515869 15.03021484 28.09266113 14.12011719 28.09008789 C13.00797852 28.08098389 11.89583984 28.07187988 10.75 28.0625 C7.2025 28.041875 3.655 28.02125 0 28 C0 18.76 0 9.52 0 0 Z " fill="#FBFBFB" transform="translate(444,555)"/>
<path d="M0 0 C13.86 0 27.72 0 42 0 C42 43.89 42 87.78 42 133 C41.67 133 41.34 133 41 133 C41 89.44 41 45.88 41 1 C28.46 1 15.92 1 3 1 C2.67 47.53 2.34 94.06 2 142 C1.67 142 1.34 142 1 142 C0.24887493 137.98541313 -0.1240272 134.19742935 -0.12025452 130.11538696 C-0.12162918 128.96281403 -0.12300385 127.81024109 -0.12442017 126.6227417 C-0.12082489 125.37261292 -0.11722961 124.12248413 -0.11352539 122.83447266 C-0.11324307 121.49370323 -0.11340214 120.15293365 -0.1139679 118.81216431 C-0.1142541 115.18452249 -0.10838593 111.55691392 -0.10139394 107.9292798 C-0.09513098 104.13363089 -0.09455427 100.33798116 -0.09336853 96.54232788 C-0.09026388 89.3601622 -0.08206218 82.17801179 -0.07201904 74.99585283 C-0.06083098 66.81691132 -0.05534067 58.63796907 -0.05032361 50.45902181 C-0.03987884 33.63933753 -0.02154414 16.81967428 0 0 Z " fill="#073A9D" transform="translate(781,316)"/>
<path d="M0 0 C1.98 0 3.96 0 6 0 C6 10.89 6 21.78 6 33 C-17.1 33 -40.2 33 -64 33 C-64 32.67 -64 32.34 -64 32 C-49.27830918 31.01606482 -34.62517957 30.90660221 -19.875 31 C-15.55989894 31.02653114 -11.24483872 31.04646378 -6.9296875 31.0625 C-5.94451141 31.07079834 -4.95933533 31.07909668 -3.94430542 31.08764648 C-3.044711 31.09094971 -2.14511658 31.09425293 -1.21826172 31.09765625 C-0.42507538 31.10289307 0.36811096 31.10812988 1.18533325 31.11352539 C3.02096375 31.19956187 3.02096375 31.19956187 4 30 C4.15858842 27.85613343 4.25129298 25.70733162 4.31640625 23.55859375 C4.35830078 22.25341797 4.40019531 20.94824219 4.44335938 19.60351562 C4.48317608 18.2148467 4.52288825 16.82617478 4.5625 15.4375 C4.60567989 14.04490817 4.649294 12.65232972 4.69335938 11.25976562 C4.79985876 7.83995199 4.90186923 4.42006237 5 1 C3.35 1 1.7 1 0 1 C0 0.67 0 0.34 0 0 Z " fill="#0142A6" transform="translate(740,391)"/>
<path d="M0 0 C-0.33 1.32 -0.66 2.64 -1 4 C-15.85 4 -30.7 4 -46 4 C-45.67 3.01 -45.34 2.02 -45 1 C-43.792229 1.00785522 -43.792229 1.00785522 -42.56005859 1.01586914 C-39.4996773 1.03317057 -36.43932137 1.04557372 -33.37890625 1.05493164 C-31.43227455 1.06228369 -29.48566544 1.07500578 -27.5390625 1.08789062 C-19.88196083 1.10742405 -12.34674304 0.83531809 -4.71728516 0.21655273 C-2 0 -2 0 0 0 Z " fill="#184FA7" transform="translate(1089,483)"/>
<path d="M0 0 C10.45625266 0.48472694 10.45625266 0.48472694 15.2109375 0.71875 C18.81993605 0.89614349 22.42908345 1.0627365 26.0390625 1.21875 C27.54689818 1.29118571 29.05471213 1.36407583 30.5625 1.4375 C31.25722412 1.46448975 31.95194824 1.49147949 32.66772461 1.51928711 C36.30714469 1.70821256 38.82125889 2.26554978 42 4 C40.34230591 3.9388501 40.34230591 3.9388501 38.65112305 3.87646484 C34.55329909 3.7280627 30.45511918 3.59339695 26.35668945 3.46289062 C24.58247335 3.40446953 22.80837604 3.34231701 21.03442383 3.27636719 C18.48540882 3.18224971 15.93626866 3.10153321 13.38671875 3.0234375 C12.59287277 2.99124115 11.79902679 2.9590448 10.98112488 2.9258728 C7.08135205 2.81964578 5.32955777 2.78029482 2 5 C1.489395 7.71004503 1.489395 7.71004503 1.48828125 10.8828125 C1.45283203 12.04941406 1.41738281 13.21601563 1.38085938 14.41796875 C1.35830078 15.64128906 1.33574219 16.86460937 1.3125 18.125 C1.26125977 19.97158203 1.26125977 19.97158203 1.20898438 21.85546875 C1.12628436 24.9035551 1.05720573 27.95134571 1 31 C0.67 31 0.34 31 0 31 C0 20.77 0 10.54 0 0 Z " fill="#083DA0" transform="translate(375,453)"/>
<path d="M0 0 C0.66 0 1.32 0 2 0 C3.12705669 5.51005491 3.12705669 5.51005491 2.54017639 7.77313232 C1.79883471 10.82930038 1.83425937 13.73596984 1.79467773 16.87988281 C1.78477814 17.56321686 1.77487854 18.2465509 1.76467896 18.95059204 C1.73317956 21.20140154 1.70835248 23.45223211 1.68359375 25.703125 C1.66301423 27.26683083 1.64201749 28.83053122 1.62062073 30.39422607 C1.56550314 34.50410551 1.51604852 38.61403428 1.46777344 42.72399902 C1.41748298 46.92021054 1.36183634 51.11635065 1.30664062 55.3125 C1.19918525 63.54160624 1.09771241 71.77077233 1 80 C0.67 80 0.34 80 0 80 C0 53.6 0 27.2 0 0 Z " fill="#043C9F" transform="translate(70,363)"/>
<path d="M0 0 C20.295 0.495 20.295 0.495 41 1 C39 3 39 3 35.28466797 3.22705078 C33.68713948 3.22673351 32.08958973 3.21539982 30.4921875 3.1953125 C29.23125778 3.19106766 29.23125778 3.19106766 27.94485474 3.18673706 C25.25475954 3.1755243 22.5649949 3.15041803 19.875 3.125 C18.05339022 3.1149716 16.23177523 3.10584551 14.41015625 3.09765625 C9.93997642 3.07558142 5.47004429 3.04104434 1 3 C0.67 2.01 0.34 1.02 0 0 Z " fill="#124AA2" transform="translate(907,455)"/>
<path d="M0 0 C0.33 0 0.66 0 1 0 C1 10.89 1 21.78 1 33 C-13.19 33 -27.38 33 -42 33 C-42 32.67 -42 32.34 -42 32 C-40.82904785 31.98018066 -39.6580957 31.96036133 -38.45166016 31.93994141 C-34.11663926 31.86399919 -29.78195905 31.7752648 -25.44726562 31.68261719 C-23.56940424 31.64428023 -21.69146824 31.60943573 -19.81347656 31.578125 C-17.11756679 31.53257637 -14.42217288 31.47456625 -11.7265625 31.4140625 C-10.46243027 31.39673569 -10.46243027 31.39673569 -9.17276001 31.37905884 C-4.60979043 31.45806819 -4.60979043 31.45806819 -1 29 C-0.62703444 25.99027343 -0.62703444 25.99027343 -0.5859375 22.4609375 C-0.54726562 21.15898437 -0.50859375 19.85703125 -0.46875 18.515625 C-0.43729237 17.13542138 -0.40604509 15.75521296 -0.375 14.375 C-0.33682066 12.98695459 -0.29776895 11.59893289 -0.2578125 10.2109375 C-0.16327057 6.80742815 -0.07772103 3.40392835 0 0 Z " fill="#0241A1" transform="translate(205,317)"/>
<path d="M0 0 C0.33 0.66 0.66 1.32 1 2 C-2.53805448 11.40152379 -7.40191881 18.83206267 -16.4375 23.4375 C-17.613125 23.953125 -18.78875 24.46875 -20 25 C-20.33 24.01 -20.66 23.02 -21 22 C-15.375 19 -15.375 19 -12 19 C-11.7525 18.38125 -11.505 17.7625 -11.25 17.125 C-10 15 -10 15 -8.02734375 14.14453125 C-5.36931525 12.64394868 -5.133429 11.45235989 -4.3125 8.5625 C-4.08175781 7.78003906 -3.85101563 6.99757813 -3.61328125 6.19140625 C-3.41089844 5.46824219 -3.20851563 4.74507813 -3 4 C-2.67 3.01 -2.34 2.02 -2 1 C-1.34 0.67 -0.68 0.34 0 0 Z " fill="#1248A2" transform="translate(502,462)"/>
<path d="M0 0 C0.66 0.66 1.32 1.32 2 2 C-2.25351021 3.61109365 -5.73303096 4.24026702 -10.2734375 4.1953125 C-12.00400391 4.18564453 -12.00400391 4.18564453 -13.76953125 4.17578125 C-14.95933594 4.15902344 -16.14914062 4.14226562 -17.375 4.125 C-18.58800781 4.11597656 -19.80101562 4.10695313 -21.05078125 4.09765625 C-24.03405773 4.07416588 -27.01692594 4.04131682 -30 4 C-30.33 3.34 -30.66 2.68 -31 2 C-29.73285156 2.01160156 -28.46570313 2.02320313 -27.16015625 2.03515625 C-25.46093899 2.04454419 -23.76172011 2.05364331 -22.0625 2.0625 C-21.23169922 2.07087891 -20.40089844 2.07925781 -19.54492188 2.08789062 C-12.95653581 2.11352637 -6.29653065 2.09884355 0 0 Z " fill="#1448A5" transform="translate(282,485)"/>
<path d="M0 0 C-2.42723892 7.04879989 -7.70065545 12.05362206 -14.25 15.5 C-17.2542023 16.94003085 -18.43761872 17 -22 17 C-22 16.34 -22 15.68 -22 15 C-20.73308493 14.32591692 -19.46129251 13.66099503 -18.1875 13 C-17.47980469 12.62875 -16.77210938 12.2575 -16.04296875 11.875 C-14 11 -14 11 -11 11 C-11 10.34 -11 9.68 -11 9 C-10.34 9 -9.68 9 -9 9 C-9 8.34 -9 7.68 -9 7 C-8.34 7 -7.68 7 -7 7 C-7 6.34 -7 5.68 -7 5 C-2.47619048 0 -2.47619048 0 0 0 Z " fill="#0E44A1" transform="translate(991,470)"/>
<path d="M0 0 C0.99 0.33 1.98 0.66 3 1 C3.80859375 3.40625 3.80859375 3.40625 4.4375 6.5 C5.33564132 10.53208125 6.35080721 14.05074552 8.1875 17.75 C10.24843526 22.03643188 10.34298176 25.2840008 10 30 C7.97136763 26.95705145 7.11367348 24.53541412 6.0546875 21.0546875 C5.70019531 19.89582031 5.34570312 18.73695313 4.98046875 17.54296875 C4.61566406 16.33253906 4.25085937 15.12210937 3.875 13.875 C3.50246094 12.65683594 3.12992188 11.43867188 2.74609375 10.18359375 C0 1.16071429 0 1.16071429 0 0 Z " fill="#0D429F" transform="translate(1030,444)"/>
<path d="M0 0 C1.18239258 0.08507812 1.18239258 0.08507812 2.38867188 0.171875 C4.32239961 0.31250974 6.25508595 0.46733888 8.1875 0.625 C8.1875 0.955 8.1875 1.285 8.1875 1.625 C6.55941406 1.66367187 6.55941406 1.66367187 4.8984375 1.703125 C3.45308651 1.75943738 2.00777556 1.816784 0.5625 1.875 C-0.15035156 1.88917969 -0.86320312 1.90335937 -1.59765625 1.91796875 C-6.71639444 2.15277325 -9.74242803 3.27605189 -13.8125 6.625 C-15.80347846 9.61146769 -16.75374926 12.22187262 -17.8125 15.625 C-18.1425 15.625 -18.4725 15.625 -18.8125 15.625 C-18.41221849 9.82091817 -17.72954067 6.19488078 -13.8125 1.625 C-9.25525907 -0.96453503 -5.0317663 -0.42177421 0 0 Z " fill="#0843A2" transform="translate(130.8125,348.375)"/>
<path d="M0 0 C0.33 0 0.66 0 1 0 C1 8.25 1 16.5 1 25 C-8.24 25 -17.48 25 -27 25 C-27 24.67 -27 24.34 -27 24 C-18.75 24 -10.5 24 -2 24 C-1.04831317 21.14493951 -0.8099054 19.09062718 -0.68359375 16.11328125 C-0.64169922 15.17548828 -0.59980469 14.23769531 -0.55664062 13.27148438 C-0.51732422 12.29501953 -0.47800781 11.31855469 -0.4375 10.3125 C-0.39431641 9.32443359 -0.35113281 8.33636719 -0.30664062 7.31835938 C-0.20058346 4.87904454 -0.09852286 2.43962887 0 0 Z " fill="#013EA2" transform="translate(600,365)"/>
<path d="M0 0 C0.99 0 1.98 0 3 0 C5.42080258 6.9165788 7.29977612 13.87352969 9 21 C8.01 21 7.02 21 6 21 C4.02 14.07 2.04 7.14 0 0 Z " fill="#0C42A0" transform="translate(1005,364)"/>
<path d="M0 0 C0.86625 0.9075 1.7325 1.815 2.625 2.75 C7.13915345 6.69639394 12.26312248 7.75344519 17.98828125 9.140625 C21 10 21 10 23 12 C14.67409004 11.96315969 8.01493704 9.46203274 1 5 C0.34 4.01 -0.32 3.02 -1 2 C-0.67 1.34 -0.34 0.68 0 0 Z " fill="#1A4DA7" transform="translate(874,477)"/>
<path d="M0 0 C2.64 0 5.28 0 8 0 C8 10.56 8 21.12 8 32 C6.35 32 4.7 32 3 32 C3.4844458 31.63737061 3.9688916 31.27474121 4.46801758 30.90112305 C6.67017521 28.16834193 6.43303717 26.05975709 6.51171875 22.58203125 C6.54716797 21.32841797 6.58261719 20.07480469 6.61914062 18.78320312 C6.65297852 16.81770508 6.65297852 16.81770508 6.6875 14.8125 C6.72067666 13.47717987 6.75516666 12.14189168 6.79101562 10.80664062 C6.87362057 7.53784496 6.94273229 4.26932188 7 1 C4.69 1 2.38 1 0 1 C0 0.67 0 0.34 0 0 Z " fill="#053FA1" transform="translate(198,452)"/>
<path d="M0 0 C3.33333333 11.33333333 3.33333333 11.33333333 2 14 C2.66 14 3.32 14 4 14 C4.625 16.375 4.625 16.375 5 19 C4.34 19.66 3.68 20.32 3 21 C1.02 14.4 -0.96 7.8 -3 1 C-1 0 -1 0 0 0 Z " fill="#1045A1" transform="translate(1016,389)"/>
<path d="M0 0 C0.99 0 1.98 0 3 0 C3.4813341 1.72856459 3.95996971 3.45788071 4.4375 5.1875 C4.70433594 6.15042969 4.97117187 7.11335938 5.24609375 8.10546875 C5.92880018 10.72663697 6.49892195 13.338935 7 16 C6.34 16 5.68 16 5 16 C4.16280617 13.70967689 3.3301071 11.41789043 2.5 9.125 C2.14228516 8.14853516 2.14228516 8.14853516 1.77734375 7.15234375 C0 2.2265625 0 2.2265625 0 0 Z " fill="#0B42A0" transform="translate(1127,454)"/>
<path d="M0 0 C0.66 0 1.32 0 2 0 C6.76724969 12.46136896 6.76724969 12.46136896 7 17 C6.34 17.66 5.68 18.32 5 19 C4.16142312 16.39741676 3.32896656 13.79314353 2.5 11.1875 C2.14228516 10.08051758 2.14228516 10.08051758 1.77734375 8.95117188 C0.80059864 5.86744804 0 3.25504191 0 0 Z " fill="#1344A0" transform="translate(1114,411)"/>
<path d="M0 0 C0.99 0.495 0.99 0.495 2 1 C2.62669199 3.16467461 3.15427374 5.35864524 3.625 7.5625 C3.88539062 8.76003906 4.14578125 9.95757812 4.4140625 11.19140625 C4.60742188 12.11824219 4.80078125 13.04507812 5 14 C4.01 14 3.02 14 2 14 C0.66416101 9.15758367 -0.25328119 5.06562383 0 0 Z " fill="#1F55A8" transform="translate(1054,378)"/>
<path d="M0 0 C0.99 0 1.98 0 3 0 C1.125 6.75 1.125 6.75 0 9 C-0.2165625 10.2684375 -0.2165625 10.2684375 -0.4375 11.5625 C-0.623125 12.366875 -0.80875 13.17125 -1 14 C-1.99 14.495 -1.99 14.495 -3 15 C-2.5547115 9.72684667 -1.91626837 4.98229776 0 0 Z " fill="#0A46A5" transform="translate(1173,368)"/>
<path d="M0 0 C0.71567139 0.32597168 1.43134277 0.65194336 2.16870117 0.98779297 C5.1093847 2.03910572 7.19634281 2.23162172 10.30078125 2.1953125 C11.27724609 2.18886719 12.25371094 2.18242187 13.25976562 2.17578125 C14.77086914 2.15064453 14.77086914 2.15064453 16.3125 2.125 C17.85260742 2.11146484 17.85260742 2.11146484 19.42382812 2.09765625 C21.94945899 2.07416201 24.4746081 2.04131131 27 2 C23.85122507 4.09918329 23.070235 4.25543871 19.47265625 4.265625 C18.59802734 4.26820313 17.72339844 4.27078125 16.82226562 4.2734375 C15.45618164 4.26183594 15.45618164 4.26183594 14.0625 4.25 C13.15564453 4.25773437 12.24878906 4.26546875 11.31445312 4.2734375 C10.43853516 4.27085937 9.56261719 4.26828125 8.66015625 4.265625 C7.86230713 4.26336914 7.06445801 4.26111328 6.24243164 4.25878906 C3.77772904 3.9743487 2.13724176 3.23000569 0 2 C0 1.34 0 0.68 0 0 Z " fill="#18489F" transform="translate(267,451)"/>
<path d="M0 0 C2 1 2 1 3 3.75 C3.33 4.8225 3.66 5.895 4 7 C4.5878125 8.299375 4.5878125 8.299375 5.1875 9.625 C6.1080572 12.31585952 5.78929418 13.34662807 5 16 C-0.74031891 5.62642369 -0.74031891 5.62642369 0 0 Z " fill="#0E44A2" transform="translate(530,460)"/>
<path d="M0 0 C0.33 0 0.66 0 1 0 C1 1.98 1 3.96 1 6 C1.66 6 2.32 6 3 6 C3.66 9.63 4.32 13.26 5 17 C4.34 17.33 3.68 17.66 3 18 C1.14256832 11.88595404 -0.42765417 6.41481258 0 0 Z " fill="#194AA2" transform="translate(781,452)"/>
<path d="M0 0 C2.23685678 3.35528517 2.21119122 4.09504118 1.8125 7.9375 C1.73644531 8.79214844 1.66039062 9.64679688 1.58203125 10.52734375 C1 13 1 13 -2 17 C-1.34 11.39 -0.68 5.78 0 0 Z " fill="#1F55AA" transform="translate(532,331)"/>
<path d="M0 0 C0.474375 0.495 0.94875 0.99 1.4375 1.5 C4.7736615 3.45287502 7.19285225 3.15528034 10.9765625 2.91015625 C13 3 13 3 15 5 C10.05 5 5.1 5 0 5 C0 3.35 0 1.7 0 0 Z " fill="#0341A8" transform="translate(317,481)"/>
<path d="M0 0 C0.66 0 1.32 0 2 0 C2 3.90775329 1.47934752 5.73654963 0 9.25 C-0.37125 10.14203125 -0.7425 11.0340625 -1.125 11.953125 C-1.41375 12.62859375 -1.7025 13.3040625 -2 14 C-2.66 14 -3.32 14 -4 14 C-3.52525225 11.85318469 -3.04508251 9.70756772 -2.5625 7.5625 C-2.29566406 6.36753906 -2.02882813 5.17257812 -1.75390625 3.94140625 C-1 1 -1 1 0 0 Z " fill="#164CA5" transform="translate(1082,398)"/>
<path d="M0 0 C2.3129482 2.3129482 2.49580975 3.47904875 3.125 6.625 C3.29257813 7.44226563 3.46015625 8.25953125 3.6328125 9.1015625 C3.81457031 10.04128906 3.81457031 10.04128906 4 11 C3.01 11.495 3.01 11.495 2 12 C2 11.34 2 10.68 2 10 C1.34 10 0.68 10 0 10 C0 6.7 0 3.4 0 0 Z " fill="#1A52A6" transform="translate(1060,399)"/>
<path d="M0 0 C1.25127906 3.54667178 0.72285053 5.72253438 -0.4375 9.25 C-0.72496094 10.14203125 -1.01242187 11.0340625 -1.30859375 11.953125 C-1.53675781 12.62859375 -1.76492188 13.3040625 -2 14 C-2.33 14 -2.66 14 -3 14 C-3.29341888 8.32723489 -3.00559652 5.00932754 0 0 Z " fill="#0D4AA2" transform="translate(1213,382)"/>
<path d="M0 0 C0.33 0 0.66 0 1 0 C1 2.64 1 5.28 1 8 C-1.64 8 -4.28 8 -7 8 C-6.01 7.34 -5.02 6.68 -4 6 C-1.66858245 3.93759216 -1.0192827 3.05784811 0 0 Z " fill="#02399C" transform="translate(845,479)"/>
<path d="M0 0 C-1 3 -1 3 -3.06640625 4.16796875 C-3.89011719 4.50441406 -4.71382813 4.84085937 -5.5625 5.1875 C-6.38878906 5.53167969 -7.21507812 5.87585938 -8.06640625 6.23046875 C-8.70449219 6.48441406 -9.34257812 6.73835938 -10 7 C-9.67 6.01 -9.34 5.02 -9 4 C-8.01 4 -7.02 4 -6 4 C-6 3.34 -6 2.68 -6 2 C-3 0 -3 0 0 0 Z " fill="#1045A2" transform="translate(311,475)"/>
<path d="M0 0 C3.40312738 1.05875074 6.01353231 2.00902154 9 4 C8.67 4.99 8.34 5.98 8 7 C6.66382648 6.02471263 5.3311249 5.04466681 4 4.0625 C3.2575 3.51722656 2.515 2.97195313 1.75 2.41015625 C1.1725 1.94480469 0.595 1.47945313 0 1 C0 0.67 0 0.34 0 0 Z " fill="#184DA6" transform="translate(790,478)"/>
<path d="M0 0 C3.06630664 0.8974556 4.73038808 1.73038808 7 4 C2.82412255 5.39195915 0.86525224 3.82323219 -3 2 C-2.01 1.34 -1.02 0.68 0 0 Z " fill="#1349A8" transform="translate(92,482)"/>
<path d="M0 0 C0.33 0 0.66 0 1 0 C1.36923077 7.50769231 1.36923077 7.50769231 -0.5 10 C-0.995 10.33 -1.49 10.66 -2 11 C-2.19622241 6.78121808 -1.80230168 3.82989106 0 0 Z " fill="#0D45A2" transform="translate(1165,397)"/>
<path d="M0 0 C0 1.65 0 3.3 0 5 C-2.97 5 -5.94 5 -9 5 C-7.68 4.34 -6.36 3.68 -5 3 C-0.96153846 0 -0.96153846 0 0 0 Z " fill="#013B9F" transform="translate(610,482)"/>
<path d="M0 0 C0 0.66 0 1.32 0 2 C-5.41538462 4.21538462 -5.41538462 4.21538462 -8.375 3.125 C-8.91125 2.75375 -9.4475 2.3825 -10 2 C-6.38026598 0.68373308 -3.90432869 0 0 0 Z " fill="#164CA4" transform="translate(311,450)"/>
<path d="M0 0 C0.66 0 1.32 0 2 0 C1.67 2.31 1.34 4.62 1 7 C-0.98 7 -2.96 7 -5 7 C-4.360625 6.5875 -3.72125 6.175 -3.0625 5.75 C-0.79009069 3.82189513 -0.39803561 2.88575819 0 0 Z " fill="#0B45A0" transform="translate(1182,479)"/>
<path d="M0 0 C0.99 0.33 1.98 0.66 3 1 C3.33 3.64 3.66 6.28 4 9 C3.01 9.495 3.01 9.495 2 10 C1.7834375 8.63875 1.7834375 8.63875 1.5625 7.25 C1.13590527 4.78523044 0.64925779 2.41152893 0 0 Z " fill="#154CA4" transform="translate(1141,396)"/>
<path d="M0 0 C2.31 0.33 4.62 0.66 7 1 C7 1.66 7 2.32 7 3 C7.66 3 8.32 3 9 3 C8.67 3.66 8.34 4.32 8 5 C5.36 3.68 2.72 2.36 0 1 C0 0.67 0 0.34 0 0 Z " fill="#1D4FA6" transform="translate(237,482)"/>
<path d="M0 0 C2.96404505 2.80804268 5.44499019 5.18315774 7 9 C6.01 9.495 6.01 9.495 5 10 C4.731875 9.030625 4.46375 8.06125 4.1875 7.0625 C3.795625 6.051875 3.40375 5.04125 3 4 C2.01 3.67 1.02 3.34 0 3 C0 2.01 0 1.02 0 0 Z " fill="#2351A3" transform="translate(985,366)"/>
<path d="M0 0 C-1.39332574 3.36720387 -2.9789286 4.9859524 -6 7 C-5.37162381 3.35541809 -4.14650034 0 0 0 Z " fill="#0A3C9F" transform="translate(496,475)"/>
<path d="M0 0 C0.66 0.33 1.32 0.66 2 1 C2.40729228 3.32156597 2.74438677 5.6568787 3 8 C2.01 8.495 2.01 8.495 1 9 C0.63877119 7.68942607 0.28619689 6.37646376 -0.0625 5.0625 C-0.35833984 3.96615234 -0.35833984 3.96615234 -0.66015625 2.84765625 C-0.77230469 2.23792969 -0.88445312 1.62820313 -1 1 C-0.67 0.67 -0.34 0.34 0 0 Z " fill="#114AA2" transform="translate(1137,379)"/>
<path d="M0 0 C0.66 0.33 1.32 0.66 2 1 C2.75 3.9375 2.75 3.9375 3 7 C2.34 7.66 1.68 8.32 1 9 C1 7.35 1 5.7 1 4 C0.34 4 -0.32 4 -1 4 C-0.67 2.68 -0.34 1.36 0 0 Z " fill="#154BA6" transform="translate(1132,361)"/>
</svg>
