<?xml version="1.0" encoding="UTF-8"?>
<svg version="1.1" xmlns="http://www.w3.org/2000/svg" width="240" height="100">
<path d="M0 0 C11.32939909 -0.78889433 20.2352105 1.72977489 29 9.0859375 C36.02003281 15.80432827 41.45222167 24.81567647 42.203125 34.6640625 C42.4109818 47.79368373 38.60579899 57.07963459 29.75 66.75 C22.94378866 73.18306379 14.2916748 76.40053711 5 77 C2.17578125 76.5390625 2.17578125 76.5390625 0 76 C2.52097169 73.47902831 4.75339967 72.9585312 8.125 71.8125 C18.23378718 67.9854426 23.39802486 62.64987811 28 53 C28.66574824 51.66620785 29.33213024 50.33273111 30 49 C18.0376651 48.36719423 18.0376651 48.36719423 7.625 52.9375 C7.18414062 53.46214844 6.74328125 53.98679688 6.2890625 54.52734375 C3.89736246 57.25967986 1.60780518 57.92362237 -1.953125 58.37109375 C-9.28080873 58.51868928 -14.51409463 58.14726923 -20 53 C-24.10616299 48.02938165 -26.11084955 43.04836267 -25.875 36.5625 C-24.06920428 29.21033172 -21.29843433 24.28293534 -15 20 C-9.62627565 17.54677802 -4.27220456 17.00270536 1.37109375 18.72265625 C7.47963194 21.20017502 7.47963194 21.20017502 9.6875 24.59375 C12.68977032 27.71773398 14.55542043 27.64269923 18.75 27.79492188 C19.575 27.80072266 20.4 27.80652344 21.25 27.8125 C22.09046875 27.83763672 22.9309375 27.86277344 23.796875 27.88867188 C25.86408228 27.94739935 27.93209111 27.97659774 30 28 C25.04942516 16.3515886 18.74924903 8.92326832 7 4 C5.98292969 3.55333984 5.98292969 3.55333984 4.9453125 3.09765625 C3.30378264 2.38237115 1.65286275 1.68869281 0 1 C0 0.67 0 0.34 0 0 Z " fill="#2F03F6" transform="translate(42,6)"/>
<path d="M0 0 C0.91644287 0.00523682 1.83288574 0.01047363 2.77709961 0.01586914 C4.26113281 0.02070312 4.26113281 0.02070312 5.77514648 0.02563477 C6.81606445 0.03401367 7.85698242 0.04239258 8.92944336 0.05102539 C10.49662109 0.05779297 10.49662109 0.05779297 12.09545898 0.06469727 C14.6859779 0.07652612 17.27646758 0.0944622 19.86694336 0.11352539 C19.86694336 5.06352539 19.86694336 10.01352539 19.86694336 15.11352539 C20.52694336 15.11352539 21.18694336 15.11352539 21.86694336 15.11352539 C22.05256836 13.19540039 22.05256836 13.19540039 22.24194336 11.23852539 C22.61694336 7.36352539 22.61694336 7.36352539 24.86694336 5.11352539 C26.92993164 4.88647461 26.92993164 4.88647461 29.43725586 4.91821289 C30.3331543 4.9246582 31.22905273 4.93110352 32.15209961 4.93774414 C33.55782227 4.96288086 33.55782227 4.96288086 34.99194336 4.98852539 C35.93682617 4.99754883 36.88170898 5.00657227 37.85522461 5.01586914 C40.19271628 5.03948017 42.52970459 5.07241023 44.86694336 5.11352539 C45.52694336 6.43352539 46.18694336 7.75352539 46.86694336 9.11352539 C47.52694336 7.79352539 48.18694336 6.47352539 48.86694336 5.11352539 C50.51694336 5.11352539 52.16694336 5.11352539 53.86694336 5.11352539 C54.36194336 7.58852539 54.36194336 7.58852539 54.86694336 10.11352539 C55.52694336 10.11352539 56.18694336 10.11352539 56.86694336 10.11352539 C57.19694336 8.46352539 57.52694336 6.81352539 57.86694336 5.11352539 C59.84694336 5.11352539 61.82694336 5.11352539 63.86694336 5.11352539 C62.89235664 10.91518279 61.85441181 15.95335261 58.86694336 21.11352539 C56.55444336 21.36352539 56.55444336 21.36352539 53.86694336 21.11352539 C52.05444336 19.11352539 52.05444336 19.11352539 50.86694336 17.11352539 C50.20694336 18.43352539 49.54694336 19.75352539 48.86694336 21.11352539 C47.21694336 21.11352539 45.56694336 21.11352539 43.86694336 21.11352539 C42.14429842 17.81803073 40.57248404 14.78233694 39.86694336 11.11352539 C39.76381836 12.39227539 39.66069336 13.67102539 39.55444336 14.98852539 C39.37866211 17.16821289 39.37866211 17.16821289 38.86694336 19.11352539 C35.61611663 21.28074321 34.57462183 21.38573557 30.80444336 21.36352539 C29.9265918 21.36868164 29.04874023 21.37383789 28.14428711 21.37915039 C25.86694336 21.11352539 25.86694336 21.11352539 23.86694336 19.11352539 C23.20694336 19.77352539 22.54694336 20.43352539 21.86694336 21.11352539 C19.13248141 21.46409744 17.54496041 21.58846487 15.24975586 19.98071289 C13.29588383 17.34243371 13.35405536 15.17380867 13.17944336 11.92602539 C13.11370117 10.8393457 13.04795898 9.75266602 12.98022461 8.63305664 C12.9428418 7.80161133 12.90545898 6.97016602 12.86694336 6.11352539 C9.89694336 6.11352539 6.92694336 6.11352539 3.86694336 6.11352539 C3.86694336 6.77352539 3.86694336 7.43352539 3.86694336 8.11352539 C6.17694336 8.11352539 8.48694336 8.11352539 10.86694336 8.11352539 C11.24913103 9.76967196 11.58089438 11.43809563 11.86694336 13.11352539 C10.86694336 14.11352539 10.86694336 14.11352539 7.30444336 14.17602539 C6.17006836 14.15540039 5.03569336 14.13477539 3.86694336 14.11352539 C3.88756836 15.08290039 3.90819336 16.05227539 3.92944336 17.05102539 C3.86694336 20.11352539 3.86694336 20.11352539 2.86694336 21.11352539 C0.57881522 21.26567713 -1.71504792 21.33539031 -4.00805664 21.36352539 C-5.89137695 21.40219727 -5.89137695 21.40219727 -7.81274414 21.44165039 C-11.13305664 21.11352539 -11.13305664 21.11352539 -13.03930664 19.84008789 C-14.57715379 17.41248632 -14.69492208 14.93687098 -14.94946289 12.12133789 C-15.16699586 9.74236026 -15.62292546 7.44555364 -16.13305664 5.11352539 C-15.47305664 5.11352539 -14.81305664 5.11352539 -14.13305664 5.11352539 C-13.47305664 3.79352539 -12.81305664 2.47352539 -12.13305664 1.11352539 C-10.81305664 1.44352539 -9.49305664 1.77352539 -8.13305664 2.11352539 C-8.13305664 3.10352539 -8.13305664 4.09352539 -8.13305664 5.11352539 C-6.81305664 5.44352539 -5.49305664 5.77352539 -4.13305664 6.11352539 C-4.46305664 7.43352539 -4.79305664 8.75352539 -5.13305664 10.11352539 C-6.12305664 10.11352539 -7.11305664 10.11352539 -8.13305664 10.11352539 C-8.13305664 11.76352539 -8.13305664 13.41352539 -8.13305664 15.11352539 C-6.81305664 15.11352539 -5.49305664 15.11352539 -4.13305664 15.11352539 C-4.0724707 14.11450195 -4.01188477 13.11547852 -3.94946289 12.08618164 C-3.86567383 10.79583008 -3.78188477 9.50547852 -3.69555664 8.17602539 C-3.6143457 6.88825195 -3.53313477 5.60047852 -3.44946289 4.27368164 C-3.03775396 0.16167513 -3.03775396 0.16167513 0 0 Z M28.86694336 10.11352539 C28.86694336 12.09352539 28.86694336 14.07352539 28.86694336 16.11352539 C30.18694336 16.11352539 31.50694336 16.11352539 32.86694336 16.11352539 C32.86694336 14.13352539 32.86694336 12.15352539 32.86694336 10.11352539 C31.54694336 10.11352539 30.22694336 10.11352539 28.86694336 10.11352539 Z " fill="#0E3B8A" transform="translate(164.133056640625,32.886474609375)"/>
<path d="M0 0 C11.32939909 -0.78889433 20.2352105 1.72977489 29 9.0859375 C36.02003281 15.80432827 41.45222167 24.81567647 42.203125 34.6640625 C42.4109818 47.79368373 38.60579899 57.07963459 29.75 66.75 C22.94378866 73.18306379 14.2916748 76.40053711 5 77 C2.17578125 76.5390625 2.17578125 76.5390625 0 76 C2.52097169 73.47902831 4.75339967 72.9585312 8.125 71.8125 C17.36635906 68.31383978 22.6295323 63.7805655 26.9921875 54.91796875 C28 53 28 53 30 51 C29.67 53.64 29.34 56.28 29 59 C29.33 58.67 29.66 58.34 30 58 C30.66 58 31.32 58 32 58 C32.33 57.01 32.66 56.02 33 55 C35.0625 54.3125 35.0625 54.3125 37 54 C38.19892826 48.65594921 38.18391368 43.51729931 38.1875 38.0625 C38.20586914 36.59780273 38.20586914 36.59780273 38.22460938 35.10351562 C38.23499056 29.99943399 38.04438866 25.77562726 36 21 C34.35 21.33 32.7 21.66 31 22 C31 24.31 31 26.62 31 29 C24.73 29 18.46 29 12 29 C12 28.67 12 28.34 12 28 C17.94 28 23.88 28 30 28 C24.82396563 16.32074297 18.88352445 8.97953352 7 4 C5.98292969 3.55333984 5.98292969 3.55333984 4.9453125 3.09765625 C3.30378264 2.38237115 1.65286275 1.68869281 0 1 C0 0.67 0 0.34 0 0 Z " fill="#2C12CB" transform="translate(42,6)"/>
<path d="M0 0 C1.17046875 0.03609375 2.3409375 0.0721875 3.546875 0.109375 C4.43890625 0.15578125 5.3309375 0.2021875 6.25 0.25 C6.25 1.9 6.25 3.55 6.25 5.25 C8.23 5.25 10.21 5.25 12.25 5.25 C12.25 8.55 12.25 11.85 12.25 15.25 C13.57 15.25 14.89 15.25 16.25 15.25 C16.25 11.95 16.25 8.65 16.25 5.25 C18.23 5.25 20.21 5.25 22.25 5.25 C22.25 10.53 22.25 15.81 22.25 21.25 C12.2890625 21.4453125 12.2890625 21.4453125 9.25 21.25 C8.59 20.59 7.93 19.93 7.25 19.25 C6.59 19.91 5.93 20.57 5.25 21.25 C2.5703125 21.5859375 2.5703125 21.5859375 -0.625 21.625 C-2.19894531 21.66753906 -2.19894531 21.66753906 -3.8046875 21.7109375 C-6.75 21.25 -6.75 21.25 -9.1015625 19.6328125 C-11.25368339 16.52192685 -11.28448979 14.5093867 -11.25 10.75 C-11.26546875 9.06390625 -11.26546875 9.06390625 -11.28125 7.34375 C-10.75 4.25 -10.75 4.25 -9.140625 1.859375 C-5.94116955 -0.29450677 -3.82070671 -0.15282827 0 0 Z M0.6875 5.75 C-0.776875 5.915 -2.24125 6.08 -3.75 6.25 C-3.75 9.22 -3.75 12.19 -3.75 15.25 C-0.45 15.25 2.85 15.25 6.25 15.25 C6.25 11.95 6.25 8.65 6.25 5.25 C4.38734868 5.25 2.53629676 5.54168487 0.6875 5.75 Z " fill="#0C398E" transform="translate(109.75,32.75)"/>
<path d="M0 0 C1.65 0 3.3 0 5 0 C5.33 1.65 5.66 3.3 6 5 C6.66 5 7.32 5 8 5 C8.33 3.35 8.66 1.7 9 0 C10.98 0 12.96 0 15 0 C14.02541328 5.80165739 12.98746845 10.83982722 10 16 C8.35 16 6.7 16 5 16 C4.01 14.02 3.02 12.04 2 10 C1.01 10.495 1.01 10.495 0 11 C-0.65213292 13.02463255 -0.65213292 13.02463255 -1 15 C-2.32 14.67 -3.64 14.34 -5 14 C-5.99 10.04 -6.98 6.08 -8 2 C-6.35 1.67 -4.7 1.34 -3 1 C-2.67 1.99 -2.34 2.98 -2 4 C-1.34 2.68 -0.68 1.36 0 0 Z " fill="#0B3A93" transform="translate(213,38)"/>
<path d="M0 0 C1.09054688 0.02320313 2.18109375 0.04640625 3.3046875 0.0703125 C4.40039062 0.08835938 5.49609375 0.10640625 6.625 0.125 C7.46804687 0.14820313 8.31109375 0.17140625 9.1796875 0.1953125 C9.1384375 1.1440625 9.0971875 2.0928125 9.0546875 3.0703125 C8.82994932 6.29776106 8.82994932 6.29776106 11.1796875 8.1953125 C11.53463674 10.96391658 11.65382787 12.52993552 10.0078125 14.83984375 C7.48015687 16.71398158 5.72978398 16.52820455 2.6171875 16.4453125 C1.64652344 16.42984375 0.67585937 16.414375 -0.32421875 16.3984375 C-2.8203125 16.1953125 -2.8203125 16.1953125 -4.8203125 15.1953125 C-4.8203125 12.86197917 -4.8203125 10.52864583 -4.8203125 8.1953125 C-4.8615625 7.2053125 -4.9028125 6.2153125 -4.9453125 5.1953125 C-4.77745293 1.16668276 -4.04146824 0.27988007 0 0 Z " fill="#113D8D" transform="translate(137.8203125,37.8046875)"/>
<path d="M0 0 C0.98120464 3.05263664 0.98120464 4.94736336 0 8 C0.66 8.33 1.32 8.66 2 9 C2.27195648 11.93612278 2.39632225 13.46751117 0.6015625 15.87890625 C-8.21975308 23.39271458 -16.51585914 25.60535598 -28 26 C-28.33 25.34 -28.66 24.68 -29 24 C-28.01 23.64808594 -27.02 23.29617187 -26 22.93359375 C-14.03831268 18.52785199 -6.62848475 13.86088417 -1 2 C-0.67 1.34 -0.34 0.68 0 0 Z " fill="#240CCA" transform="translate(71,57)"/>
<path d="M0 0 C1.17046875 0.03609375 2.3409375 0.0721875 3.546875 0.109375 C4.43890625 0.15578125 5.3309375 0.2021875 6.25 0.25 C6.292721 1.91611905 6.29063832 3.58382885 6.25 5.25 C5.25 6.25 5.25 6.25 3.18359375 6.34765625 C2.35988281 6.33605469 1.53617188 6.32445312 0.6875 6.3125 C-0.13878906 6.30347656 -0.96507813 6.29445313 -1.81640625 6.28515625 C-2.45449219 6.27355469 -3.09257813 6.26195312 -3.75 6.25 C-3.75 8.56 -3.75 10.87 -3.75 13.25 C-4.41 13.25 -5.07 13.25 -5.75 13.25 C-5.73839844 12.61191406 -5.72679688 11.97382812 -5.71484375 11.31640625 C-5.70582031 10.49011719 -5.69679688 9.66382813 -5.6875 8.8125 C-5.67009766 7.57693359 -5.67009766 7.57693359 -5.65234375 6.31640625 C-5.51732652 4.25836062 -5.51732652 4.25836062 -6.75 3.25 C-7.72403725 6.51225174 -7.88415799 9.47738661 -7.875 12.875 C-7.87757812 13.83664063 -7.88015625 14.79828125 -7.8828125 15.7890625 C-7.91361083 18.25474769 -7.91361083 18.25474769 -6.75 20.25 C-7.74 19.92 -8.73 19.59 -9.75 19.25 C-11.15603618 16.43792765 -10.99557505 14.00990534 -11.0625 10.875 C-11.09988281 9.73289062 -11.13726562 8.59078125 -11.17578125 7.4140625 C-10.75 4.25 -10.75 4.25 -9.15234375 1.8515625 C-5.94452436 -0.28698376 -3.82015109 -0.15280604 0 0 Z " fill="#0C3783" transform="translate(109.75,32.75)"/>
<path d="M0 0 C0.66 0.99 1.32 1.98 2 3 C2.99 2.34 3.98 1.68 5 1 C5.99 1 6.98 1 8 1 C12.57142857 8.28571429 12.57142857 8.28571429 12 13 C11.34 13 10.68 13 10 13 C9.34 11.35 8.68 9.7 8 8 C5.9837767 8.71563266 5.9837767 8.71563266 4 10 C3.19471111 12.05000871 3.19471111 12.05000871 3 14 C1.68 13.67 0.36 13.34 -1 13 C-1.99 9.04 -2.98 5.08 -4 1 C-2.68 0.67 -1.36 0.34 0 0 Z " fill="#0642AB" transform="translate(209,39)"/>
<path d="M0 0 C0.9583374 0.00523682 1.9166748 0.01047363 2.90405273 0.01586914 C4.45576172 0.02070312 4.45576172 0.02070312 6.03881836 0.02563477 C7.12743164 0.03401367 8.21604492 0.04239258 9.33764648 0.05102539 C10.97636719 0.05779297 10.97636719 0.05779297 12.64819336 0.06469727 C15.35723144 0.07652713 18.06616248 0.09300996 20.77514648 0.11352539 C20.44514648 1.43352539 20.11514648 2.75352539 19.77514648 4.11352539 C19.28014648 3.12352539 19.28014648 3.12352539 18.77514648 2.11352539 C6.81281158 1.48071962 6.81281158 1.48071962 -3.59985352 6.05102539 C-4.04071289 6.57567383 -4.48157227 7.10032227 -4.93579102 7.64086914 C-7.35885722 10.40903872 -9.63217589 11.04767232 -13.24829102 11.44946289 C-24.3410155 11.57874872 -24.3410155 11.57874872 -29.22485352 7.11352539 C-28.89485352 6.12352539 -28.56485352 5.13352539 -28.22485352 4.11352539 C-27.56485352 4.11352539 -26.90485352 4.11352539 -26.22485352 4.11352539 C-25.89485352 5.10352539 -25.56485352 6.09352539 -25.22485352 7.11352539 C-22.41987528 8.51601451 -20.03983987 8.28331595 -16.91235352 8.30102539 C-15.7818457 8.31520508 -14.65133789 8.32938477 -13.48657227 8.34399414 C-10.25094424 8.11536893 -8.07864636 7.63073172 -5.22485352 6.11352539 C-3.92824918 3.62318153 -3.92824918 3.62318153 -3.22485352 1.11352539 C-2.22485352 0.11352539 -2.22485352 0.11352539 0 0 Z " fill="#2910C7" transform="translate(53.224853515625,52.886474609375)"/>
<path d="M0 0 C7.97767194 -0.5555052 14.83637958 0.2382285 22 4 C24.31640625 6.140625 24.31640625 6.140625 26 8 C23.69 7.67 21.38 7.34 19 7 C20.65 8.98 22.3 10.96 24 13 C23.67 13.66 23.34 14.32 23 15 C22.5153125 14.54109375 22.030625 14.0821875 21.53125 13.609375 C16.97268907 9.43653846 12.66862457 6.43424037 7 4 C6.32066406 3.7009375 5.64132813 3.401875 4.94140625 3.09375 C3.30075992 2.38071256 1.65128703 1.68803626 0 1 C0 0.67 0 0.34 0 0 Z " fill="#2B16BD" transform="translate(42,6)"/>
<path d="M0 0 C3.3 0 6.6 0 10 0 C9.979375 0.969375 9.95875 1.93875 9.9375 2.9375 C9.64381501 5.87465895 9.64381501 5.87465895 11 7 C11.04063832 8.66617115 11.042721 10.33388095 11 12 C9.35 12.33 7.7 12.66 6 13 C5.773125 12.195625 5.54625 11.39125 5.3125 10.5625 C4.879375 9.716875 4.44625 8.87125 4 8 C1.45224694 7.10613836 1.45224694 7.10613836 -1 7 C-0.67 4.69 -0.34 2.38 0 0 Z " fill="#043FA7" transform="translate(136,39)"/>
<path d="M0 0 C1.98 0.495 1.98 0.495 4 1 C4.33 2.65 4.66 4.3 5 6 C5.61875 5.01 6.2375 4.02 6.875 3 C7.57625 2.01 8.2775 1.02 9 0 C9.66 0 10.32 0 11 0 C12.03159626 3.09478879 11.97482862 4.52631393 11.5625 7.6875 C11.46066406 8.49574219 11.35882813 9.30398437 11.25390625 10.13671875 C11.17011719 10.75160156 11.08632812 11.36648437 11 12 C10.34 12 9.68 12 9 12 C8.67 11.01 8.34 10.02 8 9 C7.67 9.99 7.34 10.98 7 12 C6.01 12 5.02 12 4 12 C3.67 11.34 3.34 10.68 3 10 C2.67 10.66 2.34 11.32 2 12 C1.01 11.67 0.02 11.34 -1 11 C-1.0270043 9.54176788 -1.04639787 8.08339325 -1.0625 6.625 C-1.07410156 5.81289063 -1.08570313 5.00078125 -1.09765625 4.1640625 C-1 2 -1 2 0 0 Z " fill="#32353F" transform="translate(150,58)"/>
<path d="M0 0 C3.96 0.33 7.92 0.66 12 1 C12.33 2.65 12.66 4.3 13 6 C12 7 12 7 10.15234375 7.09765625 C8.1015625 7.06510417 6.05078125 7.03255208 4 7 C4 8.32 4 9.64 4 11 C2.35 11.33 0.7 11.66 -1 12 C-0.67 8.04 -0.34 4.08 0 0 Z " fill="#0643A7" transform="translate(163,40)"/>
<path d="M0 0 C1.65322266 0.01740234 1.65322266 0.01740234 3.33984375 0.03515625 C4.99693359 0.04869141 4.99693359 0.04869141 6.6875 0.0625 C7.54214844 0.07410156 8.39679688 0.08570313 9.27734375 0.09765625 C9.30442942 1.70172953 9.32377858 3.30593475 9.33984375 4.91015625 C9.35144531 5.80347656 9.36304688 6.69679688 9.375 7.6171875 C9.27734375 10.09765625 9.27734375 10.09765625 8.27734375 13.09765625 C0.84877232 14.38337054 0.84877232 14.38337054 -2.72265625 13.09765625 C-2.72265625 12.43765625 -2.72265625 11.77765625 -2.72265625 11.09765625 C-0.08265625 10.76765625 2.55734375 10.43765625 5.27734375 10.09765625 C5.60734375 7.78765625 5.93734375 5.47765625 6.27734375 3.09765625 C3.96734375 3.42765625 1.65734375 3.75765625 -0.72265625 4.09765625 C-1.05265625 5.74765625 -1.38265625 7.39765625 -1.72265625 9.09765625 C-2.38265625 9.09765625 -3.04265625 9.09765625 -3.72265625 9.09765625 C-3.8203125 2.9453125 -3.8203125 2.9453125 -3.72265625 1.09765625 C-2.72265625 0.09765625 -2.72265625 0.09765625 0 0 Z " fill="#063EA5" transform="translate(192.72265625,38.90234375)"/>
<path d="M0 0 C0.66 0.33 1.32 0.66 2 1 C1.67 3.97 1.34 6.94 1 10 C1.66 10 2.32 10 3 10 C3 10.66 3 11.32 3 12 C5.97 12.33 8.94 12.66 12 13 C11.67 14.32 11.34 15.64 11 17 C9.20866022 17.05391993 7.41686101 17.09275571 5.625 17.125 C4.62726563 17.14820312 3.62953125 17.17140625 2.6015625 17.1953125 C0 17 0 17 -2 15 C-2.265625 12.5390625 -2.265625 12.5390625 -2.25 9.625 C-2.25515625 8.66851562 -2.2603125 7.71203125 -2.265625 6.7265625 C-1.99896864 3.98941342 -1.39742087 2.34012543 0 0 Z " fill="#043BA0" transform="translate(103,36)"/>
<path d="M0 0 C6 0 6 0 8 1 C8.4140625 3.50390625 8.4140625 3.50390625 8.625 6.5625 C8.69976562 7.57441406 8.77453125 8.58632812 8.8515625 9.62890625 C8.90054688 10.41136719 8.94953125 11.19382812 9 12 C8.01 12 7.02 12 6 12 C5.67 11.01 5.34 10.02 5 9 C4.34 8.67 3.68 8.34 3 8 C3 9.32 3 10.64 3 12 C2.01 12 1.02 12 0 12 C0 8.04 0 4.08 0 0 Z M3 3 C3 3.66 3 4.32 3 5 C3.99 5 4.98 5 6 5 C6 4.34 6 3.68 6 3 C5.01 3 4.02 3 3 3 Z " fill="#30323B" transform="translate(139,58)"/>
<path d="M0 0 C1.98 0 3.96 0 6 0 C6.18451025 9.41002278 6.18451025 9.41002278 5 14 C3.35 13.67 1.7 13.34 0 13 C0 8.71 0 4.42 0 0 Z " fill="#073D9E" transform="translate(126,38)"/>
<path d="M0 0 C0.99 0 1.98 0 3 0 C4.32229189 2.64458379 4.09677194 4.67761301 4.0625 7.625 C4.05347656 8.62789062 4.04445312 9.63078125 4.03515625 10.6640625 C4.02355469 11.43492188 4.01195312 12.20578125 4 13 C4.66 13 5.32 13 6 13 C6 13.66 6 14.32 6 15 C6.66 15.33 7.32 15.66 8 16 C7.34 16.66 6.68 17.32 6 18 C3 18 3 18 1.32421875 16.98046875 C-0.70738501 13.94205251 -0.31563137 10.83118442 -0.1875 7.3125 C-0.17396484 6.61060547 -0.16042969 5.90871094 -0.14648438 5.18554688 C-0.11120182 3.45670171 -0.05739583 1.72825235 0 0 Z " fill="#0642A7" transform="translate(179,35)"/>
<path d="M0 0 C6 0 6 0 8 1 C7.979375 2.0725 7.95875 3.145 7.9375 4.25 C7.9857984 7.14790424 8.13155885 9.28612141 9 12 C8.01 12 7.02 12 6 12 C5.67 11.01 5.34 10.02 5 9 C4.34 9 3.68 9 3 9 C2.67 9.99 2.34 10.98 2 12 C1.34 12 0.68 12 0 12 C0 8.04 0 4.08 0 0 Z M3 3 C2.67 3.66 2.34 4.32 2 5 C3.32 5 4.64 5 6 5 C6 4.34 6 3.68 6 3 C5.01 3 4.02 3 3 3 Z " fill="#30323E" transform="translate(180,58)"/>
<path d="M0 0 C2.64 0.66 5.28 1.32 8 2 C8 2.99 8 3.98 8 5 C9.32 5.33 10.64 5.66 12 6 C13.125 9.75 13.125 9.75 12 12 C12.66 12 13.32 12 14 12 C13.67 12.99 13.34 13.98 13 15 C12.01 14.67 11.02 14.34 10 14 C8.8125 11.4375 8.8125 11.4375 8 9 C7.34 9 6.68 9 6 9 C4.4921875 7.03125 4.4921875 7.03125 2.875 4.5 C2.33617187 3.6646875 1.79734375 2.829375 1.2421875 1.96875 C0.83226562 1.3190625 0.42234375 0.669375 0 0 Z " fill="#2A04F3" transform="translate(60,12)"/>
<path d="M0 0 C1.134375 0.020625 2.26875 0.04125 3.4375 0.0625 C3.4375 1.0525 3.4375 2.0425 3.4375 3.0625 C1.7875 3.0625 0.1375 3.0625 -1.5625 3.0625 C-1.5625 3.7225 -1.5625 4.3825 -1.5625 5.0625 C0.0875 5.0625 1.7375 5.0625 3.4375 5.0625 C3.4375 5.7225 3.4375 6.3825 3.4375 7.0625 C1.7875 7.0625 0.1375 7.0625 -1.5625 7.0625 C-1.5625 8.0525 -1.5625 9.0425 -1.5625 10.0625 C0.4175 10.0625 2.3975 10.0625 4.4375 10.0625 C4.4375 10.7225 4.4375 11.3825 4.4375 12.0625 C-1.71484375 12.16015625 -1.71484375 12.16015625 -3.5625 12.0625 C-4.5625 11.0625 -4.5625 11.0625 -4.6953125 8.8125 C-4.69273437 7.905 -4.69015625 6.9975 -4.6875 6.0625 C-4.69007813 5.155 -4.69265625 4.2475 -4.6953125 3.3125 C-4.47442744 -0.42955275 -3.90581879 0.06852314 0 0 Z " fill="#2D2F3A" transform="translate(174.5625,57.9375)"/>
<path d="M0 0 C0.33 0.66 0.66 1.32 1 2 C0.67 2.66 0.34 3.32 0 4 C1.98 3.67 3.96 3.34 6 3 C2.76034373 6.95957988 -1.1029654 7.7867956 -6.05859375 8.34375 C-9.03790601 8.59641252 -12.01569414 8.81649899 -15 9 C-15.33 8.34 -15.66 7.68 -16 7 C-14.92878906 6.57847656 -13.85757813 6.15695313 -12.75390625 5.72265625 C-11.35671698 5.16940681 -9.95958449 4.61601398 -8.5625 4.0625 C-7.50192383 3.64581055 -7.50192383 3.64581055 -6.41992188 3.22070312 C-2.95326119 2.03777966 -2.95326119 2.03777966 0 0 Z " fill="#2416B9" transform="translate(58,74)"/>
<path d="M0 0 C0.33 0 0.66 0 1 0 C1.3690205 10.55808656 1.3690205 10.55808656 -1 15 C-0.34 15 0.32 15 1 15 C1.66 18.63 2.32 22.26 3 26 C-1.50385321 21.03023094 -4.10788012 16.12852338 -3.875 9.375 C-2.98155988 5.92887384 -1.73835702 3.09881035 0 0 Z " fill="#280DCA" transform="translate(20,33)"/>
<path d="M0 0 C1.98 0 3.96 0 6 0 C6 3.3 6 6.6 6 10 C5.67 10 5.34 10 5 10 C5 7.69 5 5.38 5 3 C4.01 3 3.02 3 2 3 C2.03480469 3.77085938 2.06960937 4.54171875 2.10546875 5.3359375 C2.13253906 6.33882812 2.15960938 7.34171875 2.1875 8.375 C2.22230469 9.37273438 2.25710937 10.37046875 2.29296875 11.3984375 C2.19628906 12.25695313 2.09960938 13.11546875 2 14 C-1.52679099 16.35119399 -3.02879485 16.21443452 -7.1875 16.125 C-8.27417969 16.10695313 -9.36085938 16.08890625 -10.48046875 16.0703125 C-11.72763672 16.03550781 -11.72763672 16.03550781 -13 16 C-13 15.67 -13 15.34 -13 15 C-7.555 14.505 -7.555 14.505 -2 14 C-1.67 13.01 -1.34 12.02 -1 11 C-3.31 11 -5.62 11 -8 11 C-8 10.67 -8 10.34 -8 10 C-5.36 10 -2.72 10 0 10 C0 6.7 0 3.4 0 0 Z " fill="#0E3885" transform="translate(116,38)"/>
<path d="M0 0 C2.33944736 0.28730055 4.6739143 0.61936779 7 1 C7.625 3.375 7.625 3.375 8 6 C7.34 6.66 6.68 7.32 6 8 C4.68 8 3.36 8 2 8 C2 9.32 2 10.64 2 12 C1.34 12 0.68 12 0 12 C-0.19401633 10.18818595 -0.38004375 8.37551468 -0.5625 6.5625 C-0.66691406 5.55316406 -0.77132812 4.54382812 -0.87890625 3.50390625 C-0.91886719 2.67761719 -0.95882812 1.85132813 -1 1 C-0.67 0.67 -0.34 0.34 0 0 Z M3 3 C2.67 3.99 2.34 4.98 2 6 C2.99 5.67 3.98 5.34 5 5 C4.34 4.34 3.68 3.68 3 3 Z " fill="#3A3E47" transform="translate(191,58)"/>
<path d="M0 0 C0 0.33 0 0.66 0 1 C-0.77085938 0.97679687 -1.54171875 0.95359375 -2.3359375 0.9296875 C-3.84027344 0.90261719 -3.84027344 0.90261719 -5.375 0.875 C-6.37273438 0.85179687 -7.37046875 0.82859375 -8.3984375 0.8046875 C-11.16262173 0.72783152 -11.16262173 0.72783152 -13 3 C-15.0234375 3.30859375 -15.0234375 3.30859375 -17.375 3.4375 C-21.08841294 3.76040547 -23.27573597 4.27573597 -26 7 C-24.95274189 3.74186367 -23.42983232 2.46393823 -20.5625 0.8125 C-13.43375516 -2.81440527 -7.37822101 -2.9512884 0 0 Z " fill="#2B13CB" transform="translate(47,26)"/>
<path d="M0 0 C0.928125 0.20625 1.85625 0.4125 2.8125 0.625 C2.8125 1.615 2.8125 2.605 2.8125 3.625 C-0.1575 3.13 -0.1575 3.13 -3.1875 2.625 C-3.1875 4.935 -3.1875 7.245 -3.1875 9.625 C-1.8675 9.625 -0.5475 9.625 0.8125 9.625 C0.8125 8.965 0.8125 8.305 0.8125 7.625 C1.4725 7.625 2.1325 7.625 2.8125 7.625 C2.4825 8.945 2.1525 10.265 1.8125 11.625 C-1.0625 11.75 -1.0625 11.75 -4.1875 11.625 C-6.51278287 9.29971713 -6.48261025 8.77834102 -6.5 5.625 C-6.51675781 4.92375 -6.53351563 4.2225 -6.55078125 3.5 C-6.43089844 2.88125 -6.31101562 2.2625 -6.1875 1.625 C-3.1875 -0.375 -3.1875 -0.375 0 0 Z " fill="#38353D" transform="translate(134.1875,58.375)"/>
<path d="M0 0 C11.99846408 0.21049937 11.99846408 0.21049937 15.1875 3.4375 C17 6 17 6 18 8 C17.01 8 16.02 8 15 8 C15 7.01 15 6.02 15 5 C14.01 5 13.02 5 12 5 C12 4.34 12 3.68 12 3 C8.7 3.66 5.4 4.32 2 5 C1.34 3.35 0.68 1.7 0 0 Z " fill="#2B06F2" transform="translate(36,26)"/>
<path d="M0 0 C3.3 0 6.6 0 10 0 C10 1.65 10 3.3 10 5 C7.03 5 4.06 5 1 5 C1 7.31 1 9.62 1 12 C0.34 12 -0.32 12 -1 12 C-1 9.36 -1 6.72 -1 4 C2.465 3.505 2.465 3.505 6 3 C6 2.34 6 1.68 6 1 C4.02 1 2.04 1 0 1 C0 0.67 0 0.34 0 0 Z " fill="#05388C" transform="translate(105,34)"/>
<path d="M0 0 C5.22179824 0.54966297 10.02984035 1.2756589 15 3 C15.33 3.66 15.66 4.32 16 5 C13.69 4.67 11.38 4.34 9 4 C11.475 6.97 11.475 6.97 14 10 C13.67 10.66 13.34 11.32 13 12 C12.44570312 11.50628906 11.89140625 11.01257812 11.3203125 10.50390625 C10.59585938 9.86324219 9.87140625 9.22257812 9.125 8.5625 C8.40570313 7.92441406 7.68640625 7.28632813 6.9453125 6.62890625 C5.09249509 4.94985535 5.09249509 4.94985535 3 4 C3 3.01 3 2.02 3 1 C2.01 0.67 1.02 0.34 0 0 Z " fill="#250CD8" transform="translate(52,9)"/>
<path d="M0 0 C1.20366211 0.00483398 1.20366211 0.00483398 2.43164062 0.00976562 C3.68170898 0.02233398 3.68170898 0.02233398 4.95703125 0.03515625 C5.80201172 0.03966797 6.64699219 0.04417969 7.51757812 0.04882812 C9.6015928 0.06060222 11.68557102 0.07853735 13.76953125 0.09765625 C13.43953125 1.41765625 13.10953125 2.73765625 12.76953125 4.09765625 C12.43953125 3.43765625 12.10953125 2.77765625 11.76953125 2.09765625 C2.36453125 2.59265625 2.36453125 2.59265625 -7.23046875 3.09765625 C-7.23046875 2.43765625 -7.23046875 1.77765625 -7.23046875 1.09765625 C-4.46481493 0.17577164 -2.84763173 -0.02019597 0 0 Z " fill="#3519BD" transform="translate(60.23046875,52.90234375)"/>
<path d="M0 0 C0.66 0.33 1.32 0.66 2 1 C1.67 3.97 1.34 6.94 1 10 C1.66 10.33 2.32 10.66 3 11 C2.34 12.32 1.68 13.64 1 15 C0.01 14.67 -0.98 14.34 -2 14 C-2.05437607 12.41705218 -2.09296271 10.83355744 -2.125 9.25 C-2.14820312 8.36828125 -2.17140625 7.4865625 -2.1953125 6.578125 C-1.99139502 3.8864142 -1.36551721 2.30095026 0 0 Z " fill="#0241AC" transform="translate(103,36)"/>
<path d="M0 0 C1.98 0.495 1.98 0.495 4 1 C3.34 4.63 2.68 8.26 2 12 C1.01 11.67 0.02 11.34 -1 11 C-1.0270043 9.54176788 -1.04639787 8.08339325 -1.0625 6.625 C-1.07410156 5.81289063 -1.08570313 5.00078125 -1.09765625 4.1640625 C-1 2 -1 2 0 0 Z " fill="#262D3B" transform="translate(150,58)"/>
<path d="M0 0 C1.32 0.33 2.64 0.66 4 1 C3.67 1.99 3.34 2.98 3 4 C1.02 4.33 -0.96 4.66 -3 5 C-2.01 6.485 -2.01 6.485 -1 8 C-0.5859375 10.48046875 -0.5859375 10.48046875 -0.375 13.1875 C-0.30023438 14.08855469 -0.22546875 14.98960938 -0.1484375 15.91796875 C-0.09945312 16.60503906 -0.05046875 17.29210937 0 18 C-0.66 17.67 -1.32 17.34 -2 17 C-2.29535506 15.03096629 -2.58172087 13.05916424 -2.78125 11.078125 C-3.03359311 8.68086542 -3.48512606 6.35370943 -4 4 C-3.34 4 -2.68 4 -2 4 C-1.34 2.68 -0.68 1.36 0 0 Z " fill="#0F3985" transform="translate(152,34)"/>
<path d="M0 0 C2.125 0.375 2.125 0.375 4 1 C4 1.66 4 2.32 4 3 C2.68 3 1.36 3 0 3 C-0.33 4.32 -0.66 5.64 -1 7 C-2.98 7.33 -4.96 7.66 -7 8 C-6.67 6.35 -6.34 4.7 -6 3 C-5.38125 2.87625 -4.7625 2.7525 -4.125 2.625 C-1.80879168 2.12802644 -1.80879168 2.12802644 0 0 Z " fill="#2007E9" transform="translate(65,70)"/>
<path d="M0 0 C0.99 0 1.98 0 3 0 C2.00956295 4.83628305 1.04301154 9.47618873 -1 14 C-1.66 14 -2.32 14 -3 14 C-2.40380045 9.13103697 -1.43023178 4.67209049 0 0 Z " fill="#34343B" transform="translate(166,58)"/>
<path d="M0 0 C1.75 1.25 1.75 1.25 3 3 C3 3.99 3 4.98 3 6 C1.68 6.33 0.36 6.66 -1 7 C-1.33 8.32 -1.66 9.64 -2 11 C-2.66 7.7 -3.32 4.4 -4 1 C-2.68 0.67 -1.36 0.34 0 0 Z " fill="#0A3BA0" transform="translate(209,39)"/>
<path d="M0 0 C4.29 0 8.58 0 13 0 C13 0.66 13 1.32 13 2 C11.20994059 2.36220266 9.41787943 2.71452469 7.625 3.0625 C6.12839844 3.35833984 6.12839844 3.35833984 4.6015625 3.66015625 C2 4 2 4 0 3 C0 2.01 0 1.02 0 0 Z " fill="#033FA3" transform="translate(163,35)"/>
<path d="M0 0 C2.31 0 4.62 0 7 0 C7.38218767 1.65614657 7.71395102 3.32457024 8 5 C7 6 7 6 3.9375 6.0625 C2.968125 6.041875 1.99875 6.02125 1 6 C1.99 5.34 2.98 4.68 4 4 C4 3.34 4 2.68 4 2 C2.68 1.67 1.36 1.34 0 1 C0 0.67 0 0.34 0 0 Z " fill="#113F85" transform="translate(168,41)"/>
<path d="M0 0 C5.75 -0.125 5.75 -0.125 8 1 C8 2.65 8 4.3 8 6 C7.34 5.67 6.68 5.34 6 5 C6 4.34 6 3.68 6 3 C4.02 3.33 2.04 3.66 0 4 C0 2.68 0 1.36 0 0 Z " fill="#23293E" transform="translate(180,58)"/>
<path d="M0 0 C0.99 0 1.98 0 3 0 C3.33 2.97 3.66 5.94 4 9 C3.01 9.33 2.02 9.66 1 10 C-0.1577506 6.52674819 -0.06866652 3.63932552 0 0 Z " fill="#0442AD" transform="translate(118,41)"/>
<path d="M0 0 C0.928125 0.20625 1.85625 0.4125 2.8125 0.625 C2.8125 1.615 2.8125 2.605 2.8125 3.625 C-0.1575 3.13 -0.1575 3.13 -3.1875 2.625 C-3.1875 3.285 -3.1875 3.945 -3.1875 4.625 C-3.8475 4.625 -4.5075 4.625 -5.1875 4.625 C-5.5175 3.635 -5.8475 2.645 -6.1875 1.625 C-3.1875 -0.375 -3.1875 -0.375 0 0 Z " fill="#262742" transform="translate(134.1875,58.375)"/>
<path d="M0 0 C0.33 0 0.66 0 1 0 C1 3.63 1 7.26 1 11 C1.99 11.33 2.98 11.66 4 12 C4 12.66 4 13.32 4 14 C5.65 13.34 7.3 12.68 9 12 C8.67 12.99 8.34 13.98 8 15 C3.5331992 15.36217304 3.5331992 15.36217304 1.34375 13.875 C-0.59481574 11.17002455 -0.2934299 9.09632677 -0.1875 5.8125 C-0.16042969 4.72582031 -0.13335937 3.63914063 -0.10546875 2.51953125 C-0.07066406 1.68808594 -0.03585938 0.85664062 0 0 Z " fill="#123478" transform="translate(178,39)"/>
<path d="M0 0 C0 1.65 0 3.3 0 5 C-1.65 4.67 -3.3 4.34 -5 4 C-5.33 5.32 -5.66 6.64 -6 8 C-6.66 8 -7.32 8 -8 8 C-7.4376049 4.73810844 -6.5859495 3.08865152 -4 1 C-1 0 -1 0 0 0 Z " fill="#2405ED" transform="translate(29,28)"/>
<path d="M0 0 C3.1489715 1.36911804 5.0478487 2.8752136 7.25 5.5 C8.03117187 6.41265625 8.03117187 6.41265625 8.828125 7.34375 C10 9 10 9 10 11 C9.01 11 8.02 11 7 11 C6.773125 10.236875 6.54625 9.47375 6.3125 8.6875 C4.72379184 5.4344309 3.06468356 4.77429048 0 3 C0 2.01 0 1.02 0 0 Z " fill="#2C14BF" transform="translate(68,14)"/>
<path d="M0 0 C1.77049689 -0.05410687 3.54146849 -0.09284119 5.3125 -0.125 C6.29863281 -0.14820313 7.28476562 -0.17140625 8.30078125 -0.1953125 C11 0 11 0 14 2 C11.69 1.67 9.38 1.34 7 1 C7 1.66 7 2.32 7 3 C4.0625 2.625 4.0625 2.625 1 2 C0.67 1.34 0.34 0.68 0 0 Z " fill="#2D2193" transform="translate(42,6)"/>
<path d="M0 0 C2.70931419 0.15481795 4.46584039 0.48172081 6.4453125 2.40234375 C7.67679642 3.89771708 8.8429837 5.4462924 10 7 C9.67 7.66 9.34 8.32 9 9 C7.49704815 7.69088122 5.99770689 6.37761608 4.5 5.0625 C3.6646875 4.33160156 2.829375 3.60070312 1.96875 2.84765625 C1.3190625 2.23792969 0.669375 1.62820313 0 1 C0 0.67 0 0.34 0 0 Z " fill="#2913B9" transform="translate(56,12)"/>
<path d="M0 0 C1.98 0 3.96 0 6 0 C6.33 1.32 6.66 2.64 7 4 C5.02 4 3.04 4 1 4 C0.67 2.68 0.34 1.36 0 0 Z " fill="#24394C" transform="translate(139,58)"/>
<path d="M0 0 C1.67542976 0.28604898 3.34385343 0.61781233 5 1 C5 2.32 5 3.64 5 5 C2.53199953 3.84826645 0.95216435 2.95216435 -1 1 C-0.67 0.67 -0.34 0.34 0 0 Z " fill="#353C4F" transform="translate(193,58)"/>
<path d="M0 0 C1.98 0.99 1.98 0.99 4 2 C3.67 3.65 3.34 5.3 3 7 C2.01 6.67 1.02 6.34 0 6 C0 4.02 0 2.04 0 0 Z " fill="#24252B" transform="translate(149,63)"/>
<path d="M0 0 C1.65 0 3.3 0 5 0 C5.33 1.32 5.66 2.64 6 4 C5.34 4 4.68 4 4 4 C4 3.34 4 2.68 4 2 C2.35 2.66 0.7 3.32 -1 4 C-0.67 2.68 -0.34 1.36 0 0 Z " fill="#103682" transform="translate(213,38)"/>
<path d="M0 0 C3.96 0 7.92 0 12 0 C12 0.33 12 0.66 12 1 C10.02 1 8.04 1 6 1 C6 1.66 6 2.32 6 3 C3.69 2.67 1.38 2.34 -1 2 C-0.67 1.34 -0.34 0.68 0 0 Z " fill="#053998" transform="translate(190,39)"/>
<path d="M0 0 C-1.1875 1.5625 -1.1875 1.5625 -3 3 C-5.6875 2.6875 -5.6875 2.6875 -8 2 C-5.44123378 -0.55876622 -3.37797483 -1.68898741 0 0 Z " fill="#262473" transform="translate(50,80)"/>
<path d="M0 0 C2.0625 0.4375 2.0625 0.4375 4 1 C4.33 2.65 4.66 4.3 5 6 C4.01 6 3.02 6 2 6 C1.67 5.01 1.34 4.02 1 3 C0.34 2.34 -0.32 1.68 -1 1 C-0.67 0.67 -0.34 0.34 0 0 Z " fill="#27272E" transform="translate(143,64)"/>
<path d="M0 0 C1.5 1.375 1.5 1.375 3 3 C3 3.66 3 4.32 3 5 C4.32 5.33 5.64 5.66 7 6 C7 6.33 7 6.66 7 7 C5.35 7 3.7 7 2 7 C0.5393715 4.35261084 0 3.10551666 0 0 Z " fill="#143F89" transform="translate(216,47)"/>
<path d="M0 0 C0.66 0.33 1.32 0.66 2 1 C2.625 3.0625 2.625 3.0625 3 5 C1.68 5.33 0.36 5.66 -1 6 C-1.042721 4.33388095 -1.04063832 2.66617115 -1 1 C-0.67 0.67 -0.34 0.34 0 0 Z " fill="#26323E" transform="translate(191,58)"/>
<path d="M0 0 C3.57104439 1.87949705 5.54744301 3.17053157 7 7 C6.01 7 5.02 7 4 7 C4 6.01 4 5.02 4 4 C3.01 4 2.02 4 1 4 C0.67 2.68 0.34 1.36 0 0 Z " fill="#260FBC" transform="translate(47,27)"/>
</svg>
