<?xml version="1.0" encoding="UTF-8"?>
<svg version="1.1" xmlns="http://www.w3.org/2000/svg" width="300" height="300">
<path d="M0 0 C99 0 198 0 300 0 C300 99 300 198 300 300 C201 300 102 300 0 300 C0 201 0 102 0 0 Z " fill="#FEFEFE" transform="translate(0,0)"/>
<path d="M0 0 C11.71214209 -0.66295144 21.49737416 3.24995428 31 10 C33.45371806 12.23815778 35.08989411 14.24095816 37 17 C37 17.99 37 18.98 37 20 C37.66 20 38.32 20 39 20 C44.04006121 30.41762652 44.71098025 42.20376484 42 53.4375 C39.91873856 59.18295413 36.1050782 63.56651554 32 68 C31.41476563 68.66257812 30.82953125 69.32515625 30.2265625 70.0078125 C23.97732886 76.3116246 14.76204652 79.40863207 6.03125 80.3046875 C3.5625 80.3125 3.5625 80.3125 0 80 C2.64433337 78.23711109 4.17059275 77.57596332 7.125 76.75 C17.14005499 73.48210056 24.64282244 66.81910777 29.875 57.75 C30.80513084 55.47634683 31.44102932 53.37816618 32 51 C28.75047252 50.85453217 25.50178287 50.7658832 22.25 50.6875 C21.32960937 50.64560547 20.40921875 50.60371094 19.4609375 50.56054688 C13.89941006 50.3384202 13.89941006 50.3384202 9.484375 53.41015625 C8.99453125 54.26480469 8.5046875 55.11945313 8 56 C2.93295008 60.43366868 -2.4231213 60.40340018 -8.953125 60.34765625 C-14.81785179 59.67847589 -18.3665433 56.6764424 -22.375 52.5625 C-26.10439299 46.68153413 -26.97089481 40.69560037 -25.5703125 33.921875 C-23.62917075 27.6431202 -19.62943214 24.25195044 -14.16796875 20.86328125 C-8.82880481 18.73723579 -1.77531499 18.88300016 3.5234375 21.015625 C6.7067368 22.98004018 9.51541083 25.19166133 12 28 C12 28.66 12 29.32 12 30 C18.93 30 25.86 30 33 30 C31.948125 27.793125 30.89625 25.58625 29.8125 23.3125 C29.3326062 22.28443237 29.3326062 22.28443237 28.84301758 21.2355957 C24.90942924 13.18765822 17.84470722 7.30469528 9.5234375 4.0234375 C8.00623887 3.53417801 6.48057852 3.06983916 4.9453125 2.640625 C3 2 3 2 0 0 Z " fill="#3107F7" transform="translate(64,110)"/>
<path d="M0 0 C-0.495 0.4125 -0.99 0.825 -1.5 1.25 C-3.43386092 3.12202338 -3.43386092 3.12202338 -3 7 C-3.66 7 -4.32 7 -5 7 C-5 7.99 -5 8.98 -5 10 C-4.01 10 -3.02 10 -2 10 C-1.67 9.01 -1.34 8.02 -1 7 C0.93681161 6.91892417 2.8745934 6.86077525 4.8125 6.8125 C5.89144531 6.77769531 6.97039062 6.74289063 8.08203125 6.70703125 C11 7 11 7 12.86328125 8.1953125 C14.36986904 10.58721477 14.39985684 12.24953398 14.375 15.0625 C14.38273437 15.94035156 14.39046875 16.81820312 14.3984375 17.72265625 C14.26695312 18.47417969 14.13546875 19.22570312 14 20 C10.72872414 22.18085057 9.72623277 22.24887859 5.9375 22.1875 C5.05964844 22.18105469 4.18179688 22.17460937 3.27734375 22.16796875 C1 22 1 22 -1 21 C-1 21.66 -1 22.32 -1 23 C-7.75 22.25 -7.75 22.25 -10 20 C-10.22705078 18.12060547 -10.22705078 18.12060547 -10.1953125 15.8671875 C-10.18886719 15.06152344 -10.18242187 14.25585938 -10.17578125 13.42578125 C-10.15064453 12.16314453 -10.15064453 12.16314453 -10.125 10.875 C-10.11597656 10.02550781 -10.10695312 9.17601562 -10.09765625 8.30078125 C-10.07405647 6.20040116 -10.03818483 4.10016556 -10 2 C-3.375 -1.125 -3.375 -1.125 0 0 Z " fill="#6248E8" transform="translate(223,121)"/>
<path d="M0 0 C0.66 0 1.32 0 2 0 C2 0.66 2 1.32 2 2 C2.928125 1.67 3.85625 1.34 4.8125 1 C9.80904873 -0.45989695 14.8433358 -0.16784802 20 0 C19.01 0.495 19.01 0.495 18 1 C18 1.66 18 2.32 18 3 C18.66 3.33 19.32 3.66 20 4 C19.34 4 18.68 4 18 4 C18 4.99 18 5.98 18 7 C19.98 5.35 21.96 3.7 24 2 C24 5.3 24 8.6 24 12 C23.67 12 23.34 12 23 12 C22.67 10.35 22.34 8.7 22 7 C21.01 8.65 20.02 10.3 19 12 C18.01 10.68 17.02 9.36 16 8 C15.34 9.65 14.68 11.3 14 13 C13.67 13 13.34 13 13 13 C12.505 8.05 12.505 8.05 12 3 C11.67 3 11.34 3 11 3 C11 4.65 11 6.3 11 8 C10.34 8 9.68 8 9 8 C9.66 9.65 10.32 11.3 11 13 C10.01 12.67 9.02 12.34 8 12 C8 11.01 8 10.02 8 9 C6.68 9 5.36 9 4 9 C3.67 9.99 3.34 10.98 3 12 C1.741875 12.185625 0.48375 12.37125 -0.8125 12.5625 C-1.87404297 12.71912109 -1.87404297 12.71912109 -2.95703125 12.87890625 C-5 13 -5 13 -8 12 C-9.38125018 9.23749964 -9.19079306 7.05268901 -9 4 C-7 2 -7 2 -3.375 1.875 C-1.704375 1.936875 -1.704375 1.936875 0 2 C0 1.34 0 0.68 0 0 Z " fill="#F0F3F2" transform="translate(170,152)"/>
<path d="M0 0 C1.04449911 3.13349732 0.93423645 3.98968256 0 7 C0.66 7 1.32 7 2 7 C2 5.35 2 3.7 2 2 C4.31 2 6.62 2 9 2 C9 1.34 9 0.68 9 0 C10.6256807 0.30893932 12.25052748 0.6222695 13.875 0.9375 C14.77992188 1.11152344 15.68484375 1.28554687 16.6171875 1.46484375 C19 2 19 2 21 3 C21 6.3 21 9.6 21 13 C20.01 12.67 19.02 12.34 18 12 C18 11.01 18 10.02 18 9 C16.68 9 15.36 9 14 9 C13.67 10.32 13.34 11.64 13 13 C9.7 13 6.4 13 3 13 C2.67 11.35 2.34 9.7 2 8 C1.01 8.495 1.01 8.495 0 9 C-0.33 9.99 -0.66 10.98 -1 12 C-1.66 12 -2.32 12 -3 12 C-3.33 12.66 -3.66 13.32 -4 14 C-3.00956295 9.16371695 -2.04301154 4.52381127 0 0 Z " fill="#ECF0F2" transform="translate(200,152)"/>
<path d="M0 0 C1.32 0 2.64 0 4 0 C4.66 1.98 5.32 3.96 6 6 C6.66 4.02 7.32 2.04 8 0 C9.65 0 11.3 0 13 0 C13.66 1.65 14.32 3.3 15 5 C15.4125 4.175 15.825 3.35 16.25 2.5 C17.11625 1.2625 17.11625 1.2625 18 0 C19.32 0 20.64 0 22 0 C21.40380045 4.86896303 20.43023178 9.32790951 19 14 C17.02 14 15.04 14 13 14 C12.67 11.69 12.34 9.38 12 7 C11.34 7 10.68 7 10 7 C9.67 9.31 9.34 11.62 9 14 C7.02 14 5.04 14 3 14 C-0.44419134 4.58997722 -0.44419134 4.58997722 0 0 Z " fill="#5539E2" transform="translate(239,129)"/>
<path d="M0 0 C-0.495 0.4125 -0.99 0.825 -1.5 1.25 C-3.43386092 3.12202338 -3.43386092 3.12202338 -3 7 C-3.66 7 -4.32 7 -5 7 C-5 7.99 -5 8.98 -5 10 C-4.01 10 -3.02 10 -2 10 C-1.67 9.01 -1.34 8.02 -1 7 C0.52634923 10.05269846 -0.16205556 12.75845689 -0.4375 16.125 C-0.53933594 17.40632813 -0.64117187 18.68765625 -0.74609375 20.0078125 C-0.82988281 20.99523437 -0.91367188 21.98265625 -1 23 C-7.75 22.25 -7.75 22.25 -10 20 C-10.22705078 18.12060547 -10.22705078 18.12060547 -10.1953125 15.8671875 C-10.18886719 15.06152344 -10.18242187 14.25585938 -10.17578125 13.42578125 C-10.15064453 12.16314453 -10.15064453 12.16314453 -10.125 10.875 C-10.11597656 10.02550781 -10.10695312 9.17601562 -10.09765625 8.30078125 C-10.07405647 6.20040116 -10.03818483 4.10016556 -10 2 C-3.375 -1.125 -3.375 -1.125 0 0 Z " fill="#FAF9F3" transform="translate(223,121)"/>
<path d="M0 0 C1.77503906 0.03480469 1.77503906 0.03480469 3.5859375 0.0703125 C5.36871094 0.09738281 5.36871094 0.09738281 7.1875 0.125 C8.10273438 0.14820312 9.01796875 0.17140625 9.9609375 0.1953125 C9.9609375 1.5153125 9.9609375 2.8353125 9.9609375 4.1953125 C6.6609375 4.1953125 3.3609375 4.1953125 -0.0390625 4.1953125 C-0.0390625 7.8253125 -0.0390625 11.4553125 -0.0390625 15.1953125 C3.2609375 15.1953125 6.5609375 15.1953125 9.9609375 15.1953125 C9.9609375 16.5153125 9.9609375 17.8353125 9.9609375 19.1953125 C7.83621174 19.24917879 5.71110098 19.28804321 3.5859375 19.3203125 C2.40257812 19.34351563 1.21921875 19.36671875 0 19.390625 C-3.0390625 19.1953125 -3.0390625 19.1953125 -5.0390625 17.1953125 C-5.23755321 14.64996109 -5.31758025 12.23814491 -5.2890625 9.6953125 C-5.29679688 9.00566406 -5.30453125 8.31601563 -5.3125 7.60546875 C-5.28417303 0.33959981 -5.28417303 0.33959981 0 0 Z " fill="#5033E5" transform="translate(137.0390625,123.8046875)"/>
<path d="M0 0 C0.66 0 1.32 0 2 0 C2.103125 0.639375 2.20625 1.27875 2.3125 1.9375 C2.6528125 2.9584375 2.6528125 2.9584375 3 4 C3.99 4.33 4.98 4.66 6 5 C5.11032656 6.08839774 4.21288426 7.17044608 3.3125 8.25 C2.81363281 8.85328125 2.31476563 9.4565625 1.80078125 10.078125 C-2.34570678 14.50344412 -6.51171118 16.9087874 -12.25 18.75 C-12.9087915 18.9668042 -13.56758301 19.1836084 -14.24633789 19.40698242 C-19.38739648 21.00808916 -23.66896745 21.46763443 -29 21 C-26.35566663 19.23711109 -24.82940725 18.57596332 -21.875 17.75 C-12.98841733 14.85031962 -6.59158318 9.38887777 -1 2 C-0.67 1.34 -0.34 0.68 0 0 Z " fill="#320DF2" transform="translate(93,169)"/>
<path d="M0 0 C1.65 0 3.3 0 5 0 C5 3.63 5 7.26 5 11 C6.65 11 8.3 11 10 11 C10 7.7 10 4.4 10 1 C11.65 1 13.3 1 15 1 C15 5.62 15 10.24 15 15 C5.0390625 15.29296875 5.0390625 15.29296875 2 15 C-0.35119399 11.47320901 -0.21443452 9.97120515 -0.125 5.8125 C-0.10695312 4.72582031 -0.08890625 3.63914063 -0.0703125 2.51953125 C-0.04710937 1.68808594 -0.02390625 0.85664063 0 0 Z " fill="#593EE1" transform="translate(149,128)"/>
<path d="M0 0 C3.96 0 7.92 0 12 0 C12 0.99 12 1.98 12 3 C9.36 3 6.72 3 4 3 C4 3.66 4 4.32 4 5 C5.670625 4.9690625 5.670625 4.9690625 7.375 4.9375 C11 5 11 5 13 6 C13.04241723 8.33294775 13.04092937 10.66702567 13 13 C12 14 12 14 9.05859375 14.09765625 C7.26615234 14.08025391 7.26615234 14.08025391 5.4375 14.0625 C3.64119141 14.04896484 3.64119141 14.04896484 1.80859375 14.03515625 C0.88175781 14.02355469 -0.04507813 14.01195312 -1 14 C-1 12.68 -1 11.36 -1 10 C-0.34 9.67 0.32 9.34 1 9 C0.34 8.01 -0.32 7.02 -1 6 C-0.625 2.8125 -0.625 2.8125 0 0 Z " fill="#664CEA" transform="translate(167,129)"/>
<path d="M0 0 C4.95 0 9.9 0 15 0 C15 1.32 15 2.64 15 4 C11.7 4 8.4 4 5 4 C5 5.32 5 6.64 5 8 C7.31 8 9.62 8 12 8 C12 9.32 12 10.64 12 12 C9.36 12 6.72 12 4 12 C4 14.31 4 16.62 4 19 C2.68 19 1.36 19 0 19 C0 12.73 0 6.46 0 0 Z " fill="#5234E9" transform="translate(196,124)"/>
<path d="M0 0 C11.49562798 -0.65069592 21.81076215 3.05134793 31 10 C32.84375 12.7265625 32.84375 12.7265625 34 15 C33.34 15.66 32.68 16.32 32 17 C31.71125 16.195625 31.4225 15.39125 31.125 14.5625 C30.26737432 11.8673532 30.26737432 11.8673532 28 11 C28 11.66 28 12.32 28 13 C28.66 13 29.32 13 30 13 C30.33 15.31 30.66 17.62 31 20 C27.99816464 18.92791594 27.06954798 18.11962253 25.4375 15.3125 C21.16920677 8.45634395 12.40157119 4.66697446 4.875 2.60546875 C3 2 3 2 0 0 Z " fill="#3D16F5" transform="translate(64,110)"/>
<path d="M0 0 C1.65 0 3.3 0 5 0 C5 1.32 5 2.64 5 4 C5.99 4 6.98 4 8 4 C8 4.99 8 5.98 8 7 C6.68 7 5.36 7 4 7 C4 9.31 4 11.62 4 14 C5.65 14 7.3 14 9 14 C9 15.32 9 16.64 9 18 C6.36 18 3.72 18 1 18 C-0.20272819 15.59454362 -0.10071472 14.05003047 -0.0625 11.375 C-0.05347656 10.55773437 -0.04445312 9.74046875 -0.03515625 8.8984375 C-0.02355469 8.27195313 -0.01195312 7.64546875 0 7 C-0.66 7 -1.32 7 -2 7 C-2 5.68 -2 4.36 -2 3 C-1.34 3 -0.68 3 0 3 C0 2.01 0 1.02 0 0 Z " fill="#563BE1" transform="translate(184,125)"/>
<path d="M0 0 C0.66 0 1.32 0 2 0 C2 3.63 2 7.26 2 11 C-2.32838824 13.16419412 -3.49742351 13.20068706 -8 12 C-9.38125018 9.23749964 -9.19079306 7.05268901 -9 4 C-7 2 -7 2 -3.375 1.875 C-1.704375 1.936875 -1.704375 1.936875 0 2 C0 1.34 0 0.68 0 0 Z " fill="#F4F8F7" transform="translate(170,152)"/>
<path d="M0 0 C3 1 3 1 5 4 C7.05003955 5.19232613 7.05003955 5.19232613 9 6 C9 6.99 9 7.98 9 9 C9.66 9 10.32 9 11 9 C12.12029814 14.48946087 11.79217969 17.83430559 10 23 C7.87953208 19.46588679 7.46800711 16.05606165 7 12 C6.34 13.65 5.68 15.3 5 17 C3.22293791 14.33440687 2.12451727 11.9719385 1 9 C1.66 9 2.32 9 3 9 C2.67 6.69 2.34 4.38 2 2 C1.34 2 0.68 2 0 2 C0 1.34 0 0.68 0 0 Z " fill="#3B13F3" transform="translate(92,121)"/>
<path d="M0 0 C3.3 0 6.6 0 10 0 C10.02694851 1.95825873 10.04637218 3.91662226 10.0625 5.875 C10.07410156 6.96554688 10.08570313 8.05609375 10.09765625 9.1796875 C10 12 10 12 9 14 C8.34 14 7.68 14 7 14 C6.67 12.68 6.34 11.36 6 10 C6 10.66 6 11.32 6 12 C3.525 11.01 3.525 11.01 1 10 C0.67 11.65 0.34 13.3 0 15 C-0.33 15 -0.66 15 -1 15 C-1 12.69 -1 10.38 -1 8 C1.64 8 4.28 8 7 8 C7 6.68 7 5.36 7 4 C4.69 4 2.38 4 0 4 C0 2.68 0 1.36 0 0 Z " fill="#F1EFF4" transform="translate(201,128)"/>
<path d="M0 0 C1.32 0 2.64 0 4 0 C4 4.95 4 9.9 4 15 C4.99 15 5.98 15 7 15 C7 16.32 7 17.64 7 19 C4.625 19.125 4.625 19.125 2 19 C0 17 0 17 -0.1953125 13.0859375 C-0.18200376 11.51550649 -0.15813602 9.94513779 -0.125 8.375 C-0.11597656 7.57320312 -0.10695312 6.77140625 -0.09765625 5.9453125 C-0.07406223 3.96341477 -0.03819065 1.98167019 0 0 Z " fill="#5036D4" transform="translate(213,124)"/>
<path d="M0 0 C1.77503906 0.03480469 1.77503906 0.03480469 3.5859375 0.0703125 C5.36871094 0.09738281 5.36871094 0.09738281 7.1875 0.125 C8.10273438 0.14820312 9.01796875 0.17140625 9.9609375 0.1953125 C9.9609375 1.5153125 9.9609375 2.8353125 9.9609375 4.1953125 C6.6609375 4.1953125 3.3609375 4.1953125 -0.0390625 4.1953125 C-0.0390625 7.8253125 -0.0390625 11.4553125 -0.0390625 15.1953125 C-0.3690625 15.1953125 -0.6990625 15.1953125 -1.0390625 15.1953125 C-1.0390625 11.2353125 -1.0390625 7.2753125 -1.0390625 3.1953125 C-2.24467434 4.17799109 -2.24467434 4.17799109 -2.13671875 6.04296875 C-2.12511719 6.77386719 -2.11351562 7.50476563 -2.1015625 8.2578125 C-2.0809375 9.5571875 -2.0603125 10.8565625 -2.0390625 12.1953125 C-3.0290625 12.5253125 -4.0190625 12.8553125 -5.0390625 13.1953125 C-5.09298243 11.40397272 -5.13181821 9.61217351 -5.1640625 7.8203125 C-5.18726563 6.82257813 -5.21046875 5.82484375 -5.234375 4.796875 C-4.93856774 0.85672235 -3.87172424 0.24882547 0 0 Z " fill="#6750E1" transform="translate(137.0390625,123.8046875)"/>
<path d="M0 0 C3.96 0 7.92 0 12 0 C12 0.99 12 1.98 12 3 C9.36 3 6.72 3 4 3 C4 3.66 4 4.32 4 5 C6.31 5 8.62 5 11 5 C8.60236815 7.39763185 7.66726502 7.34280586 4.375 7.625 C3.55773437 7.69976562 2.74046875 7.77453125 1.8984375 7.8515625 C1.27195313 7.90054688 0.64546875 7.94953125 0 8 C-1.125 2.25 -1.125 2.25 0 0 Z " fill="#583DE1" transform="translate(167,129)"/>
<path d="M0 0 C2.97 0.33 5.94 0.66 9 1 C9 2.65 9 4.3 9 6 C8.34 6 7.68 6 7 6 C7.66 7.65 8.32 9.3 9 11 C8.01 10.67 7.02 10.34 6 10 C6 9.01 6 8.02 6 7 C4.68 7 3.36 7 2 7 C1.67 7.99 1.34 8.98 1 10 C0 9 0 9 -0.09765625 6.93359375 C-0.06510417 4.62239583 -0.03255208 2.31119792 0 0 Z " fill="#9D9FB4" transform="translate(172,154)"/>
<path d="M0 0 C1.04449911 3.13349732 0.93423645 3.98968256 0 7 C0.66 7 1.32 7 2 7 C2 5.35 2 3.7 2 2 C4.64 2 7.28 2 10 2 C10 2.33 10 2.66 10 3 C8.02 3 6.04 3 4 3 C4 4.32 4 5.64 4 7 C5.65 7 7.3 7 9 7 C9 7.33 9 7.66 9 8 C7.35 8 5.7 8 4 8 C4 8.99 4 9.98 4 11 C5.98 11 7.96 11 10 11 C10 11.66 10 12.32 10 13 C7.69 13 5.38 13 3 13 C2.67 11.35 2.34 9.7 2 8 C1.01 8.495 1.01 8.495 0 9 C-0.33 9.99 -0.66 10.98 -1 12 C-1.66 12 -2.32 12 -3 12 C-3.33 12.66 -3.66 13.32 -4 14 C-3.00956295 9.16371695 -2.04301154 4.52381127 0 0 Z " fill="#A7ABBD" transform="translate(200,152)"/>
<path d="M0 0 C0.33 0.66 0.66 1.32 1 2 C1.99 1.67 2.98 1.34 4 1 C3.67 2.98 3.34 4.96 3 7 C1.9275 7.268125 0.855 7.53625 -0.25 7.8125 C-3.92240854 8.74815876 -3.92240854 8.74815876 -6.25 10.6875 C-7.11625 11.3371875 -7.11625 11.3371875 -8 12 C-8.99 11.67 -9.98 11.34 -11 11 C-12.56118428 10.93259135 -14.1250252 10.91485544 -15.6875 10.9375 C-16.49574219 10.94652344 -17.30398437 10.95554688 -18.13671875 10.96484375 C-18.75160156 10.97644531 -19.36648437 10.98804688 -20 11 C-20 10.67 -20 10.34 -20 10 C-19.20335937 9.91363281 -18.40671875 9.82726562 -17.5859375 9.73828125 C-10.82598365 8.84188834 -6.68562652 8.0555444 -2 3 C-1.34 2.01 -0.68 1.02 0 0 Z " fill="#DCD8EF" transform="translate(76,160)"/>
<path d="M0 0 C5.75 -0.125 5.75 -0.125 8 1 C8 4.3 8 7.6 8 11 C7.01 10.67 6.02 10.34 5 10 C5 9.01 5 8.02 5 7 C3.68 7 2.36 7 1 7 C0.67 8.32 0.34 9.64 0 11 C0 7.37 0 3.74 0 0 Z " fill="#9EA1B3" transform="translate(213,154)"/>
<path d="M0 0 C2.64 0 5.28 0 8 0 C9.125 4.75 9.125 4.75 8 7 C6.02 7 4.04 7 2 7 C2 7.99 2 8.98 2 10 C1.34 10 0.68 10 0 10 C0 6.7 0 3.4 0 0 Z " fill="#9FA2B6" transform="translate(223,154)"/>
<path d="M0 0 C1.72089844 -0.00773438 1.72089844 -0.00773438 3.4765625 -0.015625 C6.375 0.25 6.375 0.25 8.375 2.25 C6.725 2.25 5.075 2.25 3.375 2.25 C3.375 2.91 3.375 3.57 3.375 4.25 C2.66214844 4.22679687 1.94929688 4.20359375 1.21484375 4.1796875 C-4.50860394 4.07184326 -9.22338814 4.32942689 -14.625 6.25 C-9.93379957 1.22371383 -6.91529037 -0.03122027 0 0 Z " fill="#3610EA" transform="translate(58.625,129.75)"/>
<path d="M0 0 C8.92282662 -0.50506566 17.22339284 1.58624999 25 6 C24.34 6.66 23.68 7.32 23 8 C21.0625 7.625 21.0625 7.625 19 7 C18.01 7 17.02 7 16 7 C14.23828125 6.1953125 14.23828125 6.1953125 12.3125 5.125 C8.27311566 3.01163009 4.44929177 1.95341966 0 1 C0 0.67 0 0.34 0 0 Z " fill="#4A29EB" transform="translate(64,110)"/>
<path d="M0 0 C0.33 1.32 0.66 2.64 1 4 C-2.3 4 -5.6 4 -9 4 C-9 5.32 -9 6.64 -9 8 C-6.69 8 -4.38 8 -2 8 C-2 9.32 -2 10.64 -2 12 C-4.97 12 -7.94 12 -11 12 C-11 8.7 -11 5.4 -11 2 C-7.7 2 -4.4 2 -1 2 C-0.67 1.34 -0.34 0.68 0 0 Z " fill="#745EE3" transform="translate(210,124)"/>
<path d="M0 0 C-1.32 0.33 -2.64 0.66 -4 1 C-3.77183594 1.74765625 -3.54367188 2.4953125 -3.30859375 3.265625 C-3.02113281 4.25046875 -2.73367187 5.2353125 -2.4375 6.25 C-2.14746094 7.22453125 -1.85742188 8.1990625 -1.55859375 9.203125 C-1.00750164 11.96243932 -1.06210391 13.3912824 -2 16 C-4.31 15.67 -6.62 15.34 -9 15 C-8.34 14.34 -7.68 13.68 -7 13 C-6.75660449 10.10116917 -6.75660449 10.10116917 -6.875 6.875 C-6.89304688 5.77929688 -6.91109375 4.68359375 -6.9296875 3.5546875 C-6.95289063 2.71164063 -6.97609375 1.86859375 -7 1 C-4.53721199 -0.231394 -2.7204945 -0.07159196 0 0 Z " fill="#F2EFF6" transform="translate(243,128)"/>
<path d="M0 0 C1.65 0 3.3 0 5 0 C5 1.32 5 2.64 5 4 C5.99 4 6.98 4 8 4 C8 4.99 8 5.98 8 7 C0.25 8.125 0.25 8.125 -2 7 C-2 5.68 -2 4.36 -2 3 C-1.34 3 -0.68 3 0 3 C0 2.01 0 1.02 0 0 Z " fill="#5236E2" transform="translate(184,125)"/>
<path d="M0 0 C0.66 0 1.32 0 2 0 C2.103125 0.639375 2.20625 1.27875 2.3125 1.9375 C2.6528125 2.9584375 2.6528125 2.9584375 3 4 C3.99 4.33 4.98 4.66 6 5 C4.68 6.32 3.36 7.64 2 9 C1.34 8.67 0.68 8.34 0 8 C0 7.34 0 6.68 0 6 C-2.97 8.475 -2.97 8.475 -6 11 C-6.66 10.67 -7.32 10.34 -8 10 C-7.50628906 9.44570312 -7.01257813 8.89140625 -6.50390625 8.3203125 C-5.86324219 7.59585938 -5.22257812 6.87140625 -4.5625 6.125 C-3.92441406 5.40570313 -3.28632812 4.68640625 -2.62890625 3.9453125 C-0.94985535 2.09249509 -0.94985535 2.09249509 0 0 Z " fill="#3913EE" transform="translate(93,169)"/>
<path d="M0 0 C1.65 0 3.3 0 5 0 C5 4.62 5 9.24 5 14 C3.68 13.67 2.36 13.34 1 13 C1.99 13 2.98 13 4 13 C4 11.02 4 9.04 4 7 C2.68 7.99 1.36 8.98 0 10 C0 6.7 0 3.4 0 0 Z " fill="#5F47DE" transform="translate(159,129)"/>
<path d="M0 0 C5.28 1.32 10.56 2.64 16 4 C12.49726462 6.33515692 11.55147373 6.13947892 7.5 5.6875 C6.5409375 5.58824219 5.581875 5.48898438 4.59375 5.38671875 C2 5 2 5 -1 4 C-0.67 2.68 -0.34 1.36 0 0 Z " fill="#F5F2F6" transform="translate(49,168)"/>
<path d="M0 0 C1.8125 1.5 1.8125 1.5 3 3 C1.02 3 -0.96 3 -3 3 C-3 4.98 -3 6.96 -3 9 C-4.32 9.33 -5.64 9.66 -7 10 C-7 7.03 -7 4.06 -7 1 C-4.45132831 -0.27433584 -2.82594567 -0.27570202 0 0 Z " fill="#5438DE" transform="translate(229,129)"/>
<path d="M0 0 C3.16130459 4.21507278 3.3367697 5.06071112 3 10 C3.66 10 4.32 10 5 10 C5 11.65 5 13.3 5 15 C4.34 15 3.68 15 3 15 C2.67 15.66 2.34 16.32 2 17 C1.34 17 0.68 17 0 17 C0 11.39 0 5.78 0 0 Z " fill="#FCFCEE" transform="translate(32,140)"/>
<path d="M0 0 C3.625 0.375 3.625 0.375 7 1 C7 1.33 7 1.66 7 2 C5.02 2.33 3.04 2.66 1 3 C1 4.65 1 6.3 1 8 C2.98 8 4.96 8 7 8 C7 8.66 7 9.32 7 10 C3.71303767 10.79953138 2.28976808 11.09658936 -1 10 C-2.38125018 7.23749964 -2.19079306 5.05268901 -2 2 C-1.34 1.34 -0.68 0.68 0 0 Z " fill="#A3A5B5" transform="translate(163,154)"/>
<path d="M0 0 C-0.495 0.4125 -0.99 0.825 -1.5 1.25 C-3.43386092 3.12202338 -3.43386092 3.12202338 -3 7 C-3.66 7 -4.32 7 -5 7 C-5 10.63 -5 14.26 -5 18 C-5.33 18 -5.66 18 -6 18 C-6 13.05 -6 8.1 -6 3 C-7.32 2.67 -8.64 2.34 -10 2 C-3.375 -1.125 -3.375 -1.125 0 0 Z " fill="#E4DFF6" transform="translate(223,121)"/>
<path d="M0 0 C3 2 3 2 3.6875 5.125 C3.8421875 6.548125 3.8421875 6.548125 4 8 C6.64 8.33 9.28 8.66 12 9 C12 9.33 12 9.66 12 10 C8.7 10 5.4 10 2 10 C2 10.66 2 11.32 2 12 C1.34 12 0.68 12 0 12 C0 8.04 0 4.08 0 0 Z " fill="#F3F0F8" transform="translate(164,129)"/>
<path d="M0 0 C2.03125 0.26953125 2.03125 0.26953125 4.5 0.8125 C5.3146875 0.98394531 6.129375 1.15539062 6.96875 1.33203125 C7.97421875 1.66267578 7.97421875 1.66267578 9 2 C9.33 2.66 9.66 3.32 10 4 C9.01 4.99 8.02 5.98 7 7 C3.08597051 5.73058503 1.20927127 4.48832306 -1 1 C-0.67 0.67 -0.34 0.34 0 0 Z " fill="#330EEE" transform="translate(83,116)"/>
<path d="M0 0 C0.99 0.33 1.98 0.66 3 1 C2.67 1.78375 2.34 2.5675 2 3.375 C0.72589829 7.99361869 0.83076064 12.24249356 1 17 C0.34 17 -0.32 17 -1 17 C-1 15.02 -1 13.04 -1 11 C-1.66 11 -2.32 11 -3 11 C-3 9.35 -3 7.7 -3 6 C-2.01 5.67 -1.02 5.34 0 5 C0 3.35 0 1.7 0 0 Z " fill="#F1ECFE" transform="translate(38,139)"/>
<path d="M0 0 C1.65 0 3.3 0 5 0 C5 2.31 5 4.62 5 7 C3.35 7 1.7 7 0 7 C0 4.69 0 2.38 0 0 Z " fill="#F8F5F5" transform="translate(227,132)"/>
<path d="M0 0 C1.65 0 3.3 0 5 0 C5 2.64 5 5.28 5 8 C4.34 7.01 3.68 6.02 3 5 C2.34 5 1.68 5 1 5 C1 7.31 1 9.62 1 12 C0.67 12 0.34 12 0 12 C0 8.04 0 4.08 0 0 Z " fill="#7058E4" transform="translate(149,128)"/>
<path d="M0 0 C0.33 0.66 0.66 1.32 1 2 C1.99 1.67 2.98 1.34 4 1 C3.67 2.98 3.34 4.96 3 7 C2.01 7.33 1.02 7.66 0 8 C-0.33 7.01 -0.66 6.02 -1 5 C-2.32 5.99 -3.64 6.98 -5 8 C-5.66 7.67 -6.32 7.34 -7 7 C-6.21625 6.401875 -5.4325 5.80375 -4.625 5.1875 C-1.85425677 3.08914751 -1.85425677 3.08914751 0 0 Z " fill="#E6E0F9" transform="translate(76,160)"/>
<path d="M0 0 C0.99 0 1.98 0 3 0 C3 3.63 3 7.26 3 11 C2.01 11 1.02 11 0 11 C0 7.37 0 3.74 0 0 Z " fill="#F5F2FA" transform="translate(129,126)"/>
<path d="M0 0 C3.3 1.65 6.6 3.3 10 5 C9.67 5.66 9.34 6.32 9 7 C4.50970874 7.36407767 4.50970874 7.36407767 2.25 5.75 C1 4 1 4 0 0 Z " fill="#F4F1F2" transform="translate(71,112)"/>
<path d="M0 0 C3.3 0 6.6 0 10 0 C10 1.32 10 2.64 10 4 C7.36 4 4.72 4 2 4 C2.33 3.01 2.66 2.02 3 1 C2.01 0.67 1.02 0.34 0 0 Z " fill="#644AE8" transform="translate(137,139)"/>
<path d="M0 0 C0.94875 0.04125 1.8975 0.0825 2.875 0.125 C3.205 1.115 3.535 2.105 3.875 3.125 C3.545 3.785 3.215 4.445 2.875 5.125 C-1.67884615 5.49423077 -1.67884615 5.49423077 -3.9375 3.625 C-4.329375 3.13 -4.72125 2.635 -5.125 2.125 C-3.125 0.125 -3.125 0.125 0 0 Z " fill="#EFECF4" transform="translate(92.125,112.875)"/>
<path d="M0 0 C-0.33 0.99 -0.66 1.98 -1 3 C-4.76379687 4.8066225 -9.04138185 3.59379272 -13 3 C-13 2.67 -13 2.34 -13 2 C-11.02 1.67 -9.04 1.34 -7 1 C-7.33 0.34 -7.66 -0.32 -8 -1 C-4.59745511 -2.2151946 -3.06748874 -1.86240388 0 0 Z " fill="#FCFCF0" transform="translate(69,172)"/>
<path d="M0 0 C0.66 0 1.32 0 2 0 C2 2.31 2 4.62 2 7 C2.66 7 3.32 7 4 7 C3.67 8.32 3.34 9.64 3 11 C1.68 10.34 0.36 9.68 -1 9 C-0.67 6.03 -0.34 3.06 0 0 Z " fill="#F4F6FA" transform="translate(221,157)"/>
<path d="M0 0 C1.32 0 2.64 0 4 0 C4.33 1.98 4.66 3.96 5 6 C3.68 6.99 2.36 7.98 1 9 C0.67 6.03 0.34 3.06 0 0 Z " fill="#5B3FE7" transform="translate(239,129)"/>
<path d="M0 0 C5.94 0 11.88 0 18 0 C17.34 1.32 16.68 2.64 16 4 C15.21625 3.690625 14.4325 3.38125 13.625 3.0625 C9.10148422 1.73664193 4.68568186 1.35188915 0 1 C0 0.67 0 0.34 0 0 Z " fill="#DCD3F6" transform="translate(55,129)"/>
<path d="M0 0 C-0.66 0.66 -1.32 1.32 -2 2 C-1.34 2.66 -0.68 3.32 0 4 C-4.68965706 5.11658501 -7.53763531 4.80619523 -12 3 C-3.33333333 -1.66666667 -3.33333333 -1.66666667 0 0 Z " fill="#E7E2F9" transform="translate(85,187)"/>
<path d="M0 0 C0.95465783 2.16967689 1.14401212 3.56328793 0.3984375 5.82421875 C-0.35870385 7.5684743 -1.17609198 9.28627131 -2 11 C-4.62386487 7.93882432 -5 7.26826873 -5 3 C-3.35 3 -1.7 3 0 3 C0 2.01 0 1.02 0 0 Z " fill="#3914EA" transform="translate(105,158)"/>
<path d="M0 0 C0.33 0 0.66 0 1 0 C1 3.3 1 6.6 1 10 C0.67 10 0.34 10 0 10 C-0.33 8.35 -0.66 6.7 -1 5 C-2.485 7.475 -2.485 7.475 -4 10 C-4.66 8.68 -5.32 7.36 -6 6 C-5.34 6 -4.68 6 -4 6 C-2.63823419 4.01924973 -1.30406884 2.01920337 0 0 Z " fill="#9299AB" transform="translate(193,154)"/>
<path d="M0 0 C0.33 0.66 0.66 1.32 1 2 C3.02463255 2.65213292 3.02463255 2.65213292 5 3 C4.34 3 3.68 3 3 3 C2.67 5.31 2.34 7.62 2 10 C0.02 10 -1.96 10 -4 10 C-4 9.67 -4 9.34 -4 9 C-2.35 9 -0.7 9 1 9 C0.649375 8.071875 0.29875 7.14375 -0.0625 6.1875 C-1 3 -1 3 0 0 Z " fill="#6C53E7" transform="translate(246,133)"/>
<path d="M0 0 C3.3 0 6.6 0 10 0 C10 0.99 10 1.98 10 3 C2.25 3.125 2.25 3.125 0 2 C0 1.34 0 0.68 0 0 Z " fill="#5437EB" transform="translate(136,124)"/>
<path d="M0 0 C-4.03923713 2.69282475 -6.95536152 3.13300939 -11.75 3.0625 C-12.54921875 3.05347656 -13.3484375 3.04445312 -14.171875 3.03515625 C-14.77515625 3.02355469 -15.3784375 3.01195312 -16 3 C-10.85913339 -0.42724441 -5.99202204 -0.1015597 0 0 Z " fill="#5A3CF2" transform="translate(80,187)"/>
<path d="M0 0 C0.66 0 1.32 0 2 0 C2.66 0.99 3.32 1.98 4 3 C3.09456151 5.71631546 2.07525194 8.34771188 1 11 C0.67 11 0.34 11 0 11 C0 7.37 0 3.74 0 0 Z " fill="#A0A4B6" transform="translate(183,154)"/>
<path d="M0 0 C1.65 0 3.3 0 5 0 C5 1.32 5 2.64 5 4 C1.25 5.125 1.25 5.125 -1 4 C-1.33 4.99 -1.66 5.98 -2 7 C-2 5.68 -2 4.36 -2 3 C-1.34 3 -0.68 3 0 3 C0 2.01 0 1.02 0 0 Z " fill="#7760E8" transform="translate(184,125)"/>
<path d="M0 0 C0.33 0 0.66 0 1 0 C1.33 5.28 1.66 10.56 2 16 C1.34 16 0.68 16 0 16 C-0.33 17.32 -0.66 18.64 -1 20 C-2.29183852 17.41632296 -1.7109138 16.76931129 -1 14 C-0.77882441 11.5861824 -0.59427758 9.16885403 -0.4375 6.75 C-0.35371094 5.48671875 -0.26992187 4.2234375 -0.18359375 2.921875 C-0.12300781 1.95765625 -0.06242187 0.9934375 0 0 Z " fill="#CDC2F7" transform="translate(107,144)"/>
<path d="M0 0 C1.76462683 3.08809695 2 4.23312136 2 8 C0.68 8 -0.64 8 -2 8 C-2 5.69 -2 3.38 -2 1 C-1.34 0.67 -0.68 0.34 0 0 Z " fill="#4E30E8" transform="translate(152,132)"/>
<path d="M0 0 C1.65 0 3.3 0 5 0 C5.33 1.65 5.66 3.3 6 5 C5.67 4.34 5.34 3.68 5 3 C3.68 3 2.36 3 1 3 C1.99 3.33 2.98 3.66 4 4 C4 4.66 4 5.32 4 6 C2.68 6 1.36 6 0 6 C0 4.02 0 2.04 0 0 Z " fill="#573DDB" transform="translate(247,129)"/>
<path d="M0 0 C2.27521866 2.16687491 4.15794162 4.45620509 6 7 C5.01 7.66 4.02 8.32 3 9 C2.67 8.01 2.34 7.02 2 6 C1.01 5.67 0.02 5.34 -1 5 C-0.67 3.35 -0.34 1.7 0 0 Z " fill="#F4F7F9" transform="translate(185,159)"/>
<path d="M0 0 C1.98 0.495 1.98 0.495 4 1 C3.54857119 2.29409592 3.08858979 3.58521059 2.625 4.875 C2.36976562 5.59429687 2.11453125 6.31359375 1.8515625 7.0546875 C1 9 1 9 -1 11 C-0.67 7.37 -0.34 3.74 0 0 Z " fill="#E7E0FB" transform="translate(93,160)"/>
<path d="M0 0 C0.66 0 1.32 0 2 0 C2 2.64 2 5.28 2 8 C0.68 8.33 -0.64 8.66 -2 9 C-2 7.02 -2 5.04 -2 3 C-1.34 3 -0.68 3 0 3 C0 2.01 0 1.02 0 0 Z " fill="#DFD8F7" transform="translate(182,132)"/>
<path d="M0 0 C3.63 0 7.26 0 11 0 C11 0.99 11 1.98 11 3 C9.54077307 2.88590407 8.08259402 2.75834456 6.625 2.625 C5.40683594 2.52058594 5.40683594 2.52058594 4.1640625 2.4140625 C2 2 2 2 0 0 Z " fill="#4E2FE7" transform="translate(168,129)"/>
<path d="M0 0 C2 2 2 2 2.125 5.625 C2.08375 6.73875 2.0425 7.8525 2 9 C1.01 9.33 0.02 9.66 -1 10 C-1.02689216 8.52093108 -1.04634621 7.04172517 -1.0625 5.5625 C-1.07410156 4.73878906 -1.08570313 3.91507813 -1.09765625 3.06640625 C-1 1 -1 1 0 0 Z " fill="#5031ED" transform="translate(215,128)"/>
<path d="M0 0 C1.98 0 3.96 0 6 0 C6.33 0.99 6.66 1.98 7 3 C4.69 3.33 2.38 3.66 0 4 C0 2.68 0 1.36 0 0 Z " fill="#FBF9F5" transform="translate(201,128)"/>
<path d="M0 0 C0.99 0.33 1.98 0.66 3 1 C2.67 2.98 2.34 4.96 2 7 C1.67 6.01 1.34 5.02 1 4 C-2.63 4 -6.26 4 -10 4 C-10 3.67 -10 3.34 -10 3 C-7.03 3 -4.06 3 -1 3 C-0.67 2.01 -0.34 1.02 0 0 Z " fill="#FCFBEF" transform="translate(210,120)"/>
<path d="M0 0 C0.66 0 1.32 0 2 0 C3.35439668 2.70879335 3.06501451 5.00933268 3 8 C1.68 7.67 0.36 7.34 -1 7 C-0.67 4.69 -0.34 2.38 0 0 Z " fill="#ECE9F3" transform="translate(249,136)"/>
<path d="M0 0 C2.64 0 5.28 0 8 0 C8 0.99 8 1.98 8 3 C5.36 3 2.72 3 0 3 C0 2.01 0 1.02 0 0 Z " fill="#5133E9" transform="translate(200,133)"/>
<path d="M0 0 C-1.32 0.33 -2.64 0.66 -4 1 C-3.67 3.31 -3.34 5.62 -3 8 C-3.99 8 -4.98 8 -6 8 C-6.33 5.69 -6.66 3.38 -7 1 C-4.53721199 -0.231394 -2.7204945 -0.07159196 0 0 Z " fill="#DAD3F2" transform="translate(243,128)"/>
<path d="M0 0 C2.475 0.495 2.475 0.495 5 1 C5 2.32 5 3.64 5 5 C3.35 5 1.7 5 0 5 C0 3.35 0 1.7 0 0 Z " fill="#EEF0F3" transform="translate(174,155)"/>
<path d="M0 0 C1.4540625 0.0309375 1.4540625 0.0309375 2.9375 0.0625 C2.9375 1.3825 2.9375 2.7025 2.9375 4.0625 C0.5625 4.25 0.5625 4.25 -2.0625 4.0625 C-2.7225 3.0725 -3.3825 2.0825 -4.0625 1.0625 C-3.0625 0.0625 -3.0625 0.0625 0 0 Z " fill="#5C40E8" transform="translate(217.0625,138.9375)"/>
<path d="M0 0 C0.33 0 0.66 0 1 0 C1 1.98 1 3.96 1 6 C-1.97 5.67 -4.94 5.34 -8 5 C-8 4.34 -8 3.68 -8 3 C-5.36 3 -2.72 3 0 3 C0 2.01 0 1.02 0 0 Z " fill="#E4DEF9" transform="translate(179,129)"/>
<path d="M0 0 C3 1 3 1 5 4 C5.66 4 6.32 4 7 4 C6.67 5.98 6.34 7.96 6 10 C5.01 9.67 4.02 9.34 3 9 C2.67 6.69 2.34 4.38 2 2 C1.34 2 0.68 2 0 2 C0 1.34 0 0.68 0 0 Z " fill="#2905E5" transform="translate(92,121)"/>
<path d="M0 0 C-1.39332574 3.36720387 -2.9789286 4.9859524 -6 7 C-6.66 6.67 -7.32 6.34 -8 6 C-3.375 0 -3.375 0 0 0 Z " fill="#EDEAEF" transform="translate(86,177)"/>
<path d="M0 0 C0.66 0.33 1.32 0.66 2 1 C2.81309902 4.91765889 3.37553268 8.17907588 2 12 C-1.57142857 4.71428571 -1.57142857 4.71428571 0 0 Z " fill="#2A02EF" transform="translate(98,132)"/>
<path d="M0 0 C2.31 0 4.62 0 7 0 C7 1.32 7 2.64 7 4 C4.525 3.01 4.525 3.01 2 2 C1.67 3.65 1.34 5.3 1 7 C0.67 7 0.34 7 0 7 C0 4.69 0 2.38 0 0 Z " fill="#E5E2F4" transform="translate(200,136)"/>
<path d="M0 0 C2.5 2.3125 2.5 2.3125 5 5 C5 5.99 5 6.98 5 8 C3.68 7.67 2.36 7.34 1 7 C0.67 4.69 0.34 2.38 0 0 Z " fill="#E1DBF7" transform="translate(40,160)"/>
<path d="M0 0 C0.66 0 1.32 0 2 0 C2 1.98 2 3.96 2 6 C-0.86724686 5.42655063 -1.8614515 5.1385485 -4 3 C-3.01 3 -2.02 3 -1 3 C-0.67 2.01 -0.34 1.02 0 0 Z " fill="#4D2FE6" transform="translate(161,136)"/>
<path d="M0 0 C1.32 0 2.64 0 4 0 C4.33 1.32 4.66 2.64 5 4 C1.86650268 5.04449911 1.01031744 4.93423645 -2 4 C-1.34 2.68 -0.68 1.36 0 0 Z " fill="#E6E9F0" transform="translate(174,161)"/>
<path d="M0 0 C0.66 0.33 1.32 0.66 2 1 C1.67 3.64 1.34 6.28 1 9 C0.01 9.33 -0.98 9.66 -2 10 C-1.34 6.7 -0.68 3.4 0 0 Z " fill="#EDE8F7" transform="translate(260,133)"/>
<path d="M0 0 C0.99 0 1.98 0 3 0 C3.33 1.98 3.66 3.96 4 6 C2.68 6 1.36 6 0 6 C0 4.02 0 2.04 0 0 Z " fill="#5338DF" transform="translate(196,137)"/>
<path d="M0 0 C0.33 0 0.66 0 1 0 C1 2.31 1 4.62 1 7 C0.34 7 -0.32 7 -1 7 C-1.33 8.32 -1.66 9.64 -2 11 C-2.66 10.67 -3.32 10.34 -4 10 C-3.67 8.68 -3.34 7.36 -3 6 C-2.01 6 -1.02 6 0 6 C0 4.02 0 2.04 0 0 Z " fill="#6F58E2" transform="translate(226,132)"/>
<path d="M0 0 C1.65 0 3.3 0 5 0 C4.67 1.32 4.34 2.64 4 4 C2.68 4 1.36 4 0 4 C0 2.68 0 1.36 0 0 Z " fill="#F4F7F9" transform="translate(225,156)"/>
<path d="M0 0 C1.65 0 3.3 0 5 0 C4.67 1.32 4.34 2.64 4 4 C2.68 4 1.36 4 0 4 C0 2.68 0 1.36 0 0 Z " fill="#F4F7F8" transform="translate(214,156)"/>
<path d="M0 0 C1.98 0 3.96 0 6 0 C5.01 0.495 5.01 0.495 4 1 C4.33 1.99 4.66 2.98 5 4 C3.35 4 1.7 4 0 4 C0 2.68 0 1.36 0 0 Z " fill="#DADFEA" transform="translate(204,155)"/>
<path d="M0 0 C0.33 0.99 0.66 1.98 1 3 C1.66 3.33 2.32 3.66 3 4 C0.03 4 -2.94 4 -6 4 C-4.03617993 2.49440461 -2.21736634 1.10868317 0 0 Z " fill="#4525F4" transform="translate(80,183)"/>
<path d="M0 0 C0 0.66 0 1.32 0 2 C-2.31 2.33 -4.62 2.66 -7 3 C-7.33 2.34 -7.66 1.68 -8 1 C-5.07175348 0.02391783 -3.04386724 -0.08226668 0 0 Z " fill="#F6F5EC" transform="translate(76,184)"/>
<path d="M0 0 C0.6875 1.75 0.6875 1.75 1 4 C-0.4375 6.25 -0.4375 6.25 -2 8 C-3 7 -3 7 -3.0625 4.4375 C-3.041875 3.633125 -3.02125 2.82875 -3 2 C-2.01 2 -1.02 2 0 2 C0 1.34 0 0.68 0 0 Z " fill="#FAF9F3" transform="translate(110,158)"/>
<path d="M0 0 C0.66 0.66 1.32 1.32 2 2 C1.625 5.125 1.625 5.125 1 8 C0.34 7.67 -0.32 7.34 -1 7 C-1.625 3.9375 -1.625 3.9375 -2 1 C-1.34 0.67 -0.68 0.34 0 0 Z " fill="#E6E0FA" transform="translate(245,128)"/>
<path d="M0 0 C2.52588702 2.36292656 3.88820837 3.66462511 5 7 C4.34 7.66 3.68 8.32 3 9 C2.67 7.68 2.34 6.36 2 5 C1.01 5.495 1.01 5.495 0 6 C-1.125 2.25 -1.125 2.25 0 0 Z " fill="#E5DEF7" transform="translate(89,125)"/>
<path d="M0 0 C-1.04874998 2.62187494 -1.64931313 3.79371361 -4.125 5.25 C-4.74375 5.4975 -5.3625 5.745 -6 6 C-5.67 4.35 -5.34 2.7 -5 1 C-2 0 -2 0 0 0 Z " fill="#431DF3" transform="translate(93,179)"/>
<path d="M0 0 C3.38023517 0 5.83468937 0.87455622 9 2 C5.91190305 3.76462683 4.76687864 4 1 4 C0.67 2.68 0.34 1.36 0 0 Z " fill="#EFF3F3" transform="translate(160,164)"/>
<path d="M0 0 C0.99 0 1.98 0 3 0 C2.1875 1.9375 2.1875 1.9375 1 4 C0.01 4.33 -0.98 4.66 -2 5 C-2.66 4.34 -3.32 3.68 -4 3 C-2.68 2.67 -1.36 2.34 0 2 C0 1.34 0 0.68 0 0 Z " fill="#3914F3" transform="translate(72,161)"/>
<path d="M0 0 C1.32 0 2.64 0 4 0 C3.67 1.98 3.34 3.96 3 6 C2.34 6 1.68 6 1 6 C0.67 4.02 0.34 2.04 0 0 Z " fill="#F8F9EA" transform="translate(207,136)"/>
</svg>
